<?xml version="1.0" encoding="UTF-8"?>
<svg id="Layer_1" data-name="Layer 1" xmlns="http://www.w3.org/2000/svg" xmlns:svg="http://www.w3.org/2000/svg" version="1.1" viewBox="0 0 300 150">
  <defs>
    <style>
      .cls-1 {
        stroke: #00ff39;
        stroke-dasharray: 0 0 8 6;
        stroke-miterlimit: 10;
        stroke-width: .5px;
      }

      .cls-1, .cls-2, .cls-3, .cls-4, .cls-5, .cls-6, .cls-7, .cls-8, .cls-9, .cls-10, .cls-11, .cls-12, .cls-13, .cls-14, .cls-15, .cls-16, .cls-17, .cls-18, .cls-19, .cls-20, .cls-21, .cls-22, .cls-23, .cls-24, .cls-25, .cls-26, .cls-27, .cls-28, .cls-29, .cls-30, .cls-31, .cls-32, .cls-33, .cls-34, .cls-35, .cls-36, .cls-37, .cls-38, .cls-39, .cls-40, .cls-41, .cls-42, .cls-43, .cls-44, .cls-45, .cls-46, .cls-47, .cls-48, .cls-49, .cls-50, .cls-51, .cls-52, .cls-53, .cls-54, .cls-55, .cls-56, .cls-57, .cls-58, .cls-59, .cls-60, .cls-61 {
        fill: none;
      }

      .cls-2 {
        stroke-miterlimit: 4;
        stroke-width: 1px;
      }

      .cls-2, .cls-3, .cls-4, .cls-5, .cls-6, .cls-7, .cls-8, .cls-9, .cls-10, .cls-11, .cls-12, .cls-13, .cls-14, .cls-15, .cls-16, .cls-17, .cls-18, .cls-19, .cls-20, .cls-21, .cls-22, .cls-23, .cls-24, .cls-25, .cls-26, .cls-27, .cls-28, .cls-29, .cls-30, .cls-31, .cls-32, .cls-33, .cls-34, .cls-35, .cls-36, .cls-37, .cls-38, .cls-39, .cls-40, .cls-41, .cls-42, .cls-43, .cls-44, .cls-45, .cls-46, .cls-47, .cls-48, .cls-49, .cls-50, .cls-51, .cls-52, .cls-53, .cls-54, .cls-55, .cls-56, .cls-57, .cls-58, .cls-59, .cls-60, .cls-61 {
        stroke: #646464;
      }

      .cls-3 {
        stroke-miterlimit: 4;
        stroke-width: 1px;
      }

      .cls-4 {
        stroke-miterlimit: 4;
        stroke-width: 1px;
      }

      .cls-5 {
        stroke-miterlimit: 4;
        stroke-width: 1px;
      }

      .cls-6 {
        stroke-miterlimit: 4;
        stroke-width: 1px;
      }

      .cls-7 {
        stroke-miterlimit: 4;
        stroke-width: 1px;
      }

      .cls-8 {
        stroke-miterlimit: 4;
        stroke-width: 1px;
      }

      .cls-9 {
        stroke-miterlimit: 4;
        stroke-width: 1px;
      }

      .cls-10 {
        stroke-miterlimit: 4;
        stroke-width: 1px;
      }

      .cls-11 {
        stroke-miterlimit: 4;
        stroke-width: 1px;
      }

      .cls-12 {
        stroke-miterlimit: 4;
        stroke-width: 1px;
      }

      .cls-13 {
        stroke-miterlimit: 4;
        stroke-width: 1px;
      }

      .cls-14 {
        stroke-miterlimit: 4;
        stroke-width: 1px;
      }

      .cls-15 {
        stroke-miterlimit: 4;
        stroke-width: 1px;
      }

      .cls-16 {
        stroke-miterlimit: 4;
        stroke-width: 1px;
      }

      .cls-17 {
        stroke-miterlimit: 4;
        stroke-width: 1px;
      }

      .cls-18 {
        stroke-miterlimit: 4;
        stroke-width: 1px;
      }

      .cls-19 {
        stroke-miterlimit: 4;
        stroke-width: 1px;
      }

      .cls-20 {
        stroke-miterlimit: 4;
        stroke-width: 1px;
      }

      .cls-21 {
        stroke-miterlimit: 4;
        stroke-width: 1px;
      }

      .cls-22 {
        stroke-miterlimit: 4;
        stroke-width: 1px;
      }

      .cls-23 {
        stroke-miterlimit: 4;
        stroke-width: 1px;
      }

      .cls-24 {
        stroke-miterlimit: 4;
        stroke-width: 1px;
      }

      .cls-25 {
        stroke-miterlimit: 4;
        stroke-width: 1px;
      }

      .cls-26 {
        stroke-miterlimit: 4;
        stroke-width: 1px;
      }

      .cls-27 {
        stroke-miterlimit: 4;
        stroke-width: 1px;
      }

      .cls-28 {
        stroke-miterlimit: 4;
        stroke-width: 1px;
      }

      .cls-29 {
        stroke-miterlimit: 4;
        stroke-width: 1px;
      }

      .cls-30 {
        stroke-miterlimit: 4;
        stroke-width: 1px;
      }

      .cls-31 {
        stroke-miterlimit: 4;
        stroke-width: 1px;
      }

      .cls-32 {
        stroke-miterlimit: 4;
        stroke-width: 1px;
      }

      .cls-33 {
        stroke-miterlimit: 4;
        stroke-width: 1px;
      }

      .cls-34 {
        stroke-miterlimit: 4;
        stroke-width: 1px;
      }

      .cls-35 {
        stroke-miterlimit: 4;
        stroke-width: 1px;
      }

      .cls-36 {
        stroke-miterlimit: 4;
        stroke-width: 1px;
      }

      .cls-37 {
        stroke-miterlimit: 4;
        stroke-width: 1px;
      }

      .cls-38 {
        stroke-miterlimit: 4;
        stroke-width: 1px;
      }

      .cls-39 {
        stroke-miterlimit: 4;
        stroke-width: 1px;
      }

      .cls-40 {
        stroke-miterlimit: 4;
        stroke-width: 1px;
      }

      .cls-41 {
        stroke-miterlimit: 4;
        stroke-width: 1px;
      }

      .cls-42 {
        stroke-miterlimit: 4;
        stroke-width: 1px;
      }

      .cls-43 {
        stroke-miterlimit: 4;
        stroke-width: 1px;
      }

      .cls-44 {
        stroke-miterlimit: 4;
        stroke-width: 1px;
      }

      .cls-45 {
        stroke-miterlimit: 4;
        stroke-width: 1px;
      }

      .cls-46 {
        stroke-miterlimit: 4;
        stroke-width: 1px;
      }

      .cls-47 {
        stroke-miterlimit: 4;
        stroke-width: 1px;
      }

      .cls-48 {
        stroke-miterlimit: 4;
        stroke-width: 1px;
      }

      .cls-49 {
        stroke-miterlimit: 4;
        stroke-width: 1px;
      }

      .cls-50 {
        stroke-miterlimit: 4;
        stroke-width: 1px;
      }

      .cls-51 {
        stroke-miterlimit: 4;
        stroke-width: 1px;
      }

      .cls-52 {
        stroke-miterlimit: 4;
        stroke-width: 1px;
      }

      .cls-53 {
        stroke-miterlimit: 4;
        stroke-width: 1px;
      }

      .cls-54 {
        stroke-miterlimit: 4;
        stroke-width: 1px;
      }

      .cls-55 {
        stroke-miterlimit: 4;
        stroke-width: 1px;
      }

      .cls-56 {
        stroke-miterlimit: 4;
        stroke-width: 1px;
      }

      .cls-57 {
        stroke-miterlimit: 4;
        stroke-width: 1px;
      }

      .cls-58 {
        stroke-miterlimit: 4;
        stroke-width: 1px;
      }

      .cls-59 {
        stroke-miterlimit: 4;
        stroke-width: 1px;
      }

      .cls-60 {
        stroke-miterlimit: 4;
        stroke-width: 1px;
      }

      .cls-61 {
        stroke-miterlimit: 4;
        stroke-width: 1px;
      }
    </style>
  </defs>
  <g>
    <path class="cls-54" d="M161.1,94.7h0c0,0,0-.4,0-.4v-.5s0-.7,0-.7v-.8c0,0,.2-1,.2-1l.2-1.2.2-1.4.3-1.6.3-1.8.4-1.9.5-2.1.5-2.3.6-2.5.7-2.6.8-2.8.9-3,1-3.1,1.2-3.3,1.3-3.5,1-2.6"/>
    <g>
      <path class="cls-8" d="M196.8,96.1h0c0,0,0-.4,0-.4v-.5s0-.7,0-.7v-.8s0-1,0-1v-1.2c0,0-.1-1.4-.1-1.4v-1.6c-.1,0-.3-1.8-.3-1.8l-.2-2-.3-2.2-.3-2.3-.4-2.5-.5-2.7-.6-2.9-.7-3-.8-3.2-.9-3.4-1-3.6-.8-2.7"/>
      <path class="cls-8" d="M196.8,96.1c-.1,1.9,1.3,3.6,3.2,3.7"/>
    </g>
    <path class="cls-54" d="M189.8,56.1c-6.2-.4-12.3-.6-18.5-.8"/>
    <path class="cls-54" d="M218.1,101.5c-6-.6-12-1.2-18.1-1.6"/>
    <path class="cls-54" d="M157.6,98.1c1.9,0,3.5-1.5,3.5-3.4"/>
    <g>
      <path class="cls-17" d="M221.9,98.4h0c0,0,0-.4,0-.4v-.5c0,0,.2-.7.2-.7l.2-.8.2-1,.3-1.2.3-1.4.4-1.6.5-1.7.6-1.9.7-2.1.8-2.2.9-2.4,1-2.6,1.1-2.7,1.2-2.9,1.3-3,1.5-3.2,1.6-3.3,1.3-2.5"/>
      <g>
        <path class="cls-13" d="M257.3,103.4h0c0,0,0-.4,0-.4v-.5c0,0,.1-.7.1-.7v-.8c0,0,.2-1,.2-1v-1.2c0,0,.1-1.4.1-1.4v-1.6s0-1.8,0-1.8v-2s-.1-2.2-.1-2.2v-2.4c-.1,0-.3-2.5-.3-2.5l-.2-2.7-.3-2.9-.4-3.1-.5-3.3-.5-3.5-.6-3.6-.5-2.7"/>
        <path class="cls-13" d="M257.3,103.4c-.3,1.9.9,3.7,2.8,4"/>
      </g>
      <path class="cls-17" d="M254.3,62.8c-6.1-1-12.2-1.8-18.3-2.6"/>
      <path class="cls-17" d="M277.9,110.7c-5.9-1.2-11.9-2.4-17.8-3.4"/>
      <path class="cls-17" d="M218.1,101.5c1.9.2,3.6-1.2,3.8-3.1"/>
    </g>
    <g>
      <path class="cls-11" d="M282,108.1h0c0,0,0-.4,0-.4v-.5c.1,0,.3-.6.3-.6l.2-.8.3-1,.4-1.2.5-1.3.6-1.5.7-1.7.8-1.8.9-2,1-2.1,1.1-2.3,1.2-2.5,1.4-2.6,1.5-2.7,1.6-2.9,1.8-3,1.9-3.1,1.5-2.3"/>
      <g>
        <path class="cls-6" d="M316.7,116.5h0c0,0,0-.4,0-.4v-.5c.1,0,.2-.6.2-.6l.2-.8.2-1,.2-1.2.2-1.4.2-1.6.2-1.8.2-2v-2.2c.1,0,.3-2.4.3-2.4v-2.6c0,0,.1-2.7.1-2.7v-2.9s0-3.1,0-3.1v-3.3c-.1,0-.3-3.5-.3-3.5l-.3-3.7-.3-2.8"/>
        <path class="cls-6" d="M316.7,116.5c-.5,1.8.6,3.7,2.4,4.2"/>
      </g>
      <path class="cls-11" d="M317.7,75.8c-6-1.6-11.9-3-17.9-4.4"/>
      <path class="cls-11" d="M336.6,125.9c-5.8-1.8-11.6-3.5-17.4-5.1"/>
      <path class="cls-11" d="M277.9,110.7c1.9.4,3.7-.8,4.1-2.7"/>
    </g>
    <g>
      <path class="cls-58" d="M340.9,123.6h0c0,0,0-.4,0-.4l.2-.4.2-.6.3-.8.4-1,.5-1.1.6-1.3.7-1.4.8-1.6.9-1.8,1.1-1.9,1.2-2,1.3-2.2,1.5-2.3,1.6-2.5,1.7-2.6,1.9-2.7,2.1-2.8,2.2-2.9,1.7-2.2"/>
      <g>
        <path class="cls-44" d="M374.6,135.4h0c0,0,0-.4,0-.4v-.4c.1,0,.3-.6.3-.6l.2-.8.3-1,.3-1.2.3-1.4.3-1.6.4-1.8.4-2,.4-2.1.3-2.3.3-2.5.3-2.7.3-2.9.2-3.1.2-3.3v-3.5c.1,0,.2-3.7.2-3.7v-2.8"/>
        <path class="cls-44" d="M374.6,135.4c-.7,1.8.2,3.8,2,4.5"/>
      </g>
      <path class="cls-58" d="M379.6,95c-5.8-2.1-11.6-4.2-17.4-6.2"/>
      <path class="cls-58" d="M393.4,146.6c-5.6-2.4-11.2-4.6-16.8-6.8"/>
      <path class="cls-58" d="M336.6,125.9c1.8.6,3.8-.4,4.3-2.3"/>
    </g>
    <g>
      <path class="cls-18" d="M398,144.8h0c0,0,.1-.3.1-.3l.2-.4.3-.6.4-.8.5-.9.6-1.1.7-1.2.8-1.4,1-1.5,1.1-1.7,1.2-1.8,1.4-1.9,1.5-2,1.7-2.2,1.8-2.3,2-2.4,2.2-2.5,2.3-2.6,2.5-2.7,1.9-2"/>
      <g>
        <path class="cls-14" d="M430.4,159.8h0c0,0,.1-.3.1-.3l.2-.4.3-.6.3-.8.4-1,.4-1.2.5-1.3.5-1.5.5-1.7.5-1.9.6-2.1.6-2.3.6-2.5.6-2.7.6-2.9.5-3.1.5-3.3.5-3.5.4-3.7.3-2.8"/>
        <path class="cls-14" d="M430.4,159.8c-.9,1.7-.2,3.8,1.5,4.6"/>
      </g>
      <path class="cls-18" d="M439.3,120.1c-5.5-2.7-11.1-5.3-16.7-7.8"/>
      <path class="cls-18" d="M448,172.9c-5.3-2.9-10.7-5.7-16.1-8.4"/>
      <path class="cls-18" d="M393.4,146.6c1.8.7,3.8,0,4.5-1.8"/>
    </g>
    <g>
      <path class="cls-45" d="M452.7,171.5h0c0,0,.1-.3.1-.3l.2-.4.4-.6.5-.7.6-.9.7-1,.8-1.1,1-1.3,1.1-1.4,1.3-1.5,1.4-1.7,1.6-1.8,1.7-1.9,1.9-2,2-2.1,2.2-2.2,2.4-2.3,2.6-2.4,2.8-2.5,2.1-1.8"/>
      <g>
        <path class="cls-53" d="M483.5,189.6h0c0,0,.1-.3.1-.3l.2-.4.3-.6.4-.8.5-.9.5-1.1.6-1.3.6-1.5.7-1.7.7-1.8.8-2,.8-2.2.8-2.4.8-2.6.8-2.8.8-3,.8-3.2.8-3.4.8-3.6.6-2.7"/>
        <path class="cls-53" d="M483.5,189.6c-1,1.6-.5,3.7,1.1,4.8"/>
      </g>
      <path class="cls-45" d="M496.2,151c-5.3-3.2-10.6-6.4-15.9-9.4"/>
      <path class="cls-45" d="M499.7,204.4c-5-3.4-10.1-6.7-15.2-10"/>
      <path class="cls-45" d="M448,172.9c1.7.9,3.8.3,4.7-1.4"/>
    </g>
    <g>
      <path class="cls-51" d="M504.5,203.5h0c0,0,.2-.3.2-.3l.3-.4.4-.5.5-.7.7-.8.8-.9.9-1.1,1.1-1.2,1.2-1.3,1.4-1.4,1.6-1.5,1.7-1.6,1.9-1.7,2.1-1.8,2.2-1.9,2.4-2,2.6-2,2.8-2.1,3-2.2,2.3-1.6"/>
      <g>
        <path class="cls-46" d="M533.4,224.5h0c0,0,.2-.3.2-.3l.3-.4.4-.5.5-.7.6-.9.6-1.1.7-1.2.8-1.4.8-1.6.9-1.8,1-1.9,1-2.1,1-2.3,1.1-2.5,1.1-2.7,1.1-2.9,1.1-3.1,1.2-3.3,1.2-3.5.8-2.6"/>
        <path class="cls-46" d="M533.4,224.5c-1.2,1.5-.9,3.7.6,4.8"/>
      </g>
      <path class="cls-51" d="M549.8,187.3c-4.9-3.7-9.9-7.4-14.9-10.9"/>
      <path class="cls-51" d="M548.1,240.8c-4.7-3.9-9.4-7.7-14.1-11.4"/>
      <path class="cls-51" d="M499.7,204.4c1.6,1.1,3.7.7,4.8-.9"/>
    </g>
    <g>
      <path class="cls-55" d="M553,240.3h0c0,0,.2-.3.2-.3l.3-.3.5-.5.6-.6.7-.7.9-.8,1-1,1.2-1.1,1.4-1.2,1.5-1.3,1.7-1.4,1.9-1.4,2.1-1.5,2.2-1.6,2.4-1.7,2.6-1.7,2.8-1.8,3-1.8,3.2-1.9,2.4-1.4"/>
      <g>
        <path class="cls-20" d="M579.6,264.1h0c0,0,.2-.3.2-.3l.3-.4.4-.5.5-.7.6-.8.7-1,.8-1.1.9-1.3,1-1.5,1.1-1.7,1.1-1.8,1.2-2,1.3-2.2,1.3-2.4,1.4-2.6,1.4-2.8,1.4-3,1.5-3.2,1.5-3.4,1.1-2.6"/>
        <path class="cls-20" d="M579.6,264.1c-1.3,1.4-1.3,3.6.1,4.9"/>
      </g>
      <path class="cls-55" d="M599.7,228.7c-4.5-4.2-9.1-8.3-13.7-12.4"/>
      <path class="cls-55" d="M592.7,281.7c-4.3-4.3-8.6-8.6-12.9-12.7"/>
      <path class="cls-55" d="M548.1,240.8c1.5,1.2,3.6,1,4.9-.4"/>
    </g>
    <g>
      <path class="cls-15" d="M597.6,281.8h0c0,0,.2-.3.2-.3l.4-.3.5-.4.7-.5.8-.7,1-.8,1.1-.8,1.3-.9,1.5-1,1.6-1.1,1.8-1.2,2-1.2,2.2-1.3,2.4-1.4,2.6-1.4,2.8-1.5,3-1.5,3.1-1.5,3.3-1.5,2.5-1.1"/>
      <g>
        <path class="cls-50" d="M621.8,308h0c0,0,.2-.3.2-.3l.3-.3.5-.5.6-.6.7-.8.8-.9.9-1.1,1-1.2,1.1-1.4,1.2-1.6,1.3-1.7,1.4-1.9,1.5-2.1,1.6-2.3,1.6-2.4,1.7-2.6,1.7-2.8,1.8-3,1.8-3.2,1.3-2.4"/>
        <path class="cls-50" d="M621.8,308c-1.4,1.3-1.6,3.4-.3,4.9"/>
      </g>
      <path class="cls-15" d="M645.2,274.8c-4.1-4.6-8.3-9.2-12.5-13.6"/>
      <path class="cls-15" d="M633.1,326.9c-3.8-4.7-7.7-9.4-11.6-13.9"/>
      <path class="cls-15" d="M592.7,281.7c1.3,1.4,3.5,1.4,4.9,0"/>
    </g>
    <g>
      <path class="cls-12" d="M637.9,327.4h0c0,0,.2-.2.2-.2l.4-.3.5-.4.7-.5.9-.6,1-.7,1.2-.7,1.4-.8,1.6-.9,1.7-.9,1.9-1,2.1-1,2.3-1.1,2.5-1.1,2.7-1.2,2.9-1.2,3.1-1.2,3.3-1.2,3.5-1.2,2.6-.9"/>
      <g>
        <path class="cls-56" d="M659.4,355.9h0c0,0,.2-.2.2-.2l.4-.3.5-.4.7-.5.8-.7.9-.8,1-1,1.2-1.1,1.3-1.3,1.4-1.4,1.5-1.6,1.6-1.8,1.7-1.9,1.8-2.1,1.8-2.3,1.9-2.5,2-2.6,2.1-2.8,2.1-3,1.6-2.3"/>
        <path class="cls-56" d="M659.4,355.9c-1.6,1.1-1.9,3.3-.8,4.8"/>
      </g>
      <path class="cls-12" d="M686,325.1c-3.6-5-7.3-9.9-11.1-14.8"/>
      <path class="cls-12" d="M668.8,375.7c-3.3-5.1-6.7-10.1-10.2-15"/>
      <path class="cls-12" d="M633.1,326.9c1.2,1.5,3.4,1.7,4.9.5"/>
    </g>
    <g>
      <path class="cls-49" d="M100.3,96.9h0c0,0,0-.4,0-.4v-.5s0-.7,0-.7v-.8s0-1,0-1v-1.2s0-1.4,0-1.4v-1.6c.1,0,.2-1.8.2-1.8l.2-2,.2-2.2.3-2.3.4-2.5.5-2.7.5-2.9.6-3.1.7-3.2.8-3.4.9-3.6.7-2.7"/>
      <g>
        <path class="cls-43" d="M135.9,94.9h0c0,0,0-.4,0-.4v-.5s0-.7,0-.7v-.8c0,0-.2-1-.2-1l-.2-1.2-.2-1.4-.3-1.6-.3-1.8-.4-1.9-.5-2.1-.6-2.3-.7-2.5-.8-2.6-.9-2.8-1-3-1.1-3.1-1.2-3.3-1.3-3.4-1-2.6"/>
        <path class="cls-43" d="M135.9,94.9c0,1.9,1.6,3.4,3.5,3.4"/>
      </g>
      <path class="cls-49" d="M125.1,55.7c-6.2.2-12.3.6-18.5,1"/>
      <path class="cls-49" d="M157.6,98.1c-6.1,0-12.1,0-18.2.1"/>
      <path class="cls-49" d="M97.1,100.7c1.9-.2,3.3-1.8,3.1-3.7"/>
    </g>
    <g>
      <path class="cls-35" d="M39.9,105.1h0c0,0,0-.4,0-.4v-.5c0,0-.1-.7-.1-.7v-.8c0,0-.2-1-.2-1v-1.2c0,0-.2-1.4-.2-1.4v-1.6c0,0,0-1.8,0-1.8v-2s0-2.2,0-2.2v-2.4c0,0,.2-2.5.2-2.5l.2-2.7.3-2.9.3-3.1.4-3.3.5-3.5.6-3.6.5-2.7"/>
      <g>
        <path class="cls-2" d="M75.2,99.6h0c0,0,0-.4,0-.4v-.5c0,0-.2-.7-.2-.7l-.2-.8-.2-1-.3-1.2-.4-1.4-.4-1.5-.5-1.7-.6-1.9-.7-2.1-.8-2.2-.9-2.4-1-2.5-1.1-2.7-1.3-2.9-1.4-3-1.5-3.1-1.7-3.3-1.3-2.5"/>
        <path class="cls-2" d="M75.2,99.6c.2,1.9,2,3.2,3.9,3"/>
      </g>
      <path class="cls-35" d="M60.6,61.6c-6.1.8-12.2,1.8-18.3,2.8"/>
      <path class="cls-35" d="M97.1,100.7c-6,.6-12,1.2-18.1,1.9"/>
      <path class="cls-35" d="M37.2,109.1c1.9-.4,3.1-2.2,2.8-4"/>
    </g>
    <g>
      <path class="cls-61" d="M-19.3,119.2h0c0,0,0-.4,0-.4v-.5c-.1,0-.3-.6-.3-.6l-.2-.8-.2-1-.2-1.2-.2-1.4-.2-1.6-.2-1.8-.2-2-.2-2.2-.2-2.4v-2.5c-.1,0-.2-2.7-.2-2.7v-2.9s0-3.1,0-3.1v-3.3c0,0,.2-3.5.2-3.5l.2-3.7.2-2.8"/>
      <g>
        <path class="cls-59" d="M15.3,110.2h0c0,0,0-.4,0-.4v-.5c-.1,0-.3-.6-.3-.6l-.3-.8-.3-1-.4-1.2-.5-1.3-.6-1.5-.7-1.7-.8-1.8-.9-2-1-2.1-1.1-2.3-1.3-2.4-1.4-2.6-1.5-2.7-1.7-2.9-1.8-3-2-3.1-1.5-2.3"/>
        <path class="cls-59" d="M15.3,110.2c.4,1.9,2.3,3,4.1,2.6"/>
      </g>
      <path class="cls-61" d="M-3,73.9c-6,1.4-12,3-17.9,4.6"/>
      <path class="cls-61" d="M37.2,109.1c-5.9,1.1-11.9,2.4-17.8,3.7"/>
      <path class="cls-61" d="M-21.6,123.5c1.8-.5,2.9-2.5,2.3-4.3"/>
    </g>
    <g>
      <path class="cls-38" d="M-76.9,139h0c0,0,0-.4,0-.4l-.2-.4-.2-.6-.3-.8-.3-1-.3-1.2-.3-1.4-.4-1.6-.4-1.8-.4-1.9-.4-2.1-.4-2.3-.4-2.5-.3-2.7-.3-2.9-.3-3.1-.2-3.3-.2-3.5v-3.7c-.1,0-.2-2.8-.2-2.8"/>
      <g>
        <path class="cls-40" d="M-43.3,126.7h0c0,0,0-.4,0-.4l-.2-.4-.2-.6-.3-.8-.4-.9-.5-1.1-.6-1.3-.7-1.4-.8-1.6-1-1.7-1.1-1.9-1.2-2-1.4-2.2-1.5-2.3-1.6-2.4-1.8-2.6-1.9-2.7-2.1-2.8-2.3-2.9-1.7-2.2"/>
        <path class="cls-40" d="M-43.3,126.7c.6,1.8,2.6,2.8,4.4,2.2"/>
      </g>
      <path class="cls-38" d="M-65.1,92.3c-5.8,2-11.6,4.1-17.4,6.3"/>
      <path class="cls-38" d="M-21.6,123.5c-5.8,1.7-11.6,3.5-17.3,5.4"/>
      <path class="cls-38" d="M-78.8,143.5c1.8-.7,2.6-2.7,1.9-4.5"/>
    </g>
    <g>
      <path class="cls-47" d="M-132.2,164.3h0c0,0-.1-.3-.1-.3l-.2-.4-.3-.6-.3-.8-.4-1-.4-1.1-.5-1.3-.5-1.5-.6-1.7-.6-1.9-.6-2.1-.6-2.3-.6-2.5-.6-2.7-.6-2.9-.6-3.1-.6-3.3-.5-3.5-.5-3.7-.3-2.8"/>
      <g>
        <path class="cls-60" d="M-100.1,148.8h0c0,0-.1-.3-.1-.3l-.2-.4-.3-.6-.4-.7-.5-.9-.6-1.1-.7-1.2-.9-1.4-1-1.5-1.1-1.6-1.3-1.8-1.4-1.9-1.6-2-1.7-2.1-1.9-2.3-2-2.4-2.2-2.5-2.4-2.6-2.5-2.7-1.9-2"/>
        <path class="cls-60" d="M-100.1,148.8c.8,1.7,2.8,2.5,4.6,1.7"/>
      </g>
      <path class="cls-47" d="M-125.1,116.8c-5.6,2.6-11.2,5.2-16.7,8"/>
      <path class="cls-47" d="M-78.8,143.5c-5.6,2.3-11.2,4.6-16.7,7.1"/>
      <path class="cls-47" d="M-133.7,169c1.7-.9,2.3-3,1.5-4.7"/>
    </g>
  </g>
  <g>
    <path class="cls-22" d="M345.9,24.9h0c0,0,0,.4,0,.4v.5c.1,0,.3.6.3.6l.2.8.2,1,.2,1.2.3,1.4.3,1.6.3,1.8.3,2,.2,2.2.2,2.4.2,2.5.2,2.7v2.9c.1,0,.2,3.1.2,3.1v3.3s0,3.5,0,3.5v3.7c0,0-.2,2.8-.2,2.8"/>
    <g>
      <path class="cls-48" d="M311.6,35h0c0,0,0,.4,0,.4v.5c.1,0,.3.6.3.6l.3.8.4,1,.4,1.1.5,1.3.6,1.5.7,1.6.8,1.8,1,1.9,1.1,2.1,1.2,2.2,1.3,2.4,1.5,2.5,1.6,2.7,1.8,2.8,1.9,2.9,2.1,3,1.6,2.3"/>
      <path class="cls-48" d="M311.6,35c-.5-1.8-2.4-2.9-4.2-2.5"/>
    </g>
    <path class="cls-22" d="M331.1,70.7c5.9-1.6,11.9-3.4,17.7-5.2"/>
    <path class="cls-22" d="M289.8,36.8c5.9-1.3,11.8-2.8,17.6-4.3"/>
    <path class="cls-22" d="M348.1,20.6c-1.8.6-2.8,2.5-2.2,4.4"/>
    <g>
      <path class="cls-26" d="M287.2,41h0c0,0,0,.4,0,.4v.5c0,0,.2.7.2.7v.8c.1,0,.2,1,.2,1v1.2c.1,0,.2,1.4.2,1.4v1.6c.1,0,.2,1.8.2,1.8v2c0,0,.1,2.2.1,2.2v2.4s0,2.6,0,2.6v2.7c0,0-.3,2.9-.3,2.9l-.2,3.1-.3,3.3-.4,3.5-.5,3.7-.4,2.7"/>
      <g>
        <path class="cls-52" d="M252.1,47.6h0c0,0,0,.4,0,.4v.5c0,0,.2.6.2.6l.2.8.3,1,.3,1.2.4,1.4.5,1.5.6,1.7.7,1.9.8,2,.9,2.2,1,2.4,1.1,2.5,1.2,2.7,1.3,2.8,1.5,3,1.6,3.1,1.8,3.2,1.4,2.4"/>
        <path class="cls-52" d="M252.1,47.6c-.3-1.9-2.1-3.2-4-2.9"/>
      </g>
      <path class="cls-26" d="M268,85.1c6.1-1,12.1-2.2,18.2-3.4"/>
      <path class="cls-26" d="M230.1,47.3c6-.8,12-1.6,18-2.5"/>
      <path class="cls-26" d="M289.8,36.8c-1.9.4-3,2.3-2.6,4.1"/>
    </g>
    <g>
      <path class="cls-29" d="M227.1,51.1h0c0,0,0,.4,0,.4v.5s0,.7,0,.7v.8s0,1,0,1v1.2s0,1.4,0,1.4v1.6s-.1,1.8-.1,1.8v2c-.1,0-.3,2.2-.3,2.2l-.2,2.4-.3,2.5-.4,2.7-.4,2.9-.5,3.1-.6,3.2-.7,3.4-.8,3.6-.7,2.7"/>
      <g>
        <path class="cls-39" d="M191.6,54.4h0c0,0,0,.4,0,.4v.5s.1.7.1.7v.8c.1,0,.3,1,.3,1l.2,1.2.3,1.4.3,1.6.4,1.7.5,1.9.6,2.1.7,2.3.7,2.4.8,2.6,1,2.8,1.1,2.9,1.2,3.1,1.3,3.2,1.4,3.4,1.1,2.5"/>
        <path class="cls-39" d="M191.6,54.4c-.1-1.9-1.8-3.4-3.7-3.2"/>
      </g>
      <path class="cls-29" d="M203.7,93.2c6.1-.4,12.3-1,18.4-1.6"/>
      <path class="cls-29" d="M169.8,51.9c6-.2,12.1-.4,18.1-.7"/>
      <path class="cls-29" d="M230.1,47.3c-1.9.2-3.2,2-3,3.8"/>
    </g>
    <g>
      <path class="cls-7" d="M166.4,55.4h0c0,0,0,.4,0,.4v.5s0,.7,0,.7v.8s-.1,1-.1,1v1.2c-.1,0-.3,1.4-.3,1.4l-.2,1.6-.3,1.8-.3,2-.4,2.1-.5,2.3-.5,2.5-.6,2.7-.7,2.8-.8,3-.9,3.2-1,3.3-1.2,3.5-.9,2.6"/>
      <g>
        <path class="cls-4" d="M130.7,55.1h0c0,0,0,.4,0,.4v.5s0,.7,0,.7v.8s0,1,0,1v1.2c0,0,.2,1.4.2,1.4l.2,1.6.2,1.8.3,2,.4,2.1.4,2.3.5,2.5.6,2.7.7,2.8.8,3,.9,3.2,1,3.4,1.1,3.5.9,2.6"/>
        <path class="cls-4" d="M130.7,55.1c0-1.9-1.4-3.5-3.3-3.6"/>
      </g>
      <path class="cls-7" d="M139,94.9c6.2.2,12.3.2,18.5.2"/>
      <path class="cls-7" d="M109.2,50.5c6,.4,12.1.8,18.1,1"/>
      <path class="cls-7" d="M169.8,51.9c-1.9,0-3.4,1.6-3.4,3.5"/>
    </g>
    <g>
      <path class="cls-41" d="M105.5,53.7h0c0,0,0,.4,0,.4v.5c0,0-.1.7-.1.7v.8c-.1,0-.3,1-.3,1l-.2,1.2-.3,1.4-.4,1.6-.4,1.7-.5,1.9-.6,2.1-.7,2.3-.8,2.4-.9,2.6-1,2.8-1.1,2.9-1.2,3.1-1.4,3.2-1.5,3.4-1.2,2.5"/>
      <g>
        <path class="cls-31" d="M70,49.9h0c0,0,0,.4,0,.4v.5s0,.7,0,.7v.8s0,1,0,1v1.2s0,1.4,0,1.4v1.6s0,1.8,0,1.8v2c0,0,.2,2.2.2,2.2l.2,2.4.3,2.5.3,2.7.4,2.9.5,3.1.6,3.3.7,3.4.8,3.6.6,2.7"/>
        <path class="cls-31" d="M70,49.9c.3-1.9-1.1-3.6-3-3.9"/>
      </g>
      <path class="cls-41" d="M74.4,90.3c6.1.8,12.2,1.4,18.4,2"/>
      <path class="cls-41" d="M49.1,43.2c6,1,11.9,2,17.9,2.8"/>
      <path class="cls-41" d="M109.2,50.5c-1.9-.1-3.6,1.3-3.7,3.2"/>
    </g>
    <g>
      <path class="cls-19" d="M45.1,46h0c0,0,0,.4,0,.4v.5c-.1,0-.3.6-.3.6l-.2.8-.3,1-.4,1.2-.4,1.4-.5,1.5-.6,1.7-.7,1.9-.8,2-.9,2.2-1,2.3-1.1,2.5-1.3,2.6-1.4,2.8-1.5,2.9-1.7,3.1-1.8,3.2-1.4,2.4"/>
      <g>
        <path class="cls-34" d="M10.2,38.7h0c0,0,0,.4,0,.4v.5c0,0-.2.7-.2.7v.8c-.1,0-.3,1-.3,1v1.2c-.1,0-.3,1.4-.3,1.4v1.6c-.1,0-.3,1.8-.3,1.8v2c0,0-.2,2.2-.2,2.2v2.4s0,2.6,0,2.6v2.7c0,0,.2,2.9.2,2.9l.2,3.1.2,3.3.3,3.5.4,3.7.3,2.7"/>
        <path class="cls-34" d="M10.2,38.7c.4-1.9-.7-3.7-2.6-4.2"/>
      </g>
      <path class="cls-19" d="M10.5,79.4c6,1.4,12,2.6,18.1,3.8"/>
      <path class="cls-19" d="M-10,30c5.8,1.6,11.7,3.1,17.6,4.6"/>
      <path class="cls-19" d="M49.1,43.2c-1.9-.3-3.7.9-4,2.8"/>
    </g>
    <g>
      <path class="cls-25" d="M-14.2,32.4h0c0,0,0,.4,0,.4v.4c-.1,0-.4.6-.4.6l-.3.8-.4,1-.5,1.1-.6,1.3-.7,1.5-.8,1.6-.9,1.8-1,1.9-1.1,2.1-1.2,2.2-1.4,2.4-1.5,2.5-1.7,2.6-1.8,2.8-2,2.9-2.1,3-1.6,2.2"/>
      <g>
        <path class="cls-10" d="M-48.3,21.8h0c0,0,0,.4,0,.4v.5c-.1,0-.3.6-.3.6l-.2.8-.2,1-.3,1.2-.3,1.4-.3,1.6-.3,1.8-.3,2-.3,2.2-.3,2.3-.2,2.5-.2,2.7-.2,2.9v3.1c-.1,0-.2,3.3-.2,3.3v3.5s0,3.7,0,3.7v2.8"/>
        <path class="cls-10" d="M-48.3,21.8c.6-1.8-.3-3.8-2.1-4.4"/>
      </g>
      <path class="cls-25" d="M-51.9,62.3c5.8,1.9,11.7,3.8,17.6,5.6"/>
      <path class="cls-25" d="M-67.5,11.1c5.7,2.2,11.3,4.3,17,6.3"/>
      <path class="cls-25" d="M-10,30c-1.8-.5-3.7.6-4.3,2.4"/>
    </g>
    <g>
      <path class="cls-30" d="M-72,13.1h0c0,0-.1.3-.1.3l-.2.4-.3.6-.4.8-.5.9-.6,1.1-.7,1.2-.8,1.4-.9,1.5-1,1.7-1.2,1.8-1.3,2-1.5,2.1-1.6,2.2-1.8,2.3-1.9,2.5-2.1,2.6-2.2,2.7-2.4,2.8-1.8,2.1"/>
      <g>
        <path class="cls-23" d="M-104.9-.8h0c0,0-.1.3-.1.3l-.2.4-.2.6-.3.8-.3,1-.4,1.2-.4,1.4-.4,1.5-.5,1.7-.5,1.9-.5,2.1-.5,2.3-.5,2.5-.5,2.7-.5,2.9-.4,3.1-.4,3.3-.4,3.5-.3,3.7-.2,2.8"/>
        <path class="cls-23" d="M-104.9-.8c.8-1.7,0-3.8-1.7-4.6"/>
      </g>
      <path class="cls-30" d="M-112.4,39.1c5.6,2.5,11.3,4.9,17,7.3"/>
      <path class="cls-30" d="M-122.9-13.3c5.4,2.7,10.9,5.3,16.3,7.9"/>
      <path class="cls-30" d="M-67.5,11.1c-1.8-.7-3.8.2-4.5,2"/>
    </g>
    <g>
      <path class="cls-24" d="M-127.6-11.8h0c0,0-.1.3-.1.3l-.2.4-.3.6-.4.7-.6.9-.7,1-.8,1.2-.9,1.3-1.1,1.4-1.2,1.6-1.4,1.7-1.5,1.8-1.7,1.9-1.8,2.1-2,2.2-2.1,2.3-2.3,2.4-2.5,2.5-2.7,2.5-2,1.9"/>
      <g>
        <path class="cls-5" d="M-158.9-28.9h0c0,0-.1.3-.1.3l-.2.4-.3.6-.4.8-.4.9-.5,1.1-.5,1.3-.6,1.5-.6,1.7-.7,1.9-.7,2.1-.7,2.3-.7,2.4-.7,2.6-.7,2.8-.7,3-.7,3.2-.7,3.4-.7,3.6-.5,2.7"/>
        <path class="cls-5" d="M-158.9-28.9c1-1.6.4-3.8-1.2-4.7"/>
      </g>
      <path class="cls-24" d="M-170.4,10.2c5.4,3,10.8,6,16.2,8.9"/>
      <path class="cls-24" d="M-175.6-43c5.1,3.2,10.3,6.4,15.5,9.5"/>
      <path class="cls-24" d="M-122.9-13.3c-1.7-.9-3.8-.2-4.6,1.5"/>
    </g>
    <g>
      <path class="cls-28" d="M-180.4-42h0c0,0-.2.3-.2.3l-.3.4-.4.5-.5.7-.6.8-.8,1-.9,1.1-1.1,1.2-1.2,1.3-1.4,1.4-1.5,1.6-1.7,1.7-1.8,1.8-2,1.9-2.2,2-2.4,2-2.5,2.1-2.7,2.2-2.9,2.3-2.2,1.7"/>
      <g>
        <path class="cls-32" d="M-209.9-62.1h0c0,0-.2.3-.2.3l-.3.4-.4.6-.4.7-.5.9-.6,1.1-.7,1.2-.7,1.4-.8,1.6-.8,1.8-.9,2-.9,2.2-1,2.4-1,2.6-1,2.7-1,2.9-1,3.1-1,3.3-1,3.5-.7,2.7"/>
        <path class="cls-32" d="M-209.9-62.1c1.1-1.5.8-3.7-.8-4.8"/>
      </g>
      <path class="cls-28" d="M-225.2-24.4c5,3.6,10.1,7,15.2,10.4"/>
      <path class="cls-28" d="M-225.2-77.8c4.8,3.7,9.6,7.4,14.5,10.9"/>
      <path class="cls-28" d="M-175.6-43.1c-1.6-1-3.7-.5-4.8,1.1"/>
    </g>
    <g>
      <path class="cls-37" d="M402.8,3.2h0c0,0,.1.3.1.3l.2.4.2.6.3.8.3,1,.4,1.2.4,1.4.4,1.6.4,1.7.5,1.9.5,2.1.5,2.3.5,2.5.4,2.7.4,2.9.4,3.1.4,3.3.3,3.5.3,3.7.2,2.8"/>
      <g>
        <path class="cls-33" d="M369.7,16.6h0c0,0,.1.4.1.4l.2.4.3.6.4.8.5.9.6,1.1.7,1.3.8,1.4.9,1.6,1,1.7,1.1,1.8,1.3,2,1.4,2.1,1.6,2.2,1.7,2.4,1.9,2.5,2,2.6,2.2,2.7,2.4,2.8,1.8,2.1"/>
        <path class="cls-33" d="M369.7,16.6c-.7-1.8-2.6-2.7-4.4-2"/>
      </g>
      <path class="cls-37" d="M392.6,50.2c5.8-2.2,11.5-4.5,17.2-6.9"/>
      <path class="cls-37" d="M348.1,20.6c5.7-1.9,11.5-3.9,17.1-6"/>
      <path class="cls-37" d="M404.6-1.3c-1.7.8-2.5,2.8-1.8,4.6"/>
    </g>
    <g>
      <path class="cls-16" d="M457.3-23.9h0c0,0,.1.3.1.3l.2.4.3.6.4.8.4,1,.5,1.1.5,1.3.6,1.5.6,1.7.6,1.9.7,2.1.7,2.3.7,2.5.7,2.6.7,2.8.7,3,.7,3.2.7,3.4.6,3.6.4,2.7"/>
      <g>
        <path class="cls-9" d="M425.7-7.4h0c0,0,.1.3.1.3l.2.4.3.6.4.7.5.9.7,1,.8,1.2.9,1.3,1,1.5,1.2,1.6,1.3,1.7,1.5,1.8,1.6,2,1.8,2.1,1.9,2.2,2.1,2.3,2.3,2.4,2.5,2.5,2.6,2.6,2,1.9"/>
        <path class="cls-9" d="M425.7-7.4c-.8-1.7-2.9-2.4-4.6-1.6"/>
      </g>
      <path class="cls-16" d="M451.7,23.8c5.5-2.8,11-5.6,16.4-8.5"/>
      <path class="cls-16" d="M404.6-1.3c5.5-2.5,11-5,16.5-7.6"/>
      <path class="cls-16" d="M458.6-28.6c-1.7.9-2.2,3-1.3,4.7"/>
    </g>
    <g>
      <path class="cls-21" d="M508.8-56.3h0c0,0,.2.3.2.3l.3.4.3.6.4.7.5.9.6,1.1.7,1.3.7,1.4.8,1.6.8,1.8.9,2,.9,2.2.9,2.4,1,2.6,1,2.8,1,3,1,3.2,1,3.4,1,3.6.7,2.7"/>
      <g>
        <path class="cls-36" d="M479-36.7h0c0,0,.2.3.2.3l.3.4.4.5.5.7.6.8.8,1,.9,1.1,1,1.2,1.2,1.4,1.3,1.5,1.5,1.6,1.6,1.7,1.8,1.8,2,1.9,2.1,2,2.3,2.1,2.5,2.2,2.7,2.2,2.9,2.3,2.2,1.7"/>
        <path class="cls-36" d="M479-36.7c-1-1.6-3.1-2.1-4.8-1.1"/>
      </g>
      <path class="cls-21" d="M508-8.2c5.2-3.3,10.4-6.7,15.5-10.1"/>
      <path class="cls-21" d="M458.6-28.6c5.3-3,10.5-6.1,15.6-9.2"/>
      <path class="cls-21" d="M509.7-61.1c-1.6,1.1-1.9,3.2-.8,4.8"/>
    </g>
    <g>
      <path class="cls-27" d="M557-93.6h0c0,0,.2.3.2.3l.3.4.4.5.5.7.6.9.7,1,.8,1.2.9,1.4.9,1.5,1,1.7,1.1,1.9,1.1,2.1,1.2,2.3,1.2,2.5,1.2,2.7,1.3,2.8,1.3,3,1.3,3.2,1.3,3.4,1,2.6"/>
      <g>
        <path class="cls-3" d="M529.2-71.2h0c0,0,.2.3.2.3l.3.4.4.5.6.6.7.8.8.9,1,1,1.2,1.1,1.3,1.2,1.5,1.3,1.6,1.4,1.8,1.5,2,1.6,2.2,1.7,2.3,1.8,2.5,1.8,2.7,1.9,2.9,2,3.1,2,2.3,1.5"/>
        <path class="cls-3" d="M529.2-71.2c-1.2-1.5-3.3-1.8-4.8-.7"/>
      </g>
      <path class="cls-27" d="M560.9-45.6c4.9-3.8,9.7-7.6,14.4-11.6"/>
      <path class="cls-27" d="M509.7-61.1c4.9-3.5,9.8-7.1,14.7-10.7"/>
      <path class="cls-27" d="M557.4-98.5c-1.4,1.2-1.6,3.4-.4,4.9"/>
    </g>
    <g>
      <path class="cls-57" d="M601.2-135.4h0c0,0,.2.3.2.3l.3.3.4.5.6.6.7.8.8.9.9,1.1,1,1.3,1.1,1.4,1.2,1.6,1.2,1.8,1.3,2,1.4,2.1,1.4,2.3,1.5,2.5,1.5,2.7,1.6,2.9,1.6,3.1,1.7,3.3,1.2,2.5"/>
      <g>
        <path class="cls-42" d="M575.8-110.4h0c0,0,.2.3.2.3l.3.3.5.5.6.6.8.7.9.8,1.1.9,1.3,1,1.4,1.1,1.6,1.2,1.8,1.3,1.9,1.3,2.1,1.4,2.3,1.5,2.5,1.5,2.7,1.6,2.9,1.6,3.1,1.7,3.3,1.7,2.5,1.2"/>
        <path class="cls-42" d="M575.8-110.4c-1.3-1.4-3.5-1.5-4.9-.2"/>
      </g>
      <path class="cls-57" d="M609.8-88.1c4.5-4.2,8.9-8.5,13.2-12.9"/>
      <path class="cls-57" d="M557.4-98.5c4.6-4,9.1-8,13.5-12.1"/>
      <path class="cls-57" d="M601.1-140.3c-1.3,1.4-1.3,3.6.1,4.9"/>
    </g>
  </g>
  <g>
    <circle class="cls-1" cx="153.5" cy="715.1" r="640"/>
    <circle class="cls-1" cx="153.5" cy="715.1" r="6"/>
  </g>
  <g>
    <circle class="cls-1" cx="153.5" cy="-564.9" r="640"/>
    <circle class="cls-1" cx="153.5" cy="-564.9" r="6"/>
  </g>
</svg>