<?xml version="1.0" encoding="UTF-8"?>
<svg id="Layer_1" data-name="Layer 1" xmlns="http://www.w3.org/2000/svg" version="1.1" viewBox="0 0 566.9 566.9">
  <defs>
    <style>
      .cls-1 {
        fill: #000;
        stroke-width: 0px;
      }
    </style>
  </defs>
  <path class="cls-1" d="M98.2,211.1l-2.6,7.1-22.8-8.1-.5,7.8-5.4-1.9.2-15.2.2-.7,30.8,11Z"/>
  <path class="cls-1" d="M99.8,176.5c3.9,2,6.5,4.4,7.7,7.3,1.2,2.9,1,5.9-.6,9.1-1.7,3.2-4,5.2-7.1,5.9-3.1.7-6.5,0-10.4-2l-5.3-2.7c-3.9-2-6.5-4.4-7.7-7.3s-1-5.9.6-9.1c1.6-3.2,4-5.2,7.1-5.9,3.1-.7,6.5,0,10.5,2l5.3,2.7ZM90.1,180.1c-2.1-1.1-3.8-1.6-5.1-1.6-1.3,0-2.3.6-2.9,1.8-.6,1.2-.5,2.2.1,3.3s2,2,3.9,3.1l7.4,3.8c2.2,1.1,3.9,1.7,5.2,1.6,1.3,0,2.2-.6,2.8-1.8.6-1.1.5-2.2-.2-3.3-.7-1-2.1-2.1-4.2-3.2l-7.2-3.7Z"/>
  <path class="cls-1" d="M115,153.8c3.6,2.5,5.9,5.2,6.7,8.2.9,3,.3,6-1.8,8.9-2.1,3-4.6,4.6-7.8,4.9-3.1.3-6.5-.8-10.1-3.3l-4.9-3.4c-3.6-2.5-5.9-5.2-6.7-8.2-.9-3-.3-6,1.8-9,2.1-3,4.6-4.6,7.7-4.9,3.1-.3,6.5.8,10.1,3.3l4.9,3.4ZM105,156.1c-1.9-1.3-3.6-2.1-4.9-2.2-1.3-.2-2.3.3-3.1,1.4-.7,1.1-.8,2.2-.3,3.3.6,1.1,1.7,2.3,3.5,3.6l6.9,4.7c2,1.4,3.7,2.1,4.9,2.3,1.3.1,2.3-.3,3.1-1.4.7-1.1.8-2.2.3-3.3-.6-1.1-1.8-2.4-3.7-3.7l-6.7-4.6Z"/>
  <path class="cls-1" d="M135.8,133.5l-3,3,8.1,8.2-5.6,5.5-22.9-23.3,9.2-9c2.8-2.7,5.5-4.2,8.3-4.5,2.8-.3,5.2.7,7.5,2.9,1.6,1.6,2.6,3.3,3,5s.2,3.6-.5,5.6l14.1,4.6.2.2-6,5.9-12.2-4.2ZM128.5,132.1l3.6-3.5c1.1-1,1.6-2.1,1.6-3.2,0-1.1-.5-2.1-1.5-3.1-1-1-2-1.5-3.1-1.6-1.1,0-2.2.5-3.2,1.5l-3.6,3.5,6.3,6.4Z"/>
  <path class="cls-1" d="M147.7,121.1c-1.5-1.9-2.4-4-2.8-6-.4-2.1-.2-4.1.6-5.9.8-1.9,2.2-3.5,4.1-5,2.9-2.2,5.9-3,8.9-2.5,3,.5,5.7,2.4,8,5.5l.2.2c2.3,3,3.2,6.1,2.9,9.1-.4,3-2,5.6-4.8,7.8-2.8,2.1-5.6,2.9-8.5,2.5-2.9-.4-5.5-2-7.8-4.7l-.8-1ZM154,116.9c1.3,1.8,2.6,2.9,3.8,3.3,1.2.4,2.3.2,3.4-.6,2.2-1.6,2-4.1-.4-7.5l-.5-.6c-2.6-3.5-5-4.4-7.3-2.7-2,1.5-2,3.8,0,7l.8,1.1Z"/>
  <path class="cls-1" d="M168.1,85.2l3.1,5.2,3.4-2.1,2.7,4.5-3.4,2.1,5.7,9.5c.5.8.9,1.2,1.4,1.4.5.1,1.1,0,2-.5.6-.4,1.2-.7,1.5-1.1l2.8,4.6c-.9,1.1-2,2-3.3,2.8-2.2,1.3-4.2,1.8-5.9,1.4-1.7-.4-3.2-1.7-4.5-3.8l-6.2-10.3-2.7,1.6-2.7-4.5,2.7-1.6-3.1-5.2,6.5-3.9Z"/>
  <path class="cls-1" d="M201.4,102c-.5-.3-1-.9-1.6-1.7-.5,2.2-1.9,3.8-4.1,4.9-2.1,1-4.1,1.2-6.2.6-2-.6-3.5-1.8-4.4-3.7-1.1-2.4-1.1-4.6,0-6.6,1.2-2.1,3.4-3.9,6.8-5.5l2.1-1-.6-1.2c-1-2-2.3-2.6-4.1-1.8-1.6.8-2.1,2-1.3,3.6l-6.8,3.3c-1-2.1-.9-4.3.2-6.5,1.2-2.2,3.2-3.9,6-5.3,2.8-1.3,5.3-1.7,7.6-1.1s4,2.1,5.2,4.4l4.6,9.7c1,2,2,3.4,3.1,4.2l.2.3-6.8,3.3ZM195,99.6c.9-.4,1.5-.9,1.9-1.6.4-.6.6-1.2.6-1.8l-1.7-3.5-2,.9c-2.4,1.1-3.1,2.8-2,4.9.3.6.7,1,1.3,1.2.6.2,1.2.1,1.9-.2Z"/>
  <path class="cls-1" d="M208.5,66.6l2.1,5.7,3.8-1.4,1.8,4.9-3.8,1.4,3.8,10.5c.3.9.7,1.4,1.1,1.6.4.2,1.1.2,2-.2.7-.3,1.3-.5,1.7-.8l1.8,5.1c-1.1.9-2.4,1.6-3.8,2.1-2.5.9-4.5,1-6.1.2-1.6-.7-2.8-2.3-3.7-4.6l-4.1-11.3-2.9,1.1-1.8-4.9,2.9-1.1-2.1-5.7,7.1-2.6Z"/>
  <path class="cls-1" d="M216.5,63.7c-.3-1-.2-2,.4-2.9.6-.9,1.4-1.5,2.6-1.8,1.2-.3,2.3-.3,3.2.2s1.6,1.2,1.8,2.2c.3,1,.2,2-.4,2.9-.6.9-1.4,1.5-2.6,1.8-1.2.3-2.3.3-3.2-.2s-1.6-1.2-1.8-2.2ZM232.6,90.9l-7.3,2.1-6.7-23.4,7.3-2.1,6.7,23.4Z"/>
  <path class="cls-1" d="M233.2,77.7c-.4-2.4-.4-4.6.2-6.6.6-2,1.6-3.7,3.2-5,1.6-1.3,3.5-2.2,5.8-2.6,3.6-.7,6.6,0,9.1,1.8,2.5,1.8,4.1,4.7,4.8,8.5v.3c.7,3.7.3,6.9-1.4,9.4s-4.3,4.2-7.8,4.8c-3.4.6-6.3.1-8.8-1.5-2.4-1.7-4.1-4.2-4.9-7.7l-.3-1.3ZM240.7,76.8c.4,2.2,1.1,3.8,1.9,4.7.9.9,2,1.2,3.4,1,2.6-.5,3.6-2.8,2.9-6.9v-.8c-.9-4.3-2.7-6.2-5.4-5.7-2.5.5-3.5,2.6-3,6.3l.2,1.4Z"/>
  <path class="cls-1" d="M266.4,60.7l.4,2.8c1.5-2.3,3.8-3.5,6.7-3.7,2.5-.1,4.5.5,5.8,1.9,1.3,1.4,2.1,3.7,2.3,6.7l.9,15.6-7.6.4-.9-15.3c0-1.2-.4-2.1-.9-2.7-.5-.5-1.4-.8-2.7-.7-1.5,0-2.5.7-3.2,1.9l1,17.1-7.6.4-1.4-24.3,7.1-.4Z"/>
  <path class="cls-1" d="M299,78.1c0-.6-.3-1.2-.9-1.6s-1.9-.9-3.8-1.4-3.4-1.2-4.6-1.9c-1.2-.8-2.1-1.6-2.7-2.6-.6-1-.8-2.1-.8-3.4.1-2.2,1.2-4,3.1-5.3,1.9-1.3,4.4-1.9,7.3-1.7,3.2.2,5.7,1.1,7.6,2.6,1.9,1.6,2.7,3.5,2.6,5.9l-7.6-.5c.1-1.9-.9-3-2.9-3.1-.8,0-1.5.1-2,.5-.6.4-.9.9-.9,1.6,0,.7.3,1.2.9,1.7.6.5,1.7.9,3.1,1.2,1.4.4,2.7.8,3.7,1.2,3.6,1.5,5.3,3.8,5.1,7.1-.1,2.2-1.2,4-3.3,5.2-2,1.3-4.6,1.8-7.8,1.6-2.1-.1-3.9-.6-5.5-1.5-1.6-.8-2.8-1.9-3.6-3.3-.8-1.3-1.2-2.7-1.1-4.1l7.1.4c0,1.1.3,2,1,2.5.7.6,1.6.9,2.7.9,1,0,1.8-.1,2.4-.5.5-.4.8-.9.9-1.6Z"/>
  <path class="cls-1" d="M330,78.4l-2.7,10.8-7.6-1.9,7.9-31.7,12.7,3.2c2.4.6,4.5,1.6,6.1,2.9,1.6,1.4,2.8,3,3.4,4.9.6,1.9.7,3.9.1,6-.8,3.1-2.5,5.3-5.2,6.6-2.7,1.3-5.9,1.5-9.8.5l-4.9-1.2ZM331.5,72.5l5,1.3c1.5.4,2.7.3,3.7-.3s1.6-1.5,1.9-2.8c.4-1.5.3-2.8-.3-3.9-.6-1.1-1.6-1.8-2.9-2.2l-5.1-1.3-2.3,9.2Z"/>
  <path class="cls-1" d="M358,99.3c-3.5-1.4-5.9-3.5-7.2-6.4s-1.3-6,0-9.3l.2-.6c.9-2.3,2.2-4.2,3.7-5.6,1.6-1.4,3.4-2.3,5.4-2.6,2-.3,4.2,0,6.4.9,3.2,1.3,5.3,3.2,6.3,5.9,1.1,2.7.9,5.8-.5,9.3l-1.1,2.7-14-5.6c-.3,1.4,0,2.6.5,3.6.6,1.1,1.5,1.9,2.9,2.4,2.2.9,4.3.8,6.1-.3l1.7,5.1c-1.4.9-3,1.3-4.9,1.4-1.9,0-3.8-.3-5.6-1ZM364.4,81c-2.1-.8-3.8,0-5.3,2.6l7.1,2.8.2-.5c.5-1.1.5-2.1.2-3-.4-.9-1.1-1.5-2.2-2Z"/>
  <path class="cls-1" d="M390.8,95.2l-2.1-1.3c-2.1-1.1-3.8-1.1-5.1-.1l-7.1,13.6-6.7-3.5,11.3-21.5,6.3,3.3-1.2,2.9c2.2-1.5,4.4-1.8,6.4-.7.7.4,1.3.8,1.7,1.2l-3.4,6.2Z"/>
  <path class="cls-1" d="M422.7,98l-8.6,22.3,19.9-13.2,8.1,6.5-20.5,25.5-6.2-5,4.8-6,10.4-11.7-20.7,13.2-4.1-3.3,8.4-23.1-9.2,12.7-4.8,6-6.1-4.9,20.5-25.5,8.1,6.5Z"/>
  <path class="cls-1" d="M429.4,148l-5.3-5.5,17.5-16.9,5.3,5.5-17.5,16.9ZM445.8,121c.8-.7,1.7-1.1,2.7-1s2,.6,2.8,1.5c.9.9,1.3,1.9,1.4,2.9,0,1-.3,1.9-1.1,2.7-.8.7-1.7,1.1-2.7,1s-2-.6-2.8-1.5c-.9-.9-1.3-1.9-1.4-2.9s.3-1.9,1.1-2.7Z"/>
  <path class="cls-1" d="M455.6,141.1l-2.1,2c2.8,0,5.1,1.1,6.9,3.4,1.6,2,2.2,3.9,1.8,5.8s-1.8,3.8-4.1,5.8l-12.2,9.8-4.7-5.9,12-9.6c1-.8,1.5-1.5,1.7-2.3.1-.7-.2-1.6-1-2.6-.9-1.2-2.1-1.7-3.4-1.5l-13.4,10.7-4.7-5.9,19-15.2,4.4,5.5Z"/>
  <path class="cls-1" d="M457.4,181.4c-2.6-.3-4.6-1.6-6-3.9-1.4-2.3-1.8-4.4-1.2-6.4s2.2-3.7,4.6-5.2l13.4-8.2,3.9,6.5-13.5,8.2c-1.8,1.1-2.1,2.5-1.1,4.2.9,1.5,2.1,2.2,3.5,2.2l14.6-8.9,4,6.5-20.7,12.7-3.7-6.1,2.1-1.6Z"/>
  <path class="cls-1" d="M491.5,187l-5.4,2.6,1.7,3.6-4.7,2.3-1.7-3.6-10,4.8c-.8.4-1.3.8-1.5,1.3-.2.5,0,1.1.4,2,.3.7.6,1.2.9,1.6l-4.9,2.3c-1-1-1.8-2.2-2.4-3.6-1.1-2.3-1.4-4.4-.8-6s2-3,4.2-4.1l10.9-5.2-1.3-2.8,4.7-2.3,1.3,2.8,5.4-2.6,3.3,6.8Z"/>
  <path class="cls-1" d="M470.5,216.9c-1.3-3.5-1.2-6.7,0-9.6,1.3-2.9,3.6-5,7-6.2l.6-.2c2.3-.8,4.6-1.2,6.7-.9,2.1.2,3.9,1,5.5,2.3,1.6,1.3,2.8,3.1,3.6,5.4,1.2,3.2,1.1,6.1-.2,8.7-1.3,2.6-3.8,4.5-7.3,5.8l-2.8,1-5.1-14.2c-1.2.7-2,1.6-2.4,2.8-.4,1.1-.4,2.4.1,3.7.8,2.3,2.2,3.7,4.3,4.4l-2.7,4.6c-1.5-.4-3-1.3-4.3-2.7-1.3-1.4-2.3-3-3-4.9ZM488.4,209.5c-.8-2.1-2.6-2.8-5.5-2.2l2.6,7.2.5-.2c1.2-.4,1.9-1,2.3-1.8s.4-1.8,0-2.9Z"/>
  <path class="cls-1" d="M476,367.8l1.7-3.9-10.6-4.7,3.2-7.2,29.9,13.2-5.2,11.8c-1.6,3.5-3.6,6-6,7.3-2.5,1.3-5.1,1.3-8,0-2.1-.9-3.6-2.1-4.6-3.6-1-1.4-1.5-3.3-1.6-5.4l-14.8.9h-.3c0-.1,3.4-7.9,3.4-7.9l12.9-.6ZM483.3,366.4l-2,4.6c-.6,1.4-.7,2.6-.3,3.6.4,1,1.3,1.8,2.6,2.4s2.5.7,3.5.3c1-.4,1.9-1.2,2.5-2.6l2-4.6-8.2-3.6Z"/>
  <path class="cls-1" d="M469.5,383.7c2.1,1.3,3.7,2.8,4.8,4.6s1.6,3.7,1.6,5.8c0,2-.7,4.1-2,6.1-1.9,3.1-4.4,4.9-7.4,5.5s-6.2-.1-9.5-2.2h-.2c-3.2-2.1-5.2-4.6-6-7.6-.8-3-.2-6,1.6-9,1.8-2.9,4.2-4.8,7-5.5,2.9-.7,5.9-.2,9,1.5l1.1.7ZM465.1,389.9c-1.9-1.2-3.5-1.7-4.8-1.7-1.3,0-2.3.7-3,1.8-1.4,2.3-.4,4.6,3.1,6.8l.7.4c3.7,2.3,6.3,2.2,7.8-.1,1.3-2.2.4-4.3-2.6-6.5l-1.2-.7Z"/>
  <path class="cls-1" d="M463.7,424.6l-4.8-3.7-2.4,3.2-4.2-3.2,2.4-3.2-8.8-6.8c-.7-.6-1.3-.8-1.8-.8s-1,.5-1.6,1.2c-.5.6-.8,1.1-1,1.6l-4.3-3.3c.5-1.3,1.2-2.6,2.1-3.8,1.6-2.1,3.2-3.2,5-3.5s3.6.4,5.6,1.9l9.6,7.3,1.9-2.5,4.2,3.2-1.9,2.5,4.8,3.7-4.6,6Z"/>
  <path class="cls-1" d="M426.5,421.1c.5.1,1.2.5,2.1,1-.3-2.2.4-4.2,2.1-6.1,1.6-1.7,3.4-2.6,5.5-2.9,2.1-.2,3.9.4,5.5,1.8,1.9,1.8,2.7,3.9,2.4,6.2s-1.8,4.9-4.3,7.6l-1.6,1.7.9.9c1.6,1.5,3.1,1.6,4.4.2,1.2-1.3,1.2-2.6-.1-3.8l5.2-5.5c1.7,1.6,2.4,3.6,2.1,6.1s-1.5,4.8-3.6,7.1c-2.1,2.3-4.3,3.5-6.7,3.8-2.3.3-4.5-.5-6.4-2.2l-7.9-7.3c-1.7-1.5-3.1-2.4-4.5-2.7l-.3-.3,5.2-5.5ZM433.3,421c-.6.7-1,1.4-1.2,2.1-.1.7,0,1.4,0,1.9l2.8,2.6,1.5-1.6c1.8-1.9,1.8-3.7,0-5.3-.5-.5-1.1-.7-1.7-.6-.6,0-1.2.3-1.7.9Z"/>
  <path class="cls-1" d="M432.9,456.7l-4-4.5-3,2.6-3.5-3.9,3-2.6-7.4-8.3c-.6-.7-1.2-1.1-1.6-1.1-.5,0-1.1.2-1.8.9-.6.5-1,.9-1.3,1.4l-3.6-4.1c.7-1.2,1.7-2.3,2.8-3.3,2-1.7,3.8-2.5,5.5-2.4,1.7,0,3.4,1.1,5.1,3l8,9,2.3-2.1,3.5,3.9-2.3,2.1,4,4.5-5.7,5Z"/>
  <path class="cls-1" d="M398.4,444.7c3-2.2,6.1-3,9.3-2.6,3.2.5,5.8,2.1,7.9,5l.4.5c1.5,2,2.4,4.1,2.7,6.1s.1,4.1-.7,5.9-2.2,3.5-4.2,4.9c-2.8,2-5.6,2.7-8.4,2.2-2.8-.6-5.4-2.4-7.6-5.4l-1.7-2.4,12.2-8.8c-1-.9-2.1-1.5-3.3-1.6-1.2,0-2.4.3-3.6,1.1-1.9,1.4-3,3.2-3.1,5.3l-5.2-1.3c0-1.6.5-3.2,1.4-4.9s2.2-3,3.8-4.2ZM410.4,459.9c1.8-1.3,2-3.3.6-5.9l-6.2,4.5.3.5c.7,1,1.5,1.6,2.4,1.7s1.9-.1,2.8-.8Z"/>
  <path class="cls-1" d="M380.7,464.3c.3.6.9.9,1.6.9.8,0,2.1-.3,3.9-.8s3.5-.8,4.9-.8c1.4,0,2.6.3,3.7.8s1.9,1.4,2.5,2.5c1.1,1.9,1.2,4,.3,6.2-.9,2.2-2.7,4-5.3,5.4-2.8,1.6-5.4,2.2-7.8,1.9s-4.2-1.5-5.3-3.6l6.6-3.7c.9,1.7,2.3,2.1,4.1,1.1.7-.4,1.2-.9,1.4-1.6.3-.6.2-1.3,0-1.8-.3-.6-.9-.9-1.7-1-.8,0-1.9.2-3.3.6-1.4.5-2.7.8-3.8,1-3.8.7-6.5-.4-8.1-3.2-1.1-1.9-1.1-4,0-6.2,1-2.2,2.9-4,5.7-5.5,1.8-1,3.6-1.6,5.4-1.7,1.8-.1,3.4.1,4.8.8,1.4.7,2.5,1.6,3.2,2.9l-6.2,3.4c-.6-1-1.3-1.5-2.2-1.6-.9-.1-1.8.1-2.8.7-.9.5-1.5,1.1-1.7,1.7-.2.6-.2,1.2.1,1.8Z"/>
  <path class="cls-1" d="M350.8,470.2l7.1-2.7,8.7,22.7-7.1,2.7-8.7-22.7ZM369.2,495.9c.4,1,.3,2-.1,2.9-.5.9-1.3,1.6-2.5,2s-2.2.5-3.2.1c-1-.4-1.7-1.1-2-2.1-.4-1-.3-2,.1-2.9.5-.9,1.3-1.6,2.5-2,1.2-.4,2.2-.5,3.2-.1,1,.4,1.7,1.1,2,2.1Z"/>
  <path class="cls-1" d="M346.9,497l-1-2.7c-1,2.6-3,4.2-5.8,5-2.4.7-4.5.5-6.1-.7-1.6-1.1-2.8-3.1-3.7-6.1l-4.2-15.1,7.3-2,4.1,14.8c.3,1.2.8,2,1.4,2.4.6.4,1.6.5,2.8.1,1.4-.4,2.3-1.3,2.7-2.6l-4.6-16.5,7.3-2,6.5,23.4-6.8,1.9Z"/>
  <path class="cls-1" d="M295.5,481.5l7.6-.7,2.1,24.1,7.2-2.8.5,5.7-13.9,6.2h-.7c0,0-2.8-32.5-2.8-32.5Z"/>
  <path class="cls-1" d="M281.6,489.1c-1.2,0-2.2-.4-3-1.1-.8-.7-1.2-1.6-1.1-2.7,0-1.1.4-2,1.2-2.7.8-.7,1.8-1,3-1,1.2,0,2.2.4,3,1.1s1.2,1.6,1.1,2.7c0,1.1-.4,2-1.2,2.7s-1.8,1-3,1Z"/>
  <path class="cls-1" d="M251.6,512.9l.6-5.9h.3c2.8.3,5.2,0,7.2-1.2,2-1.2,3.3-2.9,3.9-5.3-1.9,1.5-4.1,2.1-6.7,1.8-2.8-.3-4.9-1.6-6.4-3.8-1.4-2.2-2-5-1.6-8.4.2-2.1.9-3.9,2.1-5.5,1.2-1.6,2.7-2.8,4.5-3.6s3.8-1.1,6-.8c2.3.2,4.3,1,6,2.2,1.7,1.2,3,2.9,3.8,5,.8,2.1,1.1,4.4.8,6.9l-.3,3c-.4,3.3-1.4,6.3-3.1,8.8-1.7,2.5-4,4.4-6.8,5.6-2.8,1.2-5.9,1.7-9.1,1.3h-1.1ZM260.2,496.8c1,.1,1.9,0,2.6-.4.7-.4,1.3-.9,1.7-1.5l.2-2.3c.4-4.1-.8-6.3-3.6-6.6-1.1-.1-2.2.3-3,1.2-.9.9-1.4,2.2-1.6,3.7-.2,1.6,0,2.9.8,4,.7,1.1,1.7,1.7,3,1.8Z"/>
  <path class="cls-1" d="M219,501.5l18.6-25,7.8,1.9-18.2,23.2,15.2,3.7-1.4,5.7-22.9-5.5.9-3.9Z"/>
  <path class="cls-1" d="M193.1,469.9c-.5,1-.5,2,0,3,.5.9,1.5,2.1,3.1,3.6s2.8,2.8,3.8,3.9c3,3.7,3.7,7.1,2.2,10.4-.8,1.6-1.9,2.9-3.4,3.7-1.5.8-3.3,1.2-5.4,1.1-2.1,0-4.2-.6-6.4-1.6-2.1-1-3.9-2.2-5.2-3.8-1.3-1.5-2.2-3.2-2.5-5.1-.3-1.8,0-3.7.8-5.5l7.2,3.3c-.6,1.2-.6,2.3-.2,3.3s1.3,1.8,2.6,2.4c1.3.6,2.4.8,3.4.5,1-.2,1.7-.8,2.1-1.6.3-.8.3-1.6-.3-2.6-.5-1-1.7-2.3-3.4-3.9-1.8-1.6-3.1-3.1-4.1-4.4-2.4-3.3-2.8-6.6-1.3-9.9,1.2-2.6,3.1-4.2,5.7-4.8,2.6-.6,5.7-.1,9.1,1.5,2.4,1.1,4.4,2.5,6,4.3,1.6,1.8,2.5,3.6,2.8,5.6.3,2,0,3.9-.9,5.9l-7.2-3.3c.7-1.6.8-3,.4-4.1s-1.6-2.1-3.5-3c-1.2-.5-2.2-.7-3.2-.5s-1.6.8-2,1.7Z"/>
  <path class="cls-1" d="M177.5,450.7c3.2,2,5.1,4.5,5.9,7.6.8,3.1.2,6.2-1.7,9.2l-.3.5c-1.3,2.1-2.9,3.7-4.7,4.9-1.8,1.1-3.7,1.7-5.8,1.6-2,0-4.1-.7-6.2-2-2.9-1.8-4.6-4.1-5.2-7-.6-2.8.2-5.9,2.2-9.1l1.6-2.5,12.8,8c.5-1.3.6-2.5.2-3.7-.4-1.1-1.2-2.1-2.4-2.9-2-1.3-4.1-1.5-6.1-.8l-.8-5.3c1.5-.6,3.2-.8,5-.5,1.9.3,3.7.9,5.3,2ZM168,467.5c1.9,1.2,3.8.6,5.7-1.6l-6.5-4-.3.5c-.7,1-.9,2-.7,2.9s.8,1.7,1.8,2.3Z"/>
  <path class="cls-1" d="M155.5,442.1c-.8-.7-1.7-1-2.5-.9-.8,0-1.5.5-2.2,1.3l-5.5-4.4c1.7-2.1,3.8-3.2,6.3-3.3,2.6-.1,5,.7,7.4,2.6,2.8,2.2,4.2,4.8,4.4,7.8.2,3-.9,6-3.4,9.1l-.2.2c-1.5,1.9-3.2,3.3-5.1,4.2-1.9.9-3.8,1.2-5.8.9s-3.9-1.2-5.7-2.6c-2.5-2-3.9-4.2-4.2-6.8-.4-2.5.4-5,2.3-7.3l5.5,4.4c-.8,1-1.2,1.9-1.1,2.8,0,.9.5,1.7,1.3,2.3,1.5,1.2,3.2,1,5-.8.6-.6,1.3-1.4,2.2-2.5,1.5-1.9,2.4-3.4,2.5-4.5.1-1.1-.3-2-1.3-2.8Z"/>
  <path class="cls-1" d="M140.9,439.1c-1.7,1.7-3.6,2.9-5.6,3.5-2,.7-4,.7-6,.2-2-.6-3.8-1.7-5.4-3.4-2.5-2.6-3.7-5.4-3.6-8.5.1-3.1,1.6-6,4.4-8.7l.2-.2c2.7-2.7,5.6-4,8.7-4.1s5.8,1.2,8.4,3.8c2.4,2.5,3.6,5.2,3.6,8.1,0,2.9-1.2,5.7-3.7,8.3l-.9.9ZM135.9,433.4c1.6-1.6,2.5-3,2.8-4.2.3-1.2,0-2.3-1.1-3.3-1.9-1.9-4.3-1.5-7.3,1.4l-.5.5c-3.1,3-3.7,5.6-1.7,7.6,1.8,1.8,4.1,1.5,6.9-1l1-.9Z"/>
  <path class="cls-1" d="M108.2,421l2.1-1.9c-2.8,0-5-1.2-6.8-3.5-1.5-2-2.1-4-1.6-5.9.4-1.9,1.9-3.8,4.3-5.7l12.5-9.5,4.6,6-12.2,9.3c-1,.7-1.5,1.5-1.7,2.2s.2,1.6.9,2.7c.9,1.2,2,1.7,3.4,1.6l13.7-10.4,4.6,6-19.3,14.7-4.3-5.7Z"/>
  <path class="cls-1" d="M106.6,398.8c-3.3,1.9-6.4,2.7-9.1,2.4-2.8-.3-4.9-1.8-6.4-4.4-1.1-1.9-1.3-3.9-.5-6l-10.7,6.2-3.8-6.6,29.9-17.3,3.4,5.9-2.1,1.6c2.5.3,4.4,1.5,5.6,3.6,1.4,2.5,1.6,5,.6,7.6-1.1,2.6-3.4,4.9-6.9,6.9ZM103.3,392.1c3.7-2.2,5-4.3,3.7-6.5s-2-2.1-3.6-2.1l-8,4.6c-.9,1.3-.9,2.7,0,4.2,1.2,2,3.4,2.2,6.8.5l1.2-.7Z"/>
  <path class="cls-1" d="M93.3,361.1c-.6.3-.9.8-1,1.5s0,2.1.4,4,.5,3.5.3,4.9c-.1,1.4-.5,2.6-1.2,3.6-.6,1-1.5,1.7-2.7,2.2-2.1.9-4.1.8-6.2-.4-2.1-1.1-3.7-3.1-4.8-5.8-1.3-2.9-1.6-5.6-1-8,.6-2.4,1.9-4,4.1-4.9l3,7c-1.8.8-2.3,2.1-1.5,4,.3.7.8,1.3,1.4,1.6.6.3,1.2.4,1.8,0,.6-.3,1-.8,1.1-1.6.1-.8,0-1.9-.3-3.3-.3-1.4-.5-2.7-.6-3.9-.3-3.9,1.1-6.4,4.1-7.7,2-.9,4.1-.7,6.1.6,2.1,1.3,3.7,3.3,4.9,6.2.8,1.9,1.2,3.8,1.2,5.6,0,1.8-.5,3.4-1.3,4.7s-1.9,2.3-3.2,2.9l-2.8-6.5c1-.5,1.6-1.1,1.8-2,.2-.9,0-1.8-.4-2.8-.4-1-.9-1.6-1.5-1.9-.6-.3-1.2-.3-1.8,0Z"/>
</svg>