<?xml version="1.0" encoding="UTF-8"?>
<svg id="Layer_1" data-name="Layer 1" xmlns="http://www.w3.org/2000/svg" version="1.1" viewBox="0 0 566.9 566.9">
  <defs>
    <style>
      .cls-1 {
        fill: #000;
        stroke-width: 0px;
      }
    </style>
  </defs>
  <path class="cls-1" d="M260.2,78.8c1.2-.1,2.2.1,3.1.7.9.6,1.4,1.5,1.5,2.6.1,1.1-.2,2-.9,2.8-.7.8-1.7,1.3-2.9,1.4-1.2.1-2.2-.1-3.1-.7-.9-.6-1.4-1.5-1.5-2.6-.1-1.1.2-2,.9-2.8.7-.8,1.7-1.3,2.9-1.4Z"/>
  <path class="cls-1" d="M291.8,71.3c0,4.4-.9,7.8-2.8,10.3-1.9,2.4-4.7,3.7-8.3,3.7-3.6,0-6.5-1.1-8.5-3.5-2-2.4-3.1-5.8-3.2-10.1v-6c-.2-4.4.8-7.8,2.7-10.3,1.9-2.4,4.7-3.7,8.4-3.7,3.6,0,6.5,1.1,8.5,3.5,2,2.4,3.1,5.8,3.2,10.2v6ZM284.1,64.5c0-2.4-.4-4.1-1-5.3-.6-1.2-1.6-1.7-2.9-1.7-1.3,0-2.2.6-2.8,1.7-.6,1.1-.9,2.7-.9,4.9v8.4c.2,2.4.5,4.2,1.1,5.3.6,1.1,1.6,1.7,2.9,1.6,1.3,0,2.2-.6,2.8-1.7s.9-2.8.9-5.2v-8.1Z"/>
  <path class="cls-1" d="M319,74.1c-.5,4.4-1.9,7.7-4.1,9.8s-5.2,3-8.7,2.6c-3.6-.4-6.3-1.9-8-4.5s-2.3-6.1-1.8-10.5l.7-5.9c.5-4.4,1.9-7.7,4.1-9.8,2.2-2.2,5.2-3,8.8-2.6s6.3,1.9,8,4.5c1.7,2.6,2.3,6.1,1.8,10.5l-.7,5.9ZM312.3,66.4c.3-2.3.2-4.1-.3-5.3s-1.4-1.9-2.7-2.1c-1.3-.1-2.3.3-3,1.3s-1.2,2.6-1.5,4.8l-.9,8.3c-.3,2.4-.2,4.2.3,5.4.5,1.2,1.4,1.9,2.7,2,1.3.1,2.3-.3,3-1.3.7-1,1.2-2.7,1.5-5l.9-8Z"/>
  <path class="cls-1" d="M345.7,80.4c-1.1,4.3-2.8,7.4-5.3,9.2-2.5,1.8-5.5,2.3-9,1.5-3.5-.9-6-2.7-7.3-5.5-1.4-2.8-1.5-6.4-.4-10.6l1.4-5.8c1.1-4.3,2.8-7.4,5.3-9.2s5.5-2.3,9-1.5c3.5.9,6,2.7,7.3,5.5,1.4,2.8,1.5,6.4.4,10.6l-1.4,5.8ZM340,71.9c.6-2.3.7-4.1.4-5.3-.3-1.3-1.1-2.1-2.4-2.4-1.3-.3-2.3,0-3.1.9-.8.9-1.5,2.4-2.1,4.5l-2,8.1c-.6,2.4-.7,4.2-.4,5.4.3,1.2,1.1,2,2.4,2.3,1.2.3,2.3,0,3.2-.9.9-.9,1.6-2.5,2.2-4.8l1.9-7.8Z"/>
  <path class="cls-1" d="M371.3,90.1c-1.6,4.1-3.8,6.9-6.5,8.4-2.7,1.5-5.8,1.6-9.1.3-3.4-1.3-5.6-3.5-6.5-6.4-1-3-.7-6.5.9-10.6l2.2-5.6c1.6-4.1,3.8-6.9,6.5-8.4,2.7-1.5,5.8-1.6,9.1-.3s5.6,3.5,6.5,6.4.7,6.5-.9,10.6l-2.2,5.5ZM366.8,80.9c.9-2.2,1.2-3.9,1.1-5.2-.1-1.3-.8-2.2-2.1-2.7-1.2-.5-2.3-.3-3.2.5s-1.8,2.2-2.7,4.2l-3,7.8c-.9,2.3-1.3,4-1.1,5.3.2,1.3.9,2.2,2.1,2.6,1.2.5,2.3.3,3.3-.5s1.9-2.3,2.8-4.5l2.9-7.5Z"/>
  <path class="cls-1" d="M395.4,103c-2.1,3.9-4.6,6.4-7.5,7.5s-5.9.8-9.1-.9c-3.2-1.8-5.1-4.2-5.7-7.2-.6-3.1.2-6.5,2.3-10.4l2.9-5.2c2.1-3.9,4.6-6.4,7.5-7.5s5.9-.8,9.1.9c3.2,1.7,5.1,4.2,5.6,7.2.6,3.1-.2,6.5-2.3,10.4l-2.9,5.2ZM392.1,93.3c1.1-2.1,1.7-3.7,1.7-5.1,0-1.3-.6-2.3-1.7-2.9-1.1-.6-2.2-.6-3.3,0-1,.7-2.1,1.9-3.2,3.8l-4,7.3c-1.2,2.1-1.8,3.9-1.8,5.1,0,1.3.6,2.3,1.7,2.9,1.1.6,2.2.6,3.3,0,1.1-.7,2.2-2,3.3-4.1l3.9-7.1Z"/>
  <path class="cls-1" d="M405,126.3l-6.1-4.5,14.3-19.5-7.3-2.6,3.4-4.6,14.5,4.5.6.4-19.3,26.4Z"/>
  <path class="cls-1" d="M437.4,140.3l-2.9-3.1-8.5,7.9-5.4-5.8,24-22.2,8.8,9.4c2.6,2.8,4.1,5.7,4.3,8.4.2,2.8-.8,5.2-3.1,7.4-1.7,1.5-3.4,2.5-5.1,2.8-1.7.3-3.6.1-5.6-.7l-5,14-.2.2-5.7-6.2,4.6-12.1ZM438.9,133l3.4,3.7c1,1.1,2.1,1.7,3.2,1.7,1.1,0,2.2-.5,3.2-1.4,1-1,1.6-2,1.7-3.1s-.4-2.2-1.4-3.3l-3.4-3.7-6.6,6.1Z"/>
  <path class="cls-1" d="M449.5,152.6c2-1.4,4-2.3,6.1-2.6,2.1-.3,4.1,0,5.9.8s3.5,2.3,4.8,4.2c2.1,3,2.8,6,2.2,9-.6,3-2.5,5.6-5.7,7.9l-.2.2c-3.1,2.2-6.2,3.1-9.2,2.6-3-.4-5.6-2.1-7.6-5.1-2-2.8-2.7-5.7-2.3-8.6.5-2.9,2.1-5.5,4.9-7.6l1-.8ZM453.4,159c-1.8,1.3-3,2.5-3.4,3.7-.5,1.2-.3,2.3.5,3.5,1.6,2.2,4,2.1,7.5-.2l.6-.4c3.6-2.5,4.5-4.9,2.9-7.2-1.5-2.1-3.8-2.1-7-.1l-1.1.8Z"/>
  <path class="cls-1" d="M484.7,174l-5.3,3,2,3.5-4.6,2.6-2-3.5-9.7,5.5c-.8.4-1.3.9-1.4,1.4-.2.5,0,1.1.5,2,.4.7.7,1.2,1,1.6l-4.7,2.7c-1-1-1.9-2.1-2.7-3.4-1.3-2.3-1.7-4.2-1.2-5.9.5-1.7,1.8-3.1,4-4.4l10.5-5.9-1.5-2.7,4.6-2.6,1.5,2.7,5.3-3,3.7,6.6Z"/>
  <path class="cls-1" d="M466.9,206.8c.3-.4.9-1,1.7-1.5-2.2-.6-3.8-2-4.8-4.3-.9-2.1-1.1-4.2-.5-6.2.6-2,1.9-3.5,3.8-4.3,2.4-1.1,4.6-1,6.6.3,2,1.2,3.8,3.6,5.3,7l.9,2.1,1.2-.5c2.1-.9,2.7-2.2,1.9-4-.7-1.6-1.9-2.1-3.5-1.4l-3.1-6.9c2.1-.9,4.3-.8,6.4.4,2.1,1.2,3.8,3.3,5.1,6.1,1.2,2.8,1.5,5.4.9,7.6-.7,2.3-2.2,3.9-4.6,5l-9.8,4.3c-2,.9-3.5,1.9-4.3,3l-.3.2-3.1-6.9ZM469.5,200.5c.4.9.9,1.5,1.5,1.9.6.4,1.2.6,1.8.7l3.6-1.6-.9-2c-1.1-2.4-2.7-3.1-4.8-2.2-.6.3-1,.7-1.3,1.3-.2.6-.2,1.2.1,1.9Z"/>
  <path class="cls-1" d="M502.1,215l-5.7,1.9,1.2,3.8-5,1.6-1.2-3.8-10.6,3.5c-.9.3-1.4.6-1.7,1.1-.2.4-.2,1.1,0,2,.2.7.5,1.3.7,1.8l-5.1,1.7c-.8-1.2-1.5-2.4-1.9-3.9-.8-2.5-.8-4.5,0-6.1s2.4-2.7,4.7-3.5l11.5-3.8-1-2.9,5-1.6,1,2.9,5.7-1.9,2.4,7.2Z"/>
  <path class="cls-1" d="M477.1,238.4l-1.9-7.4,23.6-6,1.9,7.4-23.6,6ZM504.7,223.1c1-.3,2-.1,2.9.5.9.6,1.4,1.5,1.7,2.7.3,1.2.2,2.3-.3,3.2-.5.9-1.2,1.5-2.3,1.8-1,.3-2,.1-2.9-.5-.9-.6-1.4-1.5-1.7-2.7s-.2-2.3.3-3.2c.5-.9,1.2-1.5,2.3-1.8Z"/>
  <path class="cls-1" d="M490.3,239.3c2.4-.4,4.6-.2,6.6.4,2,.6,3.7,1.8,4.9,3.3,1.3,1.6,2.1,3.6,2.5,5.9.6,3.6-.1,6.6-2,9-1.9,2.4-4.8,3.9-8.6,4.5h-.3c-3.7.6-6.9,0-9.4-1.7-2.5-1.7-4.1-4.4-4.6-7.9-.5-3.4,0-6.3,1.8-8.7s4.3-3.9,7.8-4.6l1.3-.2ZM491,246.9c-2.2.3-3.8.9-4.7,1.8-.9.9-1.3,2-1.1,3.3.4,2.7,2.7,3.7,6.8,3.1h.8c4.3-.8,6.2-2.5,5.8-5.2-.4-2.5-2.5-3.6-6.2-3.2l-1.4.2Z"/>
  <path class="cls-1" d="M506.3,273l-2.8.3c2.2,1.6,3.4,3.9,3.5,6.8,0,2.5-.6,4.4-2.1,5.7s-3.7,2-6.8,2.1l-15.6.5-.2-7.6,15.3-.4c1.2,0,2.1-.3,2.7-.8s.8-1.4.8-2.7c0-1.5-.7-2.6-1.8-3.2l-17.2.5-.2-7.6,24.3-.7.2,7.1Z"/>
  <path class="cls-1" d="M487.9,305.1c.6,0,1.2-.2,1.6-.9.4-.6,1-1.9,1.5-3.7.6-1.8,1.3-3.3,2.1-4.5.8-1.2,1.7-2,2.7-2.6,1-.6,2.2-.8,3.4-.7,2.2.2,4,1.3,5.2,3.2,1.3,2,1.8,4.4,1.5,7.4-.3,3.2-1.2,5.7-2.9,7.5-1.6,1.8-3.6,2.6-6,2.4l.7-7.6c1.9.2,3-.8,3.2-2.8,0-.8,0-1.5-.5-2-.4-.6-.9-.9-1.6-1-.7,0-1.2.2-1.7.8-.5.6-.9,1.6-1.3,3.1-.4,1.4-.8,2.7-1.3,3.7-1.6,3.5-4,5.1-7.2,4.9-2.2-.2-3.9-1.3-5.1-3.4s-1.7-4.7-1.4-7.8c.2-2.1.7-3.9,1.6-5.4.9-1.6,2-2.7,3.4-3.5,1.4-.8,2.8-1.1,4.2-1l-.6,7c-1.1,0-2,.2-2.5.9-.6.7-.9,1.6-1,2.7,0,1,0,1.8.4,2.4.4.6.9.9,1.6.9Z"/>
  <path class="cls-1" d="M486.7,336.1l-10.7-3,2.1-7.6,31.5,8.9-3.5,12.6c-.7,2.4-1.7,4.4-3.1,6s-3.1,2.7-5,3.2c-1.9.6-3.9.5-6,0-3.1-.9-5.2-2.7-6.4-5.4s-1.3-6-.2-9.8l1.4-4.8ZM492.6,337.8l-1.4,5c-.4,1.5-.4,2.7.2,3.7.5,1,1.4,1.7,2.8,2,1.5.4,2.8.3,3.9-.2,1.1-.5,1.9-1.5,2.3-2.9l1.4-5.1-9.1-2.6Z"/>
  <path class="cls-1" d="M465,363.5c1.5-3.4,3.7-5.7,6.7-7,3-1.2,6.1-1.1,9.3.3l.6.2c2.3,1,4.1,2.3,5.5,3.9,1.4,1.6,2.2,3.4,2.4,5.5s-.1,4.2-1.1,6.4c-1.4,3.1-3.4,5.2-6.1,6.2-2.7,1-5.8.7-9.3-.8l-2.7-1.2,6-13.8c-1.4-.3-2.6-.2-3.7.4-1.1.5-1.9,1.5-2.5,2.8-1,2.2-.9,4.2,0,6.2l-5.1,1.5c-.8-1.4-1.2-3-1.3-4.9s.4-3.8,1.2-5.6ZM483.1,370.4c.9-2,0-3.8-2.5-5.4l-3,7,.5.2c1.1.5,2.1.6,3,.3.9-.3,1.5-1,2-2.1Z"/>
  <path class="cls-1" d="M468.1,396.4l1.4-2.1c1.2-2.1,1.3-3.8.3-5.1l-13.4-7.5,3.7-6.6,21.2,11.9-3.5,6.2-2.8-1.3c1.5,2.3,1.6,4.4.5,6.4-.4.7-.8,1.3-1.3,1.7l-6.1-3.6Z"/>
  <path class="cls-1" d="M464.3,428.2l-22-9.2,12.6,20.3-6.7,7.9-24.9-21.2,5.1-6,5.8,5,11.4,10.7-12.6-21.1,3.4-4,22.9,9.1-12.4-9.6-5.8-5,5.1-6,24.9,21.2-6.7,7.9Z"/>
  <path class="cls-1" d="M414.1,433.3l5.6-5.1,16.3,18-5.6,5.1-16.3-18ZM440.6,450.6c.7.8,1,1.7.9,2.7-.1,1-.6,2-1.6,2.8-.9.8-1.9,1.3-2.9,1.3-1,0-1.9-.4-2.6-1.2-.7-.8-1-1.7-.9-2.7s.6-2,1.6-2.8c.9-.8,1.9-1.3,2.9-1.3,1,0,1.9.4,2.6,1.2Z"/>
  <path class="cls-1" d="M420.3,459.7l-1.9-2.1c0,2.8-1.2,5-3.6,6.8-2,1.5-4,2-5.9,1.6-1.9-.5-3.8-1.9-5.7-4.3l-9.4-12.5,6.1-4.6,9.2,12.3c.7,1,1.5,1.6,2.2,1.7s1.6-.1,2.7-.9c1.2-.9,1.7-2,1.6-3.4l-10.3-13.7,6.1-4.5,14.6,19.4-5.7,4.3Z"/>
  <path class="cls-1" d="M379.9,460.4c.4-2.6,1.7-4.5,4.1-5.9,2.3-1.3,4.5-1.6,6.4-1s3.7,2.3,5.1,4.8l7.8,13.7-6.6,3.8-7.8-13.7c-1-1.8-2.4-2.2-4.2-1.2-1.5.9-2.3,2-2.3,3.5l8.4,14.8-6.6,3.8-12-21.1,6.2-3.5,1.5,2.2Z"/>
  <path class="cls-1" d="M373.4,494.3l-2.4-5.5-3.7,1.6-2.1-4.8,3.7-1.6-4.5-10.2c-.4-.8-.8-1.4-1.2-1.5s-1.1,0-2,.3c-.7.3-1.2.6-1.7.9l-2.2-4.9c1.1-.9,2.3-1.7,3.6-2.3,2.4-1.1,4.4-1.3,6-.7,1.6.6,3,2.1,4,4.4l4.9,11,2.8-1.3,2.1,4.8-2.8,1.3,2.4,5.5-6.9,3.1Z"/>
  <path class="cls-1" d="M344.1,472.4c3.5-1.2,6.8-1,9.6.3s4.9,3.8,6,7.2l.2.6c.8,2.4,1,4.6.7,6.7-.3,2.1-1.1,3.9-2.5,5.5-1.4,1.5-3.2,2.7-5.5,3.4-3.2,1.1-6.1.9-8.7-.5-2.5-1.4-4.4-3.9-5.6-7.5l-.9-2.8,14.3-4.7c-.7-1.2-1.6-2-2.7-2.5-1.1-.5-2.4-.5-3.7,0-2.3.7-3.8,2.1-4.5,4.1l-4.6-2.8c.5-1.5,1.4-2.9,2.8-4.2,1.4-1.3,3.1-2.2,4.9-2.8ZM351,490.5c2.1-.7,2.9-2.5,2.4-5.4l-7.3,2.4.2.6c.4,1.2.9,2,1.8,2.4.8.4,1.8.5,2.9,0Z"/>
  <path class="cls-1" d="M262.3,492.8l4.2.4,1.2-11.5,7.8.8-3.3,32.5-12.8-1.3c-3.9-.4-6.8-1.6-8.8-3.5-2-1.9-2.8-4.5-2.5-7.6.2-2.3.9-4.1,1.9-5.5,1.1-1.4,2.6-2.5,4.7-3.2l-5.5-13.8v-.3s8.4.9,8.4.9l4.6,12.1ZM265.9,499.3l-5-.5c-1.5-.2-2.7.1-3.5.8-.8.7-1.3,1.8-1.5,3.2-.1,1.4.1,2.5.8,3.4.7.9,1.8,1.4,3.2,1.5l5,.5.9-9Z"/>
  <path class="cls-1" d="M245.1,491.5c-.6,2.4-1.5,4.3-2.9,6-1.4,1.6-3,2.7-5,3.3-2,.6-4.1.6-6.4,0-3.5-.9-6.1-2.6-7.6-5.3-1.5-2.7-1.8-5.9-.9-9.7v-.3c1-3.7,2.7-6.4,5.2-8s5.6-2.1,9.1-1.2c3.4.8,5.8,2.5,7.4,5,1.5,2.5,2,5.5,1.3,9l-.3,1.2ZM237.9,489.3c.5-2.2.6-3.9.1-5.1-.4-1.2-1.3-1.9-2.7-2.3-2.6-.6-4.4,1.1-5.5,5.1l-.2.7c-1,4.2-.2,6.7,2.5,7.3,2.5.6,4.2-.9,5.3-4.5l.3-1.3Z"/>
  <path class="cls-1" d="M204.5,498.6l2-5.7-3.8-1.3,1.7-5,3.8,1.3,3.7-10.5c.3-.9.4-1.5.2-2-.2-.4-.7-.8-1.7-1.2-.7-.2-1.3-.4-1.8-.5l1.8-5.1c1.4,0,2.8.3,4.2.8,2.5.9,4.1,2.1,4.8,3.7.8,1.6.7,3.5-.1,5.9l-4,11.4,2.9,1-1.7,5-2.9-1-2,5.7-7.1-2.5Z"/>
  <path class="cls-1" d="M196.3,462.2c0,.6,0,1.3-.3,2.3,2-1,4.1-1,6.4,0,2.1,1,3.5,2.4,4.4,4.4s.9,3.8,0,5.7c-1.1,2.4-2.8,3.8-5.2,4.2-2.3.4-5.2-.2-8.5-1.8l-2.1-1-.5,1.2c-.9,2-.5,3.5,1.2,4.3,1.6.8,2.8.3,3.6-1.3l6.9,3.2c-1,2.1-2.7,3.4-5.1,3.9s-5.1,0-7.9-1.2c-2.8-1.3-4.7-3-5.7-5.2-1-2.1-.9-4.4.1-6.8l4.5-9.7c.9-2,1.3-3.7,1.2-5.1l.2-.3,6.9,3.2ZM198.5,468.7c-.9-.4-1.6-.5-2.4-.4-.7.1-1.3.3-1.8.7l-1.6,3.5,2,.9c2.4,1.1,4.1.6,5.1-1.5.3-.6.3-1.2,0-1.8s-.7-1-1.3-1.3Z"/>
  <path class="cls-1" d="M164.4,479.3l3.1-5.2-3.4-2,2.7-4.5,3.4,2,5.7-9.6c.5-.8.6-1.4.5-1.9,0-.5-.6-1-1.4-1.5-.6-.4-1.2-.7-1.7-.8l2.8-4.7c1.4.3,2.7.9,4,1.6,2.2,1.3,3.6,2.8,4,4.5.4,1.7,0,3.6-1.2,5.8l-6.1,10.4,2.7,1.6-2.7,4.5-2.7-1.6-3.1,5.2-6.5-3.9Z"/>
  <path class="cls-1" d="M165.2,442.7c3,2.2,4.8,4.9,5.3,8,.5,3.2-.2,6.2-2.3,9l-.4.5c-1.5,2-3.1,3.5-5,4.5s-3.8,1.4-5.9,1.2c-2-.2-4-1-6-2.5-2.8-2-4.3-4.5-4.6-7.3-.3-2.9.6-5.8,2.9-8.9l1.7-2.4,12.1,8.9c.6-1.3.7-2.5.5-3.6-.3-1.2-1-2.2-2.2-3-1.9-1.4-3.9-1.8-6-1.3l-.4-5.3c1.5-.5,3.2-.5,5.1-.1s3.6,1.2,5.2,2.4ZM154.5,458.8c1.8,1.3,3.7.9,5.8-1.2l-6.2-4.5-.3.5c-.7,1-1,1.9-.9,2.8.1.9.7,1.7,1.6,2.4Z"/>
  <path class="cls-1" d="M141.1,431.9c-.4.5-.5,1.1-.3,1.8s.9,1.9,2,3.5,1.9,3.1,2.3,4.4c.4,1.3.6,2.6.4,3.7-.2,1.2-.7,2.2-1.6,3.1-1.5,1.6-3.4,2.3-5.8,2.2-2.3-.2-4.6-1.3-6.8-3.3-2.3-2.2-3.7-4.5-4.2-6.9-.4-2.4.2-4.5,1.8-6.2l5.6,5.2c-1.3,1.4-1.2,2.8.3,4.2.6.5,1.2.8,1.9.9.7,0,1.3-.2,1.7-.7.5-.5.6-1.1.4-1.9s-.7-1.7-1.6-2.9c-.9-1.2-1.6-2.3-2.1-3.3-1.8-3.4-1.6-6.3.6-8.7,1.5-1.6,3.5-2.3,5.9-1.9,2.4.3,4.7,1.6,7,3.7,1.5,1.4,2.6,3,3.3,4.6s.9,3.3.7,4.8-.8,2.9-1.8,3.9l-5.2-4.8c.7-.8,1-1.7.9-2.6-.2-.9-.7-1.7-1.5-2.5-.8-.7-1.5-1.1-2.1-1.1-.7,0-1.2.2-1.7.7Z"/>
  <path class="cls-1" d="M107.5,430.7c-.8.7-1.8.9-2.8.8s-1.9-.7-2.7-1.7c-.8-1-1.1-2-1.1-3s.5-1.9,1.3-2.6c.8-.7,1.8-.9,2.8-.8,1,.2,1.9.7,2.7,1.7.8,1,1.1,2,1.1,3s-.5,1.9-1.3,2.6ZM126.3,405.2l4.8,5.9-18.9,15.3-4.8-5.9,18.9-15.3Z"/>
  <path class="cls-1" d="M99.6,409.8l2.2-1.8c-2.8-.2-5-1.5-6.6-4-1.4-2.1-1.8-4.1-1.2-6,.6-1.9,2.1-3.7,4.6-5.4l13.1-8.6,4.2,6.3-12.8,8.5c-1,.7-1.6,1.4-1.8,2.1-.2.7,0,1.6.8,2.7.8,1.2,1.9,1.8,3.3,1.8l14.3-9.5,4.2,6.3-20.3,13.4-3.9-5.9Z"/>
  <path class="cls-1" d="M98.4,356.2l3,7-22.2,9.5,4.9,6-5.3,2.2-10.2-11.3-.3-.6,30.1-12.8Z"/>
  <path class="cls-1" d="M71.1,329.2l-15.1-2.9-1.8-8.3,22.7,5.9,11.5-2.5,1.7,7.8-11.5,2.5-18.3,14.7-1.8-8.3,12.6-8.9Z"/>
  <path class="cls-1" d="M85.7,298.3c.3,3.7-.6,6.8-2.6,9.3-2,2.5-4.8,3.9-8.4,4.1h-.6c-2.5.2-4.7,0-6.7-.8-2-.8-3.5-2-4.7-3.7-1.2-1.7-1.9-3.7-2.1-6.1-.3-3.4.6-6.2,2.5-8.3,2-2.1,4.8-3.4,8.6-3.7l2.9-.2,1.2,15c1.3-.4,2.4-1.1,3.1-2s1-2.2.9-3.6c-.2-2.4-1.2-4.2-3-5.4l3.8-3.8c1.4.8,2.5,2.1,3.4,3.7.9,1.7,1.4,3.5,1.6,5.5ZM66.5,300.7c.2,2.2,1.7,3.4,4.7,3.6l-.6-7.6h-.6c-1.2.1-2.1.5-2.7,1.2-.6.7-.9,1.6-.8,2.8Z"/>
  <path class="cls-1" d="M85,272.3c-.5.3-1.2.5-2.2.6,1.7,1.5,2.5,3.4,2.4,5.9,0,2.3-.9,4.2-2.3,5.8-1.4,1.5-3.2,2.3-5.3,2.2-2.6,0-4.6-1.1-5.9-3.1-1.3-2-1.8-4.8-1.7-8.6v-2.3c0,0-1.2,0-1.2,0-2.2,0-3.4.8-3.5,2.8,0,1.8.8,2.7,2.6,2.8l-.3,7.6c-2.3,0-4.2-1.2-5.6-3.2-1.4-2.1-2-4.6-1.9-7.7.1-3.1,1-5.5,2.5-7.3,1.6-1.7,3.7-2.6,6.3-2.5l10.8.4c2.2,0,4-.2,5.2-.8h.4s-.3,7.6-.3,7.6ZM79.9,276.8c0-.9-.1-1.7-.5-2.4-.4-.6-.8-1.1-1.3-1.4h-3.9c0-.1,0,2.1,0,2.1,0,2.6,1,4,3.4,4.1.7,0,1.3-.2,1.7-.6.4-.4.7-1,.7-1.7Z"/>
  <path class="cls-1" d="M70.5,245.4l-.5,2.4c-.3,2.4.2,4,1.6,4.8l15.2,2.1-1,7.5-24.1-3.4,1-7,3.1.2c-2.2-1.6-3.1-3.5-2.8-5.8.1-.8.3-1.5.6-2.1l6.9,1.1Z"/>
  <path class="cls-1" d="M96.8,248.4l-2.5,3.4-1.4-1c-1.7-1.4-3.4-2.3-5.2-2.7l-5.5-1.1,1.2-6,4.8,1c1.7.3,3.3,1.1,4.9,2.3,1.6,1.2,2.8,2.6,3.7,4.1Z"/>
  <path class="cls-1" d="M76.4,214.2l1.2-3.4c1-2.7.1-4.5-2.5-5.4-1-.4-2-.3-2.8,0-.9.4-1.5,1.2-1.9,2.3-.3.9-.4,1.9,0,2.8.3.9.9,1.5,1.7,1.8l-2.5,7.1c-1.6-.6-2.9-1.5-3.9-2.9s-1.5-3-1.6-4.8c-.1-1.9.1-3.7.8-5.7,1.2-3.4,3-5.8,5.2-7.2,2.3-1.4,4.8-1.6,7.5-.6,1.3.5,2.4,1.3,3.3,2.6s1.4,2.8,1.6,4.6c1.2-1.4,2.5-2.4,4.1-2.9,1.5-.5,3.2-.4,5,.2,2.7,1,4.6,2.8,5.5,5.5.9,2.7.7,5.8-.5,9.2-.7,2-1.8,3.8-3.2,5.2s-2.9,2.4-4.6,2.8c-1.7.4-3.4.3-5.1-.3l2.6-7.2c.9.3,1.9.2,2.9-.3,1-.5,1.6-1.3,2-2.4.4-1.3.5-2.4,0-3.4-.4-1-1.2-1.7-2.3-2.1-1.6-.6-2.8-.6-3.7,0-.9.5-1.6,1.5-2.1,2.9l-1.2,3.5-5.3-1.9Z"/>
  <path class="cls-1" d="M111.7,182.9l-10.4,20.3-4.4-2.3-5-14.4c-1.4-3.6-2.9-5.9-4.5-6.7-1.3-.6-2.3-.9-3.3-.6-.9.2-1.7.8-2.2,1.9-.5,1-.5,2.1,0,3.2.5,1.1,1.5,2,2.8,2.6l-3.5,6.8c-1.8-.9-3.2-2.2-4.3-3.9-1.1-1.7-1.6-3.5-1.6-5.5,0-2,.4-4,1.4-6,1.6-3.1,3.6-5.2,5.9-6.2,2.3-1,4.8-.7,7.6.7,1.1.6,2.2,1.4,3,2.4s1.7,2.2,2.4,3.7c.7,1.5,1.6,3.8,2.6,6.8l2.4,6,5.9-11.5,5.2,2.7Z"/>
  <path class="cls-1" d="M111.2,161c.3,2.2-.1,4.1-1.3,5.8-1.7,2.4-3.8,3.8-6.5,4.1-2.6.3-5.3-.5-8.1-2.4-1.7-1.2-3.1-2.7-4-4.5s-1.3-3.8-1.2-5.8c.1-2,.8-3.9,2-5.7,1.2-1.8,2.8-3.1,4.7-3.9,1.9-.8,3.9-1.1,6.1-.8,2.2.3,4.4,1.2,6.5,2.6l2.4,1.6c3,2,5.2,4.4,6.5,7.1,1.4,2.7,1.9,5.5,1.6,8.4-.3,3-1.5,5.9-3.4,8.8l-.3.4-5-3.4.8-1.2c2.7-4.4,2.5-8.1-.9-11.1ZM106.6,162c.9-1.4,1-2.7.3-4.1l-2.6-1.8c-1.7-1.2-3.2-1.8-4.4-1.8-1.2,0-2.2.5-2.9,1.5-.6.9-.6,1.9-.1,3.2s1.5,2.3,2.8,3.2c1.4,1,2.7,1.4,4,1.4,1.2,0,2.2-.6,3-1.6Z"/>
  <path class="cls-1" d="M135.2,150.7l-22.9-23.3,7.5-7.4c2.1-2,4.4-3.4,6.9-4.1,2.6-.7,5.1-.6,7.7.2s4.9,2.2,7,4.3l1.1,1.1c2.1,2.1,3.5,4.5,4.3,7.1.8,2.6.8,5.2,0,7.7-.7,2.6-2,4.9-4.1,6.8l-7.7,7.5ZM122.1,126.2l14.4,14.6,2-1.9c1.6-1.6,2.3-3.4,2-5.4-.3-2-1.5-4.1-3.7-6.4l-1-1c-2.2-2.3-4.3-3.5-6.3-3.8-2-.3-3.8.4-5.5,2l-1.9,1.9Z"/>
  <path class="cls-1" d="M166.6,122.8c-.5-.2-1.1-.7-1.9-1.3,0,2.2-1.1,4.1-3.1,5.6-1.8,1.4-3.8,2-5.9,1.9-2.1-.1-3.8-1-5.1-2.7-1.6-2.1-2-4.3-1.3-6.5.7-2.2,2.6-4.5,5.6-6.7l1.9-1.4-.8-1c-1.4-1.8-2.8-2.1-4.3-.9-1.4,1.1-1.6,2.3-.5,3.8l-6,4.6c-1.4-1.9-1.8-4-1.1-6.4s2.3-4.5,4.8-6.4c2.5-1.9,4.9-2.7,7.2-2.6,2.3.1,4.3,1.2,6,3.3l6.5,8.6c1.4,1.8,2.7,2.9,3.9,3.5l.2.3-6,4.6ZM159.9,121.7c.8-.6,1.3-1.2,1.5-1.9s.3-1.3.2-1.9l-2.3-3.1-1.8,1.3c-2.1,1.6-2.4,3.3-1,5.2.4.5.9.9,1.6.9.6,0,1.2-.1,1.8-.6Z"/>
  <path class="cls-1" d="M177.6,102.9l-3.4-13.9,7-4.1,5.8,29.5.2,1.1c.4,3.4-1,6-4,7.8-.9.5-1.8.9-2.9,1.2l-2.7-4.7.9-.5c.9-.5,1.5-1.1,1.9-1.6.3-.5.4-1.2.2-2.1l-.3-1.7-19.7-16.9,7-4.1,10.2,9.9Z"/>
  <path class="cls-1" d="M203.4,94.2c-.3-.6-.8-.9-1.6-1-.8,0-2.1,0-4,.4-1.9.4-3.5.5-4.9.4-1.4-.1-2.6-.5-3.6-1.1-1-.6-1.7-1.5-2.2-2.7-.9-2-.8-4.1.3-6.2,1.1-2.1,3-3.7,5.7-4.9,2.9-1.3,5.6-1.7,7.9-1.1,2.4.5,4,1.9,5,4.1l-6.9,3.1c-.8-1.8-2.1-2.3-4-1.4-.7.3-1.2.8-1.6,1.4s-.3,1.2,0,1.8c.3.6.8,1,1.6,1.1.8.1,1.9,0,3.3-.3s2.7-.6,3.9-.7c3.9-.3,6.4,1,7.7,4,.9,2,.7,4.1-.5,6.1s-3.3,3.7-6.2,5c-1.9.8-3.8,1.2-5.5,1.2-1.8,0-3.4-.4-4.7-1.3-1.4-.8-2.3-1.9-2.9-3.2l6.5-2.9c.5,1,1.2,1.6,2,1.8.9.2,1.8,0,2.8-.4.9-.4,1.6-.9,1.9-1.5.3-.6.3-1.2,0-1.8Z"/>
</svg>