<?xml version="1.0" encoding="UTF-8"?>
<svg id="Layer_1" data-name="Layer 1" xmlns="http://www.w3.org/2000/svg" version="1.1" viewBox="0 0 566.9 566.9">
  <defs>
    <style>
      .cls-1 {
        fill: #000;
        stroke-width: 0px;
      }
    </style>
  </defs>
  <path class="cls-1" d="M260.2,78.8c1.2-.1,2.2.1,3.1.7s1.4,1.5,1.5,2.6c.1,1.1-.2,2-.9,2.8-.7.8-1.7,1.3-2.9,1.4-1.2.1-2.2-.1-3.1-.7s-1.4-1.5-1.5-2.6c-.1-1.1.2-2,.9-2.8.7-.8,1.7-1.3,2.9-1.4Z"/>
  <path class="cls-1" d="M291.8,71.3c0,4.4-.9,7.8-2.8,10.3-1.9,2.4-4.7,3.7-8.3,3.7-3.6,0-6.5-1.1-8.5-3.5-2-2.4-3.1-5.8-3.2-10.1v-6c-.2-4.4.8-7.8,2.7-10.3s4.7-3.7,8.4-3.7c3.6,0,6.5,1.1,8.5,3.5,2,2.4,3.1,5.8,3.2,10.2v6ZM284.1,64.5c0-2.4-.4-4.1-1-5.3s-1.6-1.7-2.9-1.7c-1.3,0-2.2.6-2.8,1.7-.6,1.1-.9,2.7-.9,4.9v8.4c.2,2.4.5,4.2,1.1,5.3.6,1.1,1.6,1.7,2.9,1.6,1.3,0,2.2-.6,2.8-1.7.6-1.1.9-2.8.9-5.2v-8.1Z"/>
  <path class="cls-1" d="M319,74.1c-.5,4.4-1.9,7.7-4.1,9.8-2.2,2.2-5.2,3-8.7,2.6-3.6-.4-6.3-1.9-8-4.5-1.7-2.6-2.3-6.1-1.8-10.5l.7-5.9c.5-4.4,1.9-7.7,4.1-9.8,2.2-2.2,5.2-3,8.8-2.6s6.3,1.9,8,4.5c1.7,2.6,2.3,6.1,1.8,10.5l-.7,5.9ZM312.3,66.4c.3-2.3.2-4.1-.3-5.3s-1.4-1.9-2.7-2.1c-1.3-.1-2.3.3-3,1.3s-1.2,2.6-1.5,4.8l-.9,8.3c-.3,2.4-.2,4.2.3,5.4.5,1.2,1.4,1.9,2.7,2,1.3.1,2.3-.3,3-1.3.7-1,1.2-2.7,1.5-5l.9-8Z"/>
  <path class="cls-1" d="M345.7,80.4c-1.1,4.3-2.8,7.4-5.3,9.2s-5.5,2.3-9,1.5c-3.5-.9-6-2.7-7.3-5.5-1.4-2.8-1.5-6.4-.4-10.6l1.4-5.8c1.1-4.3,2.8-7.4,5.3-9.2,2.5-1.8,5.5-2.3,9-1.5,3.5.9,6,2.7,7.3,5.5,1.4,2.8,1.5,6.4.4,10.6l-1.4,5.8ZM340,71.9c.6-2.3.7-4.1.4-5.3-.3-1.3-1.1-2.1-2.4-2.4-1.3-.3-2.3,0-3.1.9-.8.9-1.5,2.4-2.1,4.5l-2,8.1c-.6,2.4-.7,4.2-.4,5.4s1.1,2,2.4,2.3c1.2.3,2.3,0,3.2-.9.9-.9,1.6-2.5,2.2-4.8l1.9-7.8Z"/>
  <path class="cls-1" d="M371.3,90.1c-1.6,4.1-3.8,6.9-6.5,8.4-2.7,1.5-5.8,1.6-9.1.3-3.4-1.3-5.6-3.5-6.5-6.4-1-3-.7-6.5.9-10.6l2.2-5.6c1.6-4.1,3.8-6.9,6.5-8.4,2.7-1.5,5.8-1.6,9.1-.3,3.4,1.3,5.6,3.5,6.5,6.4,1,3,.7,6.5-.9,10.6l-2.2,5.5ZM366.8,80.9c.9-2.2,1.2-3.9,1.1-5.2-.1-1.3-.8-2.2-2.1-2.7-1.2-.5-2.3-.3-3.2.5s-1.8,2.2-2.7,4.2l-3,7.8c-.9,2.3-1.3,4-1.1,5.3.2,1.3.9,2.2,2.1,2.6,1.2.5,2.3.3,3.3-.5s1.9-2.3,2.8-4.5l2.9-7.5Z"/>
  <path class="cls-1" d="M383.8,111.9l-6.7-3.7,11.6-21.2-7.6-1.7,2.8-5,15,2.6.6.3-15.7,28.7Z"/>
  <path class="cls-1" d="M417.7,121.7l-3.3-2.7-7.4,8.9-6.1-5,20.9-25.1,9.9,8.2c3,2.5,4.8,5.1,5.3,7.8s-.1,5.3-2.1,7.7c-1.5,1.7-3,2.9-4.7,3.5-1.7.6-3.5.6-5.6,0l-3.2,14.5-.2.3-6.5-5.4,3-12.6ZM418.3,114.3l3.8,3.2c1.2,1,2.3,1.4,3.4,1.3,1.1-.1,2.1-.7,3-1.8s1.3-2.2,1.2-3.3c0-1.1-.7-2.1-1.8-3.1l-3.8-3.2-5.8,6.9Z"/>
  <path class="cls-1" d="M431.2,132.3c1.8-1.6,3.7-2.8,5.7-3.3s4-.6,6,0c1.9.6,3.7,1.8,5.3,3.6,2.5,2.7,3.6,5.6,3.3,8.6s-1.8,5.9-4.7,8.5l-.2.2c-2.8,2.6-5.7,3.8-8.8,3.8-3.1,0-5.8-1.4-8.2-4-2.3-2.6-3.4-5.3-3.3-8.2.1-2.9,1.4-5.7,3.9-8.2l.9-.9ZM436,138.2c-1.7,1.5-2.6,2.9-2.9,4.1-.3,1.2,0,2.3,1,3.4,1.8,2,4.3,1.6,7.4-1.2l.6-.5c3.2-2.9,3.9-5.4,2-7.5-1.7-1.9-4-1.6-6.9.8l-1,.9Z"/>
  <path class="cls-1" d="M468.9,149l-4.8,3.6,2.4,3.2-4.2,3.1-2.4-3.2-8.9,6.7c-.7.5-1.1,1.1-1.2,1.5s.2,1.1.7,1.9c.4.6.9,1.1,1.2,1.4l-4.3,3.2c-1.2-.8-2.2-1.8-3.1-3-1.6-2.1-2.2-4-2-5.7s1.4-3.3,3.4-4.8l9.7-7.2-1.9-2.5,4.2-3.1,1.9,2.5,4.8-3.6,4.5,6.1Z"/>
  <path class="cls-1" d="M455.5,183.9c.3-.5.8-1.1,1.5-1.7-2.2-.3-4-1.5-5.3-3.6-1.2-2-1.6-4-1.2-6.1.4-2.1,1.4-3.7,3.2-4.8,2.3-1.4,4.5-1.6,6.6-.6,2.2,1,4.2,3,6.1,6.2l1.2,2,1.1-.7c1.9-1.2,2.4-2.6,1.4-4.2-.9-1.5-2.2-1.8-3.7-.9l-3.9-6.5c2-1.2,4.2-1.3,6.4-.4s4.2,2.8,5.8,5.4c1.6,2.7,2.2,5.1,1.9,7.5s-1.7,4.2-3.9,5.6l-9.2,5.6c-1.9,1.2-3.2,2.4-3.8,3.5l-.3.2-3.9-6.5ZM457.2,177.3c.5.8,1.1,1.4,1.7,1.7.7.3,1.3.5,1.9.4l3.3-2-1.1-1.9c-1.4-2.3-3.1-2.8-5.1-1.5-.6.4-.9.8-1.1,1.5-.1.6,0,1.2.4,1.8Z"/>
  <path class="cls-1" d="M491.5,187.4l-5.4,2.6,1.7,3.6-4.7,2.3-1.7-3.6-10,4.8c-.8.4-1.3.8-1.5,1.3-.2.5,0,1.1.4,2,.3.7.6,1.2.9,1.6l-4.9,2.3c-1-1-1.8-2.2-2.4-3.6-1.1-2.3-1.4-4.4-.8-6s2-3,4.2-4.1l10.9-5.2-1.3-2.8,4.7-2.3,1.3,2.8,5.4-2.6,3.3,6.8Z"/>
  <path class="cls-1" d="M469.7,213.9l-2.8-7.1,22.6-9,2.8,7.1-22.6,9ZM495.1,195.1c1-.4,2-.4,2.9.1.9.5,1.6,1.3,2.1,2.4.5,1.2.5,2.2.2,3.2-.4,1-1,1.7-2,2.1-1,.4-2,.4-2.9-.1-.9-.5-1.6-1.3-2.1-2.4-.5-1.2-.5-2.2-.2-3.2.4-1,1-1.7,2-2.1Z"/>
  <path class="cls-1" d="M482.9,213.1c2.3-.7,4.5-.8,6.6-.5,2.1.4,3.9,1.3,5.3,2.7,1.5,1.4,2.5,3.3,3.2,5.5,1,3.5.7,6.6-.8,9.2-1.6,2.6-4.2,4.5-7.9,5.6h-.3c-3.6,1.1-6.8,1-9.5-.4-2.7-1.4-4.6-3.8-5.6-7.3-1-3.3-.8-6.3.7-8.9,1.4-2.6,3.8-4.5,7.1-5.6l1.2-.4ZM484.5,220.5c-2.2.6-3.6,1.4-4.4,2.4-.8,1-1,2.1-.6,3.4.8,2.6,3.1,3.3,7.1,2.2l.7-.2c4.2-1.2,5.9-3.2,5.1-5.8-.7-2.4-2.9-3.2-6.6-2.4l-1.3.4Z"/>
  <path class="cls-1" d="M503.1,244.5l-2.8.7c2.4,1.3,3.9,3.4,4.3,6.3.4,2.5,0,4.5-1.3,6-1.3,1.5-3.4,2.5-6.4,3l-15.5,2.5-1.2-7.5,15.2-2.4c1.2-.2,2.1-.6,2.6-1.2.5-.6.6-1.5.4-2.8-.2-1.5-1-2.5-2.2-3l-16.9,2.7-1.2-7.5,24-3.8,1.1,7Z"/>
  <path class="cls-1" d="M489,278.6c.6,0,1.1-.4,1.5-1.1s.7-2,1.1-3.9c.3-1.9.8-3.5,1.5-4.7.6-1.3,1.4-2.2,2.4-2.9s2.1-1,3.3-1.1c2.2,0,4.1.8,5.6,2.5,1.5,1.8,2.3,4.2,2.4,7.1.1,3.2-.5,5.8-1.9,7.8-1.4,2-3.2,3-5.6,3.1l-.3-7.6c1.9,0,2.9-1.1,2.8-3.2,0-.8-.3-1.5-.7-2s-1-.8-1.7-.7c-.7,0-1.2.4-1.6,1.1-.4.7-.7,1.7-.9,3.2-.2,1.5-.5,2.7-.8,3.8-1.1,3.7-3.3,5.6-6.5,5.7-2.2,0-4.1-.8-5.5-2.7-1.5-1.9-2.3-4.4-2.4-7.6,0-2.1.2-4,.9-5.6s1.7-3,2.9-3.9c1.3-1,2.6-1.5,4-1.5l.3,7.1c-1.1,0-1.9.5-2.4,1.2-.5.7-.7,1.7-.7,2.8,0,1,.3,1.8.7,2.3.4.5,1,.7,1.7.7Z"/>
  <path class="cls-1" d="M491.7,309.5l-11-1.6,1.1-7.8,32.4,4.7-1.9,12.9c-.4,2.5-1.1,4.6-2.3,6.4-1.2,1.8-2.7,3.1-4.5,3.9-1.8.8-3.8,1-6,.7-3.2-.5-5.5-2-7.1-4.5s-2.1-5.8-1.5-9.7l.7-5ZM497.8,310.4l-.7,5.1c-.2,1.5,0,2.7.6,3.6.6.9,1.6,1.5,3,1.7,1.5.2,2.8,0,3.8-.7,1-.7,1.6-1.7,1.9-3.1l.8-5.2-9.3-1.4Z"/>
  <path class="cls-1" d="M473.7,339.5c1-3.6,2.9-6.2,5.7-7.8,2.8-1.6,5.9-1.9,9.3-.9l.6.2c2.4.7,4.4,1.7,5.9,3.1,1.6,1.4,2.6,3.1,3.1,5.1s.4,4.1-.2,6.5c-.9,3.3-2.7,5.6-5.3,6.9-2.6,1.3-5.7,1.5-9.3.4l-2.8-.8,4.1-14.5c-1.4-.1-2.6.2-3.6.8-1,.7-1.7,1.7-2.1,3.1-.7,2.3-.4,4.3.9,6.1l-4.9,2.2c-1-1.3-1.6-2.8-1.9-4.7s-.1-3.8.4-5.7ZM492.6,344c.6-2.1-.4-3.8-3.1-5l-2.1,7.3.6.2c1.2.4,2.1.3,3-.1.8-.4,1.4-1.2,1.7-2.4Z"/>
  <path class="cls-1" d="M481.1,371.7l1.1-2.2c.9-2.2.8-3.9-.4-5.1l-14.3-5.7,2.8-7,22.5,9.1-2.6,6.6-3-.9c1.7,2.1,2.2,4.2,1.3,6.3-.3.8-.6,1.4-1,1.9l-6.5-2.7Z"/>
  <path class="cls-1" d="M481.4,403.7l-23-6.3,15.1,18.5-5.7,8.7-27.4-17.9,4.3-6.6,6.4,4.2,12.7,9.2-15.2-19.3,2.8-4.4,23.8,6.1-13.5-7.9-6.4-4.2,4.3-6.6,27.4,17.9-5.7,8.7Z"/>
  <path class="cls-1" d="M432.3,415.3l4.9-5.8,18.5,15.8-4.9,5.8-18.5-15.8ZM460.8,429c.8.7,1.2,1.6,1.3,2.6,0,1-.4,2-1.2,3-.8.9-1.7,1.5-2.8,1.6s-2-.1-2.8-.8-1.2-1.6-1.3-2.6c0-1,.4-2,1.2-3s1.7-1.5,2.8-1.6,2,.1,2.8.8Z"/>
  <path class="cls-1" d="M441.8,440.7l-2.2-1.9c.3,2.7-.6,5.1-2.7,7.2-1.8,1.8-3.7,2.5-5.6,2.3-2-.2-4-1.4-6.2-3.5l-10.9-11.2,5.4-5.3,10.7,11c.9.9,1.7,1.4,2.4,1.4.8,0,1.6-.4,2.5-1.3,1.1-1,1.4-2.2,1.1-3.6l-12-12.3,5.4-5.3,17,17.4-5.1,5Z"/>
  <path class="cls-1" d="M401.9,446.5c0-2.6,1.2-4.7,3.3-6.4,2.1-1.6,4.2-2.2,6.2-1.8,2,.4,3.9,1.8,5.7,4.1l9.5,12.6-6,4.6-9.5-12.6c-1.3-1.7-2.7-1.9-4.3-.7-1.4,1-2,2.3-1.8,3.7l10.3,13.6-6.1,4.6-14.7-19.4,5.7-4.3,1.8,2Z"/>
  <path class="cls-1" d="M399.7,481l-3.1-5.2-3.4,2.1-2.7-4.5,3.4-2.1-5.8-9.5c-.5-.8-.9-1.2-1.4-1.4-.5-.1-1.1,0-2,.6-.6.4-1.2.8-1.5,1.1l-2.8-4.6c.9-1.1,2-2,3.3-2.8,2.2-1.4,4.2-1.8,5.9-1.4,1.7.4,3.2,1.7,4.5,3.8l6.3,10.3,2.6-1.6,2.7,4.5-2.6,1.6,3.1,5.2-6.5,3.9Z"/>
  <path class="cls-1" d="M367.9,463c3.4-1.6,6.6-1.9,9.6-.9s5.3,3.1,6.9,6.3l.3.6c1.1,2.2,1.6,4.4,1.6,6.5,0,2.1-.6,4-1.7,5.7-1.1,1.7-2.8,3.1-5,4.1-3.1,1.5-6,1.7-8.7.6-2.7-1.1-4.9-3.3-6.5-6.7l-1.3-2.7,13.6-6.5c-.8-1.1-1.8-1.8-3-2.1-1.2-.3-2.4-.1-3.7.5-2.2,1-3.5,2.6-4,4.7l-4.9-2.2c.3-1.6,1-3.1,2.3-4.5,1.2-1.4,2.7-2.6,4.5-3.5ZM377,480.1c2-1,2.6-2.9,1.7-5.7l-6.9,3.3.3.5c.5,1.1,1.2,1.8,2,2.1.9.3,1.8.2,2.9-.3Z"/>
  <path class="cls-1" d="M295.9,493.5l4.3-.2-.7-11.5,7.9-.4,1.8,32.7-12.8.7c-3.9.2-6.9-.5-9.2-2.1-2.3-1.6-3.5-4-3.7-7.1-.1-2.3.2-4.2,1.1-5.7.8-1.5,2.2-2.8,4.1-3.9l-7.6-12.8v-.3s8.4-.5,8.4-.5l6.4,11.2ZM300.5,499.3l-5,.3c-1.5,0-2.6.5-3.3,1.4-.7.8-1,1.9-.9,3.4,0,1.4.5,2.5,1.3,3.3.8.8,2,1.1,3.4,1l5-.3-.5-9Z"/>
  <path class="cls-1" d="M278.8,494.9c-.2,2.4-.8,4.5-1.9,6.4-1.1,1.8-2.5,3.2-4.4,4-1.8.9-3.9,1.2-6.3,1-3.6-.3-6.4-1.6-8.3-4-1.9-2.4-2.7-5.5-2.4-9.4v-.3c.3-3.8,1.6-6.7,3.9-8.8,2.3-2.1,5.2-2.9,8.8-2.7,3.4.3,6.1,1.5,8.1,3.7s2.8,5.1,2.7,8.7v1.3ZM271.3,493.9c.2-2.2,0-3.9-.7-5-.6-1.1-1.6-1.7-3-1.8-2.7-.2-4.2,1.8-4.6,5.9v.8c-.4,4.3.8,6.6,3.6,6.8,2.5.2,4-1.6,4.5-5.3v-1.4Z"/>
  <path class="cls-1" d="M239.8,508.5l1.1-5.9-3.9-.7.9-5.2,3.9.7,2-10.9c.2-.9.1-1.6-.1-2s-.9-.7-1.8-.9c-.7-.1-1.4-.2-1.9-.2l1-5.3c1.4-.2,2.9-.2,4.3.1,2.6.5,4.4,1.4,5.4,2.8,1,1.4,1.3,3.4.8,5.8l-2.1,11.9,3.1.5-.9,5.2-3.1-.5-1.1,5.9-7.5-1.3Z"/>
  <path class="cls-1" d="M225.9,473.8c.1.5.2,1.3,0,2.3,1.8-1.3,3.9-1.6,6.3-.9,2.2.6,3.9,1.8,5.1,3.6,1.2,1.8,1.5,3.7.9,5.7-.7,2.5-2.2,4.2-4.4,5-2.2.8-5.1.6-8.7-.4l-2.2-.6-.3,1.2c-.6,2.2,0,3.5,1.9,4,1.7.5,2.8-.1,3.3-1.8l7.3,2.1c-.6,2.3-2.1,3.8-4.4,4.7-2.3.9-5,.9-8,0-3-.8-5.1-2.2-6.5-4.2-1.3-1.9-1.6-4.2-1-6.7l2.9-10.4c.6-2.2.7-3.9.4-5.2v-.4c.1,0,7.4,2.1,7.4,2.1ZM229.1,479.9c-.9-.3-1.7-.3-2.4,0-.7.2-1.3.5-1.7,1l-1.1,3.7,2.1.6c2.5.7,4.1,0,4.8-2.3.2-.7.1-1.3-.2-1.8-.3-.5-.8-.9-1.5-1.1Z"/>
  <path class="cls-1" d="M197.1,495.8l2.2-5.6-3.7-1.5,1.9-4.9,3.7,1.5,4.1-10.4c.3-.9.4-1.5.2-2-.2-.5-.7-.9-1.6-1.2-.7-.3-1.3-.5-1.8-.6l2-5c1.4,0,2.8.4,4.2,1,2.4,1,4,2.2,4.7,3.8.7,1.6.6,3.6-.3,5.9l-4.4,11.2,2.9,1.1-1.9,4.9-2.9-1.1-2.2,5.6-7-2.8Z"/>
  <path class="cls-1" d="M192.1,459.6c3.3,1.7,5.5,4.1,6.5,7.1,1,3,.8,6.1-.9,9.3l-.3.6c-1.1,2.2-2.5,4-4.2,5.2-1.7,1.3-3.6,2-5.6,2.1-2,.1-4.2-.4-6.3-1.5-3-1.6-5-3.7-5.8-6.5-.8-2.8-.3-5.9,1.4-9.2l1.3-2.6,13.4,6.9c.4-1.3.3-2.6-.1-3.7s-1.3-2-2.6-2.7c-2.1-1.1-4.2-1.2-6.1-.3l-1.2-5.2c1.4-.7,3.1-1,5-.9s3.7.6,5.5,1.5ZM184.1,477.2c2,1,3.8.3,5.5-2.1l-6.8-3.5-.3.5c-.6,1.1-.7,2-.5,2.9.3.9.9,1.6,2,2.1Z"/>
  <path class="cls-1" d="M166.6,452.7c-.4.5-.4,1.2,0,1.8.3.7,1.2,1.7,2.5,3.1,1.3,1.4,2.3,2.7,3,4,.6,1.2,1,2.5,1,3.6s-.4,2.3-1.1,3.3c-1.2,1.9-3,2.9-5.4,3-2.3.2-4.7-.6-7.2-2.2-2.7-1.8-4.4-3.8-5.2-6.1s-.6-4.4.8-6.4l6.3,4.2c-1.1,1.6-.8,3,.9,4.1.7.4,1.3.6,2,.6s1.2-.4,1.6-.9c.4-.6.4-1.2,0-1.9-.3-.7-1-1.6-2-2.6-1-1-1.9-2-2.6-2.9-2.3-3.1-2.6-6-.8-8.7,1.2-1.8,3.1-2.8,5.5-2.9s4.9.8,7.5,2.5c1.7,1.2,3.1,2.5,4,4,.9,1.5,1.4,3.1,1.5,4.7,0,1.6-.3,3-1.1,4.1l-5.9-3.9c.6-1,.7-1.8.4-2.7-.3-.8-.9-1.6-1.9-2.2-.9-.6-1.6-.8-2.3-.8-.7,0-1.2.4-1.6.9Z"/>
  <path class="cls-1" d="M133.3,456.8c-.7.8-1.6,1.2-2.6,1.2-1,0-2-.4-2.9-1.3-.9-.8-1.4-1.8-1.6-2.8-.1-1,.2-2,.9-2.8.7-.8,1.6-1.2,2.6-1.2,1,0,2,.4,2.9,1.3.9.8,1.4,1.8,1.6,2.8.1,1-.2,2-.9,2.8ZM147.7,428.7l5.6,5.1-16.3,18.1-5.6-5.1,16.3-18.1Z"/>
  <path class="cls-1" d="M122.1,437.6l1.9-2.1c-2.8.3-5.1-.7-7.1-2.9-1.7-1.9-2.4-3.8-2.2-5.7.3-1.9,1.5-4,3.7-6.1l11.5-10.6,5.1,5.6-11.3,10.4c-.9.8-1.4,1.6-1.5,2.4s.3,1.6,1.2,2.6c1,1.1,2.2,1.5,3.5,1.2l12.6-11.6,5.1,5.6-17.9,16.5-4.8-5.2Z"/>
  <path class="cls-1" d="M83.5,401.3l5-3.2.2.3c1.5,2.4,3.3,4,5.4,4.8,2.1.8,4.3.8,6.6-.2-2.3-.5-4.2-1.9-5.6-4.1-1.5-2.4-1.8-4.9-1-7.4s2.7-4.7,5.5-6.5c1.8-1.1,3.6-1.7,5.6-1.8,2,0,3.9.3,5.6,1.3s3.2,2.4,4.4,4.2c1.2,2,1.9,4,2,6.1s-.4,4.1-1.6,6c-1.1,1.9-2.7,3.6-4.9,4.9l-2.6,1.6c-2.8,1.8-5.8,2.8-8.8,3-3,.2-5.9-.4-8.6-1.9-2.7-1.5-5-3.6-6.7-6.3l-.6-1ZM101.5,398c.5.8,1.2,1.4,1.9,1.8s1.5.4,2.2.4l1.9-1.2c3.5-2.2,4.5-4.5,3-6.9-.6-1-1.6-1.5-2.9-1.6-1.3-.1-2.6.3-3.9,1.1-1.4.9-2.2,1.9-2.7,3.1-.4,1.2-.3,2.4.4,3.5Z"/>
  <path class="cls-1" d="M90.1,369c2,.9,3.5,2.2,4.3,4,1.2,2.7,1.3,5.2.2,7.7-1.1,2.4-3.2,4.3-6.2,5.7-1.9.9-3.9,1.3-5.9,1.1-2-.1-3.9-.8-5.6-1.9-1.7-1.2-3-2.7-3.9-4.6-.9-2-1.2-4-1-6,.3-2,1.1-3.9,2.5-5.6s3.3-3.1,5.6-4.2l2.6-1.2c3.3-1.5,6.4-2.2,9.4-2,3,.2,5.7,1.1,8.1,2.9s4.3,4.3,5.8,7.4l.2.4-5.5,2.5-.6-1.3c-2.4-4.6-5.8-6.3-10-4.9ZM88.5,373.5c-.7-1.5-1.8-2.3-3.4-2.3l-2.9,1.3c-1.9.9-3.2,1.9-3.8,2.9-.6,1.1-.7,2.1-.2,3.2.4,1,1.3,1.5,2.7,1.7,1.3.2,2.7,0,4.2-.8,1.5-.7,2.6-1.6,3.2-2.7.6-1.1.6-2.2.1-3.4Z"/>
  <path class="cls-1" d="M93.4,343.1l-31.8,7.8-2.5-10.2c-.7-2.8-.7-5.5,0-8s2.1-4.7,4.1-6.6c2-1.8,4.5-3.1,7.3-3.8l1.5-.4c2.9-.7,5.7-.7,8.3,0s4.8,2,6.7,3.9c1.8,1.9,3.1,4.2,3.8,7l2.6,10.5ZM65.7,341.7l20-4.9-.7-2.7c-.5-2.2-1.7-3.7-3.6-4.5-1.9-.8-4.3-.8-7.4,0l-1.4.3c-3.1.8-5.2,1.9-6.5,3.5s-1.6,3.5-1.1,5.7l.6,2.6Z"/>
  <path class="cls-1" d="M85.5,301.8c-.5.3-1.2.6-2.1,1,1.9,1.2,3,3,3.2,5.5.2,2.3-.2,4.3-1.4,6s-2.8,2.7-4.9,3c-2.6.3-4.7-.5-6.3-2.3s-2.5-4.5-2.9-8.2l-.3-2.3h-1.3c-2.2.4-3.2,1.5-3,3.4.2,1.8,1.2,2.6,2.9,2.4l.8,7.5c-2.3.3-4.3-.5-6-2.4-1.7-1.8-2.7-4.3-3-7.4-.3-3.1.1-5.6,1.5-7.5s3.3-3.1,5.9-3.4l10.7-1.2c2.2-.3,3.9-.8,5-1.6h.4s.8,7.5.8,7.5ZM81.1,307c-.1-.9-.4-1.7-.9-2.3-.5-.6-1-1-1.5-1.2l-3.9.4.2,2.2c.3,2.6,1.6,3.8,4,3.5.7,0,1.2-.4,1.6-.9.4-.5.5-1.1.4-1.8Z"/>
  <path class="cls-1" d="M74.2,282.2l-13.6-4.3v-8.1c.1,0,28.3,10.4,28.3,10.4l1,.4c3.1,1.5,4.7,4,4.6,7.5,0,1-.2,2-.5,3.1h-5.4c0,0,0-1.1,0-1.1,0-1.1-.1-1.9-.4-2.4-.3-.6-.8-1-1.6-1.3l-1.6-.6-24.7,8v-8.1c.1,0,13.9-3.6,13.9-3.6Z"/>
  <path class="cls-1" d="M79.8,255.6c-.6,0-1.2.2-1.7.8-.5.6-1,1.8-1.7,3.7-.6,1.8-1.4,3.3-2.2,4.4-.8,1.1-1.8,2-2.8,2.5s-2.2.7-3.4.6c-2.2-.3-3.9-1.4-5.1-3.4s-1.6-4.5-1.3-7.4c.4-3.2,1.4-5.7,3.1-7.4s3.7-2.5,6-2.2l-.9,7.5c-1.9-.2-3,.7-3.3,2.7,0,.8,0,1.5.4,2.1.4.6.9.9,1.5,1,.7,0,1.3-.2,1.7-.8.5-.6,1-1.6,1.4-3s.9-2.6,1.4-3.7c1.7-3.5,4.1-5,7.4-4.6,2.2.3,3.9,1.5,5,3.6,1.1,2.1,1.5,4.7,1.2,7.8-.2,2.1-.8,3.9-1.8,5.4-.9,1.5-2.1,2.7-3.5,3.4-1.4.8-2.8,1-4.2.9l.8-7c1.1.1,2-.2,2.6-.8.6-.7,1-1.5,1.1-2.6.1-1,0-1.8-.3-2.4-.4-.6-.9-.9-1.5-1Z"/>
  <path class="cls-1" d="M95.1,219.9l-2.2,7.3-23.1-7.1v7.8c-.1,0-5.6-1.7-5.6-1.7l-.5-15.2.2-.7,31.3,9.6Z"/>
  <path class="cls-1" d="M104.9,196.2l-3.2,6.9-22-10-1.1,7.7-5.2-2.4,1.4-15.1.3-.6,29.8,13.6Z"/>
  <path class="cls-1" d="M130.4,156.1l-4.6,6.4-11.1-8-6.8,9.4,11.1,8-4.6,6.4-26.5-19.2,4.6-6.4,10.5,7.6,6.8-9.4-10.5-7.6,4.6-6.4,26.5,19.2Z"/>
  <path class="cls-1" d="M123.3,145.6c-1.7-1.7-3-3.5-3.7-5.5s-.8-4-.3-6c.5-2,1.6-3.8,3.2-5.5,2.5-2.6,5.3-3.9,8.4-3.9,3.1,0,6,1.4,8.8,4.1l.2.2c2.7,2.6,4.2,5.5,4.3,8.5.1,3.1-1,5.9-3.5,8.5-2.4,2.5-5.1,3.8-8,3.8-2.9,0-5.8-1.1-8.4-3.4l-.9-.9ZM128.8,140.5c1.6,1.6,3,2.4,4.3,2.7,1.2.2,2.3-.2,3.3-1.2,1.9-1.9,1.3-4.4-1.6-7.3l-.6-.5c-3.1-3-5.7-3.5-7.6-1.5-1.8,1.8-1.4,4.1,1.2,6.9l1,1Z"/>
  <path class="cls-1" d="M159.9,124.6c0,2.6-1,4.8-3.1,6.5-2.1,1.7-4.1,2.3-6.2,2-2-.3-4-1.6-5.8-3.9l-9.9-12.2,5.9-4.8,9.9,12.3c1.3,1.6,2.7,1.8,4.3.5,1.4-1.1,1.9-2.4,1.7-3.8l-10.7-13.3,5.9-4.8,15.3,18.9-5.5,4.5-1.8-1.9Z"/>
  <path class="cls-1" d="M172.9,97.6l-2.2,1.2c-2,1.3-2.9,2.8-2.6,4.4l8.4,12.9-6.4,4.1-13.2-20.4,6-3.9,1.9,2.5c-.2-2.7.6-4.7,2.5-5.9.7-.4,1.3-.7,1.9-.9l3.7,6Z"/>
  <path class="cls-1" d="M192.2,99.3c-.3-.6-.8-.9-1.6-.9s-2.1.2-4,.7-3.5.7-4.9.7c-1.4,0-2.6-.4-3.6-.9-1-.6-1.8-1.4-2.4-2.5-1-2-1-4,0-6.2s2.8-3.9,5.4-5.2c2.8-1.5,5.5-2,7.9-1.6,2.4.4,4.1,1.7,5.2,3.8l-6.7,3.5c-.9-1.7-2.2-2.1-4.1-1.2-.7.4-1.2.9-1.5,1.5-.3.6-.3,1.3,0,1.8.3.6.9.9,1.6,1,.8,0,1.9-.1,3.3-.5,1.4-.4,2.7-.7,3.8-.9,3.8-.6,6.5.6,8,3.5,1,2,1,4-.1,6.2s-3.1,3.9-5.8,5.4c-1.9,1-3.7,1.5-5.5,1.6-1.8,0-3.4-.2-4.8-1s-2.4-1.7-3.1-3l6.3-3.2c.5,1,1.2,1.5,2.1,1.7.9.1,1.8,0,2.8-.6.9-.5,1.5-1,1.8-1.6.3-.6.2-1.2,0-1.8Z"/>
</svg>