<?xml version="1.0" encoding="UTF-8"?>
<svg id="Layer_1" data-name="Layer 1" xmlns="http://www.w3.org/2000/svg" version="1.1" viewBox="0 0 566.9 566.9">
  <defs>
    <style>
      .cls-1 {
        fill: #000;
        stroke-width: 0px;
      }
    </style>
  </defs>
  <path class="cls-1" d="M88.2,218.4c.4-1.1,1-2,2-2.5.9-.5,1.9-.6,3-.3,1.1.3,1.8,1,2.2,2,.4,1,.4,2,0,3.2-.4,1.2-1,2-2,2.5-.9.5-1.9.6-3,.3-1-.3-1.8-1-2.2-2s-.5-2,0-3.2Z"/>
  <path class="cls-1" d="M94.7,186.5c4,1.8,6.7,4.1,8.1,6.9,1.4,2.8,1.3,5.8-.1,9.1-1.5,3.3-3.7,5.4-6.7,6.2-3,.8-6.5.4-10.5-1.4l-5.5-2.4c-4-1.8-6.7-4.1-8.1-6.9-1.4-2.8-1.3-5.8.1-9.1,1.5-3.3,3.7-5.4,6.7-6.2,3-.8,6.5-.4,10.6,1.4l5.4,2.4ZM85.3,190.6c-2.1-1-3.9-1.4-5.2-1.3-1.3,0-2.2.7-2.8,2-.5,1.2-.4,2.3.3,3.3.7,1,2.1,1.9,4.1,2.9l7.6,3.4c2.2,1,4,1.4,5.3,1.3,1.3-.1,2.2-.8,2.7-2,.5-1.2.4-2.3-.3-3.3-.8-1-2.2-2-4.3-3l-7.4-3.3Z"/>
  <path class="cls-1" d="M117.1,175.1l-4,6.5-20.6-12.6-2,7.5-4.9-3,3.3-14.8.4-.6,27.9,17.1Z"/>
  <path class="cls-1" d="M128.4,141.6l-2.9,3.1,8.5,7.8-5.3,5.8-24.1-22.1,8.7-9.5c2.6-2.9,5.3-4.5,8-5,2.7-.5,5.3.4,7.6,2.5,1.7,1.5,2.8,3.1,3.2,4.8s.4,3.6-.2,5.6l14.4,3.9.2.2-5.7,6.2-12.4-3.5ZM121.1,140.7l3.4-3.7c1-1.1,1.5-2.2,1.4-3.3,0-1.1-.6-2.1-1.7-3.1s-2.1-1.4-3.2-1.4c-1.1,0-2.2.6-3.2,1.7l-3.4,3.7,6.6,6.1Z"/>
  <path class="cls-1" d="M139.7,128.6c-1.6-1.9-2.6-3.8-3.1-5.9-.5-2.1-.4-4,.3-6,.7-1.9,2-3.6,3.8-5.2,2.8-2.3,5.7-3.3,8.8-2.9,3.1.4,5.8,2.1,8.3,5l.2.2c2.4,2.9,3.5,5.9,3.4,8.9-.2,3.1-1.7,5.7-4.4,8-2.7,2.2-5.5,3.2-8.4,3-2.9-.2-5.6-1.7-8-4.3l-.8-1ZM145.8,124.1c1.4,1.7,2.8,2.8,4,3.1,1.2.4,2.3,0,3.4-.8,2.1-1.7,1.8-4.2-.8-7.4l-.5-.6c-2.8-3.3-5.3-4.1-7.4-2.3-1.9,1.6-1.8,3.9.5,7l.9,1.1Z"/>
  <path class="cls-1" d="M158.1,91.7l3.4,5,3.3-2.2,2.9,4.4-3.3,2.2,6.2,9.2c.5.8,1,1.2,1.5,1.3.5.1,1.1-.1,1.9-.6.6-.4,1.1-.8,1.5-1.2l3,4.5c-.9,1.1-1.9,2.1-3.2,2.9-2.2,1.5-4.1,2-5.8,1.7-1.7-.3-3.3-1.5-4.7-3.6l-6.8-10-2.6,1.7-2.9-4.4,2.6-1.7-3.4-5,6.3-4.2Z"/>
  <path class="cls-1" d="M192.3,106.8c-.5-.3-1-.8-1.7-1.6-.4,2.2-1.7,3.9-3.9,5.1-2,1.1-4.1,1.4-6.1,1-2.1-.5-3.6-1.6-4.6-3.4-1.3-2.3-1.4-4.5-.3-6.6,1.1-2.1,3.2-4.1,6.5-5.8l2.1-1.1-.6-1.1c-1.1-2-2.5-2.5-4.2-1.6-1.6.9-1.9,2.1-1.1,3.6l-6.7,3.6c-1.1-2.1-1.2-4.2,0-6.5s2.9-4.1,5.7-5.6c2.7-1.5,5.2-2,7.5-1.5,2.3.5,4.1,1.9,5.4,4.1l5.1,9.5c1.1,1.9,2.2,3.3,3.4,4l.2.3-6.7,3.6ZM185.8,104.7c.8-.5,1.4-1,1.8-1.7.4-.7.5-1.3.5-1.8l-1.9-3.4-1.9,1.1c-2.3,1.3-2.9,2.9-1.8,5,.3.6.8,1,1.4,1.1s1.2,0,1.9-.3Z"/>
  <path class="cls-1" d="M197.5,71l2.4,5.6,3.7-1.6,2,4.8-3.7,1.6,4.3,10.2c.4.8.8,1.4,1.2,1.6s1.1.1,2-.3c.7-.3,1.3-.6,1.7-.9l2.1,5c-1.1.9-2.3,1.7-3.7,2.3-2.4,1-4.4,1.2-6,.6-1.6-.6-2.9-2.1-3.9-4.4l-4.7-11.1-2.9,1.2-2-4.8,2.9-1.2-2.4-5.6,7-2.9Z"/>
  <path class="cls-1" d="M205.4,67.7c-.4-1-.3-2,.2-2.9.5-.9,1.4-1.6,2.5-2,1.2-.4,2.2-.4,3.2,0,1,.4,1.6,1.1,2,2.1.3,1,.3,2-.2,2.9s-1.4,1.6-2.5,2c-1.2.4-2.2.4-3.2,0-1-.4-1.6-1.1-2-2.1ZM222.9,94l-7.2,2.5-7.9-23,7.2-2.5,7.9,23Z"/>
  <path class="cls-1" d="M222.7,80.8c-.6-2.4-.6-4.6-.1-6.6.5-2.1,1.4-3.8,2.9-5.2,1.5-1.4,3.4-2.4,5.7-2.9,3.5-.9,6.6-.4,9.2,1.3,2.6,1.7,4.3,4.4,5.2,8.2v.3c1,3.7.6,6.9-.9,9.5s-4,4.4-7.5,5.2c-3.4.8-6.3.5-8.8-1.1-2.5-1.5-4.3-4-5.3-7.4l-.3-1.2ZM230.2,79.5c.5,2.2,1.3,3.7,2.2,4.6.9.9,2.1,1.1,3.4.8,2.6-.6,3.5-3,2.6-7l-.2-.7c-1-4.2-2.9-6-5.6-5.4-2.5.6-3.4,2.7-2.7,6.4l.3,1.3Z"/>
  <path class="cls-1" d="M255,62l.6,2.8c1.4-2.4,3.6-3.7,6.5-4.1,2.5-.3,4.5.3,5.9,1.6s2.3,3.6,2.7,6.6l1.7,15.6-7.5.8-1.7-15.2c-.1-1.2-.5-2.1-1-2.6-.6-.5-1.5-.7-2.8-.6-1.5.2-2.5.9-3.1,2.1l1.9,17.1-7.5.8-2.7-24.2,7.1-.8Z"/>
  <path class="cls-1" d="M288.5,77.7c0-.6-.3-1.2-1-1.6-.7-.4-1.9-.8-3.8-1.3-1.9-.4-3.4-1-4.6-1.7s-2.1-1.5-2.8-2.5c-.6-1-.9-2.1-.9-3.4,0-2.2,1-4.1,2.9-5.5,1.9-1.4,4.3-2.1,7.3-2,3.2,0,5.8.8,7.7,2.3s2.9,3.4,2.8,5.8h-7.6c0-2.1-1-3.1-3-3.1-.8,0-1.5.2-2,.6-.5.4-.8,1-.8,1.6,0,.7.3,1.2,1,1.7.7.4,1.7.8,3.1,1.1s2.7.6,3.8,1c3.6,1.3,5.4,3.6,5.4,6.8,0,2.2-1,4-3,5.4-2,1.4-4.6,2-7.7,2-2.1,0-3.9-.4-5.6-1.2-1.6-.8-2.9-1.8-3.8-3.1-.9-1.3-1.3-2.7-1.3-4.1h7.1c0,1.2.4,2.1,1.1,2.6.7.5,1.6.8,2.8.8,1,0,1.8-.2,2.3-.6s.8-1,.8-1.6Z"/>
  <path class="cls-1" d="M319.5,76.4l-2.1,10.9-7.7-1.5,6.2-32.1,12.8,2.5c2.5.5,4.5,1.3,6.3,2.6s2.9,2.8,3.6,4.7c.7,1.9.9,3.9.5,6-.6,3.1-2.2,5.4-4.8,6.9-2.6,1.4-5.9,1.8-9.8,1l-4.9-1ZM320.6,70.4l5.1,1c1.5.3,2.7.1,3.6-.5.9-.6,1.5-1.6,1.8-2.9.3-1.5.1-2.8-.5-3.8-.6-1.1-1.6-1.7-3-2l-5.2-1-1.8,9.3Z"/>
  <path class="cls-1" d="M348.6,95.8c-3.5-1.2-6-3.2-7.5-6.1-1.5-2.8-1.6-6-.5-9.3l.2-.6c.8-2.4,1.9-4.3,3.4-5.8,1.5-1.5,3.2-2.5,5.2-2.9s4.2-.2,6.5.5c3.2,1.1,5.5,3,6.6,5.6,1.2,2.6,1.2,5.8,0,9.3l-.9,2.8-14.3-4.8c-.2,1.4,0,2.6.7,3.6.6,1,1.6,1.8,3,2.2,2.3.8,4.3.6,6.1-.6l2,5c-1.3.9-2.9,1.5-4.8,1.7-1.9.2-3.8,0-5.7-.7ZM354,77.1c-2.1-.7-3.8.3-5.2,2.9l7.2,2.4.2-.6c.4-1.1.4-2.1,0-3-.4-.8-1.2-1.4-2.3-1.8Z"/>
  <path class="cls-1" d="M381.1,89.9l-2.2-1.2c-2.2-1-3.9-.9-5.1.1l-6.4,14-6.9-3.1,10.1-22.1,6.5,3-1.1,2.9c2.1-1.6,4.3-2,6.3-1,.7.3,1.3.7,1.8,1.1l-3,6.3Z"/>
  <path class="cls-1" d="M413.1,91.1l-7.4,22.7,19.2-14.2,8.4,6.1-19.1,26.5-6.4-4.6,4.5-6.2,9.8-12.2-20,14.3-4.2-3,7.2-23.5-8.5,13.1-4.5,6.2-6.4-4.6,19.1-26.5,8.4,6.1Z"/>
  <path class="cls-1" d="M422.4,140.7l-5.5-5.2,16.6-17.7,5.5,5.2-16.6,17.7ZM437.4,112.8c.7-.8,1.6-1.2,2.7-1.1s2,.5,2.9,1.3c.9.8,1.4,1.8,1.5,2.8,0,1-.2,1.9-1,2.7-.7.8-1.6,1.2-2.7,1.1-1,0-2-.5-2.9-1.3-.9-.8-1.4-1.8-1.5-2.8,0-1,.2-1.9,1-2.7Z"/>
  <path class="cls-1" d="M448.1,132.3l-2,2.1c2.8-.2,5.1.8,7.1,3,1.7,1.9,2.4,3.8,2.1,5.7-.3,1.9-1.6,3.9-3.8,6l-11.7,10.4-5-5.7,11.5-10.2c.9-.8,1.4-1.6,1.5-2.4.1-.8-.3-1.6-1.1-2.6-1-1.1-2.2-1.5-3.5-1.3l-12.8,11.4-5-5.7,18.2-16.1,4.7,5.3Z"/>
  <path class="cls-1" d="M452.1,172.5c-2.6-.2-4.7-1.4-6.2-3.6-1.5-2.2-2-4.3-1.5-6.3.5-2,2-3.8,4.3-5.5l13-8.9,4.3,6.2-13,8.9c-1.7,1.2-2,2.6-.9,4.3,1,1.4,2.2,2.1,3.6,2l14.1-9.6,4.3,6.3-20,13.7-4-5.9,2-1.7Z"/>
  <path class="cls-1" d="M486.5,176.3l-5.3,2.9,1.9,3.5-4.6,2.5-1.9-3.5-9.8,5.3c-.8.4-1.3.9-1.4,1.3-.2.5,0,1.1.5,2,.4.7.7,1.2,1,1.6l-4.8,2.6c-1-1-1.9-2.1-2.6-3.4-1.2-2.3-1.6-4.3-1.2-5.9.5-1.7,1.8-3.1,4-4.3l10.6-5.8-1.5-2.7,4.6-2.5,1.5,2.7,5.3-2.9,3.6,6.6Z"/>
  <path class="cls-1" d="M467.1,207.2c-1.5-3.4-1.6-6.6-.5-9.6,1.1-3,3.4-5.2,6.6-6.6l.6-.2c2.3-1,4.5-1.4,6.6-1.3,2.1.1,4,.8,5.6,2s2.9,2.9,3.9,5.2c1.3,3.1,1.4,6,.2,8.7-1.2,2.6-3.5,4.7-7,6.2l-2.7,1.1-5.9-13.9c-1.1.8-1.9,1.7-2.3,2.9-.4,1.1-.3,2.4.3,3.7.9,2.2,2.4,3.6,4.5,4.2l-2.4,4.8c-1.6-.4-3-1.2-4.4-2.5-1.4-1.3-2.5-2.9-3.2-4.7ZM484.6,198.9c-.9-2-2.7-2.7-5.6-1.9l3,7,.5-.2c1.1-.4,1.9-1.1,2.2-1.9s.3-1.8-.2-2.9Z"/>
  <path class="cls-1" d="M491.6,316.4l.7-4.2-11.4-1.8,1.2-7.8,32.3,5.2-2,12.7c-.6,3.8-1.9,6.7-4,8.6-2,1.9-4.6,2.6-7.7,2.1-2.2-.4-4-1.1-5.4-2.3-1.3-1.1-2.3-2.8-2.9-4.8l-14.1,4.7h-.3c0,0,1.3-8.4,1.3-8.4l12.3-3.9ZM498.2,313.1l-.8,4.9c-.2,1.5,0,2.7.6,3.5.7.9,1.7,1.4,3.1,1.6,1.4.2,2.5,0,3.5-.6.9-.6,1.5-1.7,1.7-3.1l.8-4.9-8.9-1.4Z"/>
  <path class="cls-1" d="M489.3,333.4c2.3.7,4.3,1.8,5.8,3.2,1.5,1.5,2.5,3.2,3,5.2.5,2,.3,4.1-.3,6.4-1.1,3.5-3,5.9-5.7,7.2s-6,1.5-9.7.3h-.3c-3.6-1.2-6.2-3.1-7.7-5.7s-1.8-5.7-.7-9.1c1-3.3,2.8-5.7,5.4-7.1s5.6-1.7,9.1-.8l1.2.4ZM486.7,340.5c-2.1-.7-3.8-.8-5-.4-1.2.4-2,1.2-2.4,2.5-.8,2.6.8,4.5,4.8,5.8l.7.2c4.2,1.3,6.7.6,7.5-2.1.7-2.4-.7-4.3-4.2-5.6l-1.3-.4Z"/>
  <path class="cls-1" d="M494.1,374.4l-5.6-2.3-1.5,3.7-4.8-2,1.5-3.7-10.3-4.3c-.8-.4-1.5-.4-2-.3s-.9.7-1.3,1.6c-.3.7-.5,1.3-.6,1.8l-5-2.1c.1-1.4.5-2.8,1-4.2,1-2.4,2.3-3.9,3.9-4.6,1.6-.7,3.6-.5,5.9.4l11.1,4.7,1.2-2.9,4.8,2-1.2,2.9,5.6,2.3-2.9,7Z"/>
  <path class="cls-1" d="M457.3,380.5c.6,0,1.3.1,2.3.4-.9-2.1-.7-4.2.5-6.4,1.1-2,2.6-3.4,4.6-4.2,2-.8,3.9-.6,5.7.4,2.3,1.2,3.6,3.1,3.9,5.4.3,2.4-.5,5.2-2.2,8.4l-1.1,2.1,1.1.6c2,1.1,3.4.7,4.3-1,.9-1.6.5-2.8-1.1-3.6l3.6-6.7c2.1,1.1,3.3,2.9,3.6,5.4.3,2.5-.2,5-1.7,7.8-1.5,2.7-3.3,4.5-5.5,5.4-2.2.9-4.4.7-6.8-.5l-9.5-5.1c-2-1-3.6-1.5-5-1.5l-.3-.2,3.6-6.7ZM463.8,378.7c-.4.8-.6,1.6-.6,2.4,0,.7.3,1.3.6,1.8l3.4,1.8,1-1.9c1.2-2.3.8-4-1.2-5.2-.6-.3-1.2-.4-1.8-.2s-1.1.6-1.4,1.3Z"/>
  <path class="cls-1" d="M472.5,413.3l-5-3.4-2.2,3.3-4.4-2.9,2.2-3.3-9.2-6.2c-.8-.5-1.4-.7-1.9-.7-.5,0-1,.5-1.5,1.3-.4.6-.7,1.2-.9,1.6l-4.5-3c.4-1.4,1-2.7,1.8-3.9,1.5-2.2,3-3.4,4.7-3.8,1.7-.3,3.6.2,5.7,1.6l10,6.7,1.7-2.6,4.4,2.9-1.7,2.6,5,3.4-4.2,6.3Z"/>
  <path class="cls-1" d="M436,410.4c2.4-2.9,5.2-4.5,8.3-4.9s6.1.6,8.9,2.9l.5.4c1.9,1.6,3.3,3.3,4.2,5.3.9,1.9,1.2,3.9.8,5.9-.3,2-1.3,4-2.8,5.8-2.2,2.6-4.7,4-7.6,4.2s-5.8-.9-8.7-3.4l-2.3-1.9,9.6-11.6c-1.2-.7-2.4-.9-3.6-.7-1.2.2-2.2.9-3.2,2-1.5,1.8-2.1,3.8-1.6,5.9h-5.4c-.4-1.5-.4-3.2.2-5,.5-1.8,1.4-3.5,2.7-5ZM451.5,422.1c1.4-1.7,1.1-3.7-.9-5.9l-4.9,5.9.5.4c.9.8,1.8,1.2,2.8,1.1.9,0,1.8-.6,2.5-1.5Z"/>
  <path class="cls-1" d="M423.8,433.8c.4.5,1,.6,1.8.4.8-.2,2-.8,3.6-1.8,1.7-1,3.2-1.7,4.5-2,1.4-.4,2.6-.4,3.7-.1,1.1.3,2.1.8,3,1.7,1.5,1.6,2.2,3.6,1.8,5.9-.3,2.3-1.6,4.5-3.7,6.6-2.3,2.2-4.7,3.5-7.1,3.8-2.4.3-4.4-.4-6.1-2.1l5.5-5.3c1.3,1.4,2.8,1.4,4.2,0,.6-.5.9-1.2,1-1.9,0-.7-.1-1.3-.6-1.8-.5-.5-1.1-.7-1.8-.5-.8.2-1.8.6-3,1.4-1.2.8-2.4,1.5-3.4,1.9-3.5,1.6-6.4,1.3-8.6-1.1-1.5-1.6-2.1-3.6-1.6-6,.5-2.4,1.8-4.6,4.1-6.8,1.5-1.4,3.1-2.5,4.8-3,1.7-.6,3.3-.7,4.9-.4,1.5.3,2.8,1,3.8,2l-5.1,4.9c-.8-.8-1.6-1.1-2.5-1-.9.1-1.7.6-2.5,1.4-.7.7-1.2,1.4-1.2,2.1s.1,1.2.6,1.7Z"/>
  <path class="cls-1" d="M396.4,447.1l6.2-4.4,14.1,19.8-6.2,4.4-14.1-19.8ZM420.7,467.3c.6.9.8,1.8.6,2.8-.2,1-.9,1.9-1.9,2.6s-2,1-3.1.9-1.9-.6-2.5-1.5c-.6-.9-.8-1.8-.6-2.8.2-1,.9-1.9,1.9-2.6,1-.7,2-1,3.1-.9,1,.1,1.9.6,2.5,1.5Z"/>
  <path class="cls-1" d="M399.5,474l-1.7-2.3c-.3,2.7-1.8,4.9-4.3,6.3-2.2,1.3-4.2,1.6-6,.9-1.8-.7-3.5-2.3-5.1-4.9l-7.9-13.5,6.6-3.8,7.7,13.3c.6,1.1,1.3,1.7,2,2,.7.2,1.6,0,2.8-.6,1.3-.7,1.9-1.8,2-3.2l-8.6-14.8,6.5-3.8,12.2,21-6.1,3.6Z"/>
  <path class="cls-1" d="M345.9,472.2l7.1-2.6,8.2,22.7,6.3-4.6,1.9,5.4-11.8,9.5-.7.2-11-30.8Z"/>
  <path class="cls-1" d="M299.4,481.8l7.8-1.1,2,13.5,11.5-1.7-2-13.5,7.8-1.1,4.7,32.4-7.8,1.1-1.9-12.8-11.5,1.7,1.9,12.8-7.8,1.1-4.7-32.4Z"/>
  <path class="cls-1" d="M297,494.1c0,2.4-.4,4.6-1.3,6.5-.9,1.9-2.2,3.4-4,4.4-1.8,1-3.8,1.6-6.2,1.6-3.6,0-6.5-1-8.7-3.2-2.1-2.2-3.2-5.3-3.3-9.1v-.3c0-3.8.9-6.8,3-9.1,2.1-2.3,4.9-3.4,8.5-3.5,3.5,0,6.3.9,8.4,3,2.1,2,3.3,4.8,3.5,8.4v1.3ZM289.4,493.8c0-2.2-.4-3.9-1.1-4.9-.7-1-1.8-1.5-3.1-1.5-2.7,0-4,2.1-4,6.3v.8c0,4.4,1.5,6.5,4.3,6.5,2.5,0,3.9-1.9,4-5.7v-1.4Z"/>
  <path class="cls-1" d="M256.2,482.7c1.8-1.8,4.1-2.6,6.8-2.3,2.6.3,4.6,1.3,5.7,3,1.2,1.7,1.6,4,1.3,6.9l-1.9,15.6-7.5-.9,1.9-15.7c.2-2.1-.6-3.2-2.6-3.5-1.7-.2-3,.3-3.9,1.4l-2,16.9-7.6-.9,2.9-24.1,7,.8v2.6Z"/>
  <path class="cls-1" d="M227.8,492.2l2.4.7c2.3.5,4,.1,5-1.2l3.4-15,7.4,1.7-5.4,23.7-6.9-1.6.5-3.1c-1.8,2-3.8,2.8-6,2.3-.8-.2-1.5-.4-2-.7l1.7-6.8Z"/>
  <path class="cls-1" d="M196,475.9l-3.1-1.3,2.2-5.4,3.1,1.3,2.6-6.4,7,2.9-2.6,6.4,11.7,4.8-1.3,4.5-20.1,14.6h0c0,0-7-2.8-7-2.8l7.5-18.4ZM208.5,480.9l-5.4-2.2-3.8,9.3.7-.5,8.5-6.6Z"/>
  <path class="cls-1" d="M169.3,462.1c2.2-3.8,4.7-6.3,7.6-7.4,2.9-1.1,5.9-.8,9.1,1,3.2,1.8,5,4.2,5.6,7.3.5,3.1-.3,6.5-2.4,10.3l-3,5.2c-2.2,3.8-4.7,6.3-7.6,7.4-2.9,1.1-5.9.8-9.1-1s-5-4.2-5.5-7.3c-.5-3.1.3-6.5,2.5-10.4l2.9-5.2ZM172.5,471.9c-1.2,2-1.8,3.7-1.8,5,0,1.3.5,2.3,1.7,3,1.1.6,2.2.6,3.3,0,1-.6,2.1-1.9,3.2-3.8l4.1-7.3c1.2-2.1,1.8-3.8,1.8-5.1,0-1.3-.5-2.3-1.7-2.9-1.1-.6-2.2-.6-3.3,0-1.1.7-2.2,2-3.4,4l-4,7Z"/>
  <path class="cls-1" d="M134.4,460.1l9.8-21.8-20.6,12-7.7-6.9,21.9-24.3,5.9,5.3-5.1,5.7-11,11.1,21.5-12,3.9,3.5-9.7,22.6,9.9-12.1,5.1-5.7,5.9,5.3-21.9,24.3-7.7-6.9Z"/>
  <path class="cls-1" d="M112.6,435.8c-.8.7-1.7,1-2.8.8-1-.1-1.9-.7-2.8-1.6-.8-.9-1.2-1.9-1.2-3,0-1,.4-1.9,1.2-2.6.8-.7,1.7-1,2.8-.8,1,.1,2,.7,2.8,1.6.8.9,1.2,1.9,1.2,3,0,1-.4,1.9-1.2,2.6ZM130.6,409.8l4.9,5.8-18.4,15.8-4.9-5.8,18.4-15.8Z"/>
  <path class="cls-1" d="M104.1,415.2l2.2-1.9c-2.8,0-5-1.3-6.7-3.8-1.5-2.1-1.9-4-1.4-5.9s2-3.7,4.4-5.5l12.8-9.1,4.4,6.2-12.5,8.9c-1,.7-1.6,1.4-1.8,2.2-.2.7,0,1.6.9,2.7.9,1.2,2,1.8,3.3,1.7l14-9.9,4.4,6.2-19.8,14.1-4.1-5.8Z"/>
  <path class="cls-1" d="M104.5,374.8c2.6.4,4.5,1.9,5.8,4.3,1.3,2.4,1.5,4.5.8,6.4-.7,1.9-2.4,3.6-4.9,5l-13.9,7.4-3.6-6.7,13.9-7.4c1.8-1,2.3-2.4,1.3-4.1-.8-1.5-1.9-2.3-3.4-2.4l-15,8-3.6-6.7,21.4-11.5,3.3,6.3-2.2,1.4Z"/>
  <path class="cls-1" d="M70.7,367.3l5.6-2.3-1.5-3.7,4.9-2,1.5,3.7,10.3-4.2c.8-.3,1.4-.7,1.6-1.2s.1-1.1-.2-2c-.3-.7-.6-1.3-.8-1.7l5-2.1c.9,1.1,1.7,2.3,2.2,3.7,1,2.4,1.2,4.4.5,6s-2.2,2.9-4.5,3.8l-11.2,4.6,1.2,2.9-4.9,2-1.2-2.9-5.6,2.3-2.9-7Z"/>
  <path class="cls-1" d="M93.5,338.7c1.1,3.6.9,6.8-.6,9.6-1.5,2.8-3.9,4.8-7.3,5.8l-.6.2c-2.4.7-4.6.9-6.7.6-2.1-.3-3.9-1.2-5.4-2.6-1.5-1.4-2.6-3.3-3.3-5.6-1-3.3-.7-6.2.7-8.7,1.5-2.5,4-4.3,7.6-5.4l2.8-.8,4.3,14.4c1.2-.6,2.1-1.5,2.6-2.6.5-1.1.5-2.3.1-3.7-.7-2.3-2-3.8-4-4.7l2.9-4.5c1.5.5,2.9,1.5,4.1,3,1.2,1.4,2.1,3.1,2.7,5ZM75.2,345.1c.6,2.1,2.4,3,5.3,2.5l-2.2-7.3-.6.2c-1.2.3-2,.9-2.4,1.7s-.5,1.8-.2,2.9Z"/>
  <path class="cls-1" d="M80.8,315.5c-.6.1-1.1.5-1.4,1.3-.3.7-.4,2.1-.5,4,0,1.9-.4,3.6-.8,4.9s-1.1,2.4-2,3.2c-.8.8-1.9,1.3-3.1,1.5-2.2.4-4.2-.2-5.9-1.8-1.7-1.6-2.9-3.8-3.4-6.8-.5-3.2-.3-5.8.8-8s2.8-3.5,5.1-3.9l1.3,7.5c-1.9.3-2.7,1.5-2.4,3.5.1.8.5,1.4,1,1.9.5.5,1.1.6,1.8.5.7-.1,1.1-.5,1.4-1.3s.5-1.8.5-3.3c0-1.5.1-2.8.3-3.9.6-3.8,2.5-6,5.7-6.6,2.2-.4,4.1.3,5.8,2s2.8,4.1,3.4,7.2c.4,2.1.3,3.9-.2,5.7-.5,1.7-1.2,3.2-2.4,4.3-1.1,1.1-2.4,1.8-3.8,2l-1.2-7c1.1-.2,1.8-.7,2.2-1.5.4-.8.5-1.7.3-2.9-.2-1-.5-1.7-1-2.2-.5-.4-1.1-.6-1.7-.5Z"/>
</svg>