<?xml version="1.0" encoding="UTF-8"?>
<svg id="Layer_1" data-name="Layer 1" xmlns="http://www.w3.org/2000/svg" version="1.1" viewBox="0 0 566.9 566.9">
  <defs>
    <style>
      .cls-1 {
        fill: #000;
        stroke-width: 0px;
      }
    </style>
  </defs>
  <path class="cls-1" d="M96,198.3c.5-1.1,1.2-1.9,2.2-2.3,1-.4,2-.4,3,0s1.7,1.2,2,2.2c.3,1,.2,2.1-.3,3.2-.5,1.1-1.2,1.9-2.2,2.3-1,.4-2,.4-3,0-1-.5-1.7-1.2-2-2.2-.3-1-.2-2.1.3-3.2Z"/>
  <path class="cls-1" d="M114.4,179.1l-3.8,6.6-20.9-12.1-1.8,7.5-5-2.9,2.9-14.9.3-.6,28.3,16.4Z"/>
  <path class="cls-1" d="M125,145.5l-2.8,3.2,8.7,7.6-5.2,5.9-24.7-21.5,8.5-9.7c2.5-2.9,5.2-4.6,7.9-5.2,2.7-.5,5.3.3,7.7,2.3,1.7,1.5,2.8,3.1,3.4,4.8.5,1.7.5,3.6,0,5.6l14.4,3.5.3.2-5.5,6.4-12.5-3.2ZM117.6,144.7l3.3-3.8c1-1.1,1.4-2.2,1.3-3.3,0-1.1-.7-2.1-1.7-3-1.1-.9-2.1-1.4-3.3-1.3-1.1,0-2.1.6-3.1,1.7l-3.3,3.8,6.8,5.9Z"/>
  <path class="cls-1" d="M135.9,132.2c-1.6-1.8-2.7-3.8-3.2-5.8-.5-2-.5-4,.2-6,.7-1.9,1.9-3.7,3.7-5.2,2.7-2.4,5.6-3.4,8.7-3.1,3.1.3,5.9,1.9,8.4,4.8l.2.2c2.5,2.8,3.7,5.8,3.6,8.9-.1,3.1-1.5,5.8-4.2,8.1-2.6,2.3-5.4,3.3-8.3,3.2-2.9-.2-5.6-1.5-8.1-4.1l-.9-.9ZM141.9,127.6c1.5,1.7,2.8,2.7,4.1,3s2.3,0,3.4-.9c2-1.8,1.7-4.2-1-7.4l-.5-.6c-2.9-3.3-5.4-4-7.5-2.2-1.9,1.7-1.7,4,.6,6.9l.9,1Z"/>
  <path class="cls-1" d="M153.5,94.9l3.5,4.9,3.3-2.3,3.1,4.3-3.3,2.3,6.5,9.1c.5.7,1,1.2,1.5,1.3.5.1,1.1-.1,1.9-.7.6-.4,1.1-.8,1.5-1.2l3.1,4.4c-.9,1.1-1.9,2.1-3.1,3-2.1,1.5-4,2.1-5.8,1.9-1.7-.3-3.3-1.4-4.8-3.5l-7-9.8-2.5,1.8-3.1-4.3,2.5-1.8-3.5-4.9,6.2-4.4Z"/>
  <path class="cls-1" d="M188,109.1c-.5-.3-1.1-.8-1.7-1.5-.3,2.2-1.6,3.9-3.8,5.2-2,1.1-4,1.5-6.1,1.1-2.1-.4-3.6-1.5-4.7-3.3-1.3-2.3-1.5-4.5-.4-6.6,1-2.1,3.1-4.1,6.4-6l2-1.2-.6-1.1c-1.1-1.9-2.5-2.4-4.2-1.5-1.6.9-1.9,2.1-1,3.7l-6.6,3.8c-1.2-2-1.3-4.2-.3-6.5,1-2.3,2.8-4.2,5.5-5.7,2.7-1.5,5.2-2.1,7.5-1.7,2.3.4,4.1,1.8,5.5,4l5.4,9.3c1.1,1.9,2.3,3.2,3.4,3.9l.2.3-6.6,3.8ZM181.4,107.2c.8-.5,1.4-1,1.7-1.7.3-.7.5-1.3.5-1.9l-1.9-3.4-1.9,1.1c-2.3,1.3-2.8,3-1.7,5,.3.6.8,1,1.4,1.1.6.1,1.2,0,1.9-.3Z"/>
  <path class="cls-1" d="M192.3,73.2l2.5,5.5,3.6-1.6,2.2,4.8-3.6,1.6,4.6,10.1c.4.8.8,1.3,1.2,1.5s1.1,0,2-.3c.7-.3,1.2-.6,1.7-.9l2.2,4.9c-1.1,1-2.3,1.7-3.6,2.4-2.4,1.1-4.4,1.3-6,.7-1.6-.6-3-2-4-4.3l-5-11-2.8,1.3-2.2-4.8,2.8-1.3-2.5-5.5,6.9-3.1Z"/>
  <path class="cls-1" d="M200.1,69.7c-.4-1-.3-2,.2-2.9.5-.9,1.3-1.6,2.5-2,1.2-.4,2.2-.5,3.2,0,1,.4,1.6,1.1,2,2.1.4,1,.3,2-.2,2.9s-1.3,1.6-2.5,2c-1.2.4-2.2.5-3.2,0-1-.4-1.6-1.1-2-2.1ZM218.2,95.6l-7.1,2.6-8.5-22.8,7.1-2.6,8.5,22.8Z"/>
  <path class="cls-1" d="M217.8,82.3c-.6-2.3-.7-4.6-.3-6.6s1.4-3.8,2.8-5.3c1.4-1.4,3.3-2.5,5.6-3.1,3.5-.9,6.6-.6,9.2,1,2.6,1.6,4.4,4.3,5.4,8.1v.3c1,3.7.8,6.8-.6,9.5-1.5,2.7-3.9,4.5-7.4,5.4-3.3.9-6.3.6-8.9-.9-2.6-1.5-4.4-3.9-5.5-7.3l-.4-1.2ZM225.2,80.8c.6,2.2,1.3,3.7,2.3,4.5,1,.8,2.1,1.1,3.4.7,2.6-.7,3.4-3.1,2.4-7.1l-.2-.7c-1.1-4.2-3-6-5.7-5.2-2.4.7-3.3,2.8-2.5,6.5l.3,1.3Z"/>
  <path class="cls-1" d="M249.6,62.8l.6,2.8c1.4-2.4,3.5-3.8,6.4-4.2,2.5-.3,4.5.2,5.9,1.5s2.4,3.5,2.8,6.5l2.1,15.5-7.5,1-2.1-15.2c-.2-1.2-.5-2.1-1.1-2.6-.6-.5-1.5-.7-2.8-.5-1.5.2-2.5.9-3,2.2l2.3,17-7.5,1-3.3-24.1,7-1Z"/>
  <path class="cls-1" d="M283.4,77.7c0-.6-.4-1.2-1-1.5-.7-.4-2-.8-3.9-1.1-1.9-.4-3.5-.9-4.7-1.6-1.2-.7-2.2-1.5-2.8-2.4s-1-2.1-1-3.3c0-2.2.9-4.1,2.7-5.6s4.2-2.2,7.2-2.3c3.2,0,5.8.6,7.8,2,2,1.4,3,3.3,3,5.7h-7.6c0-1.8-1.1-2.8-3.1-2.7-.8,0-1.5.2-2,.7-.5.5-.8,1-.8,1.7,0,.7.3,1.2,1,1.6.7.4,1.7.7,3.2,1,1.4.2,2.7.5,3.8.9,3.7,1.2,5.5,3.4,5.6,6.7,0,2.2-.9,4-2.9,5.5s-4.5,2.2-7.6,2.2c-2.1,0-3.9-.3-5.6-1s-2.9-1.7-3.9-3c-.9-1.3-1.4-2.6-1.4-4h7.1c0,1,.4,1.8,1.2,2.3.7.5,1.7.7,2.8.7,1,0,1.8-.2,2.3-.7.5-.4.8-1,.7-1.7Z"/>
  <path class="cls-1" d="M314.4,75.6l-1.8,10.9-7.8-1.3,5.4-32.2,12.9,2.2c2.5.4,4.6,1.2,6.3,2.5,1.7,1.2,3,2.8,3.8,4.6s1,3.8.6,6c-.5,3.1-2.1,5.5-4.6,7-2.6,1.5-5.8,1.9-9.7,1.3l-5-.8ZM315.4,69.6l5.1.9c1.5.3,2.7,0,3.6-.5.9-.6,1.5-1.6,1.7-3,.3-1.5,0-2.8-.6-3.8s-1.7-1.7-3.1-1.9l-5.2-.9-1.6,9.3Z"/>
  <path class="cls-1" d="M344,94.2c-3.6-1.1-6.1-3.1-7.7-5.9-1.5-2.8-1.8-5.9-.7-9.3l.2-.6c.7-2.4,1.8-4.3,3.3-5.9,1.4-1.5,3.2-2.6,5.2-3,2-.5,4.2-.3,6.5.4,3.3,1,5.5,2.8,6.8,5.4,1.3,2.6,1.3,5.7.2,9.3l-.9,2.8-14.4-4.5c-.1,1.4.1,2.6.7,3.6.6,1,1.7,1.7,3,2.2,2.3.7,4.3.5,6.1-.7l2.1,4.9c-1.3,1-2.9,1.6-4.8,1.8-1.9.2-3.8,0-5.7-.5ZM348.9,75.5c-2.1-.7-3.8.4-5.1,3l7.3,2.3.2-.6c.4-1.1.4-2.1,0-3-.4-.8-1.2-1.4-2.3-1.8Z"/>
  <path class="cls-1" d="M376.3,87.6l-2.2-1.1c-2.2-.9-3.9-.8-5.1.3l-6.1,14.1-7-3,9.6-22.3,6.5,2.8-1,3c2.1-1.7,4.2-2.1,6.3-1.2.7.3,1.4.7,1.8,1.1l-2.9,6.4Z"/>
  <path class="cls-1" d="M408.3,88l-6.8,22.9,18.9-14.7,8.6,5.9-18.5,27-6.5-4.5,4.3-6.3,9.5-12.5-19.7,14.7-4.3-2.9,6.6-23.7-8.2,13.4-4.3,6.3-6.5-4.5,18.5-27,8.5,5.8Z"/>
  <path class="cls-1" d="M418.8,137.3l-5.7-5,16.2-18.1,5.7,5-16.2,18.1ZM433.1,109.1c.7-.8,1.6-1.2,2.6-1.2,1,0,2,.4,3,1.2.9.8,1.5,1.8,1.6,2.8s-.2,2-.9,2.8-1.6,1.2-2.6,1.2c-1,0-2-.4-3-1.2-.9-.8-1.5-1.8-1.6-2.8-.1-1,.2-2,.9-2.8Z"/>
  <path class="cls-1" d="M444.4,128.4l-1.9,2.1c2.8-.3,5.1.7,7.1,2.8,1.7,1.9,2.5,3.8,2.2,5.7s-1.5,4-3.7,6.1l-11.5,10.7-5.2-5.6,11.2-10.5c.9-.8,1.4-1.6,1.5-2.4,0-.8-.3-1.6-1.2-2.6-1-1.1-2.2-1.5-3.5-1.2l-12.6,11.7-5.2-5.5,17.8-16.6,4.8,5.2Z"/>
  <path class="cls-1" d="M449.3,168.5c-2.6,0-4.7-1.3-6.3-3.5-1.6-2.2-2.1-4.3-1.7-6.3.5-2,1.9-3.9,4.2-5.6l12.8-9.2,4.4,6.1-12.8,9.2c-1.7,1.2-1.9,2.6-.8,4.3,1,1.4,2.2,2,3.7,1.9l13.8-10,4.5,6.2-19.7,14.2-4.2-5.8,2-1.7Z"/>
  <path class="cls-1" d="M483.8,171.3l-5.2,3,2,3.5-4.5,2.6-2-3.5-9.6,5.6c-.8.5-1.3.9-1.4,1.4-.1.5,0,1.1.5,2,.4.6.7,1.2,1.1,1.6l-4.7,2.7c-1.1-1-2-2.1-2.7-3.4-1.3-2.3-1.7-4.2-1.3-5.9.4-1.7,1.7-3.2,3.9-4.4l10.4-6-1.6-2.7,4.5-2.6,1.6,2.7,5.2-3,3.8,6.6Z"/>
  <path class="cls-1" d="M465.1,202.8c-1.5-3.4-1.8-6.6-.7-9.6,1.1-3,3.2-5.3,6.5-6.7l.6-.3c2.3-1,4.5-1.5,6.6-1.5,2.1,0,4,.7,5.7,1.9s3,2.9,4,5.1c1.4,3.1,1.6,6,.4,8.7-1.1,2.7-3.4,4.8-6.9,6.4l-2.7,1.2-6.2-13.7c-1.1.8-1.9,1.8-2.2,2.9-.3,1.2-.2,2.4.4,3.7,1,2.2,2.5,3.5,4.6,4.1l-2.3,4.8c-1.6-.3-3.1-1.1-4.5-2.4-1.4-1.3-2.5-2.8-3.4-4.6ZM482.4,194.1c-.9-2-2.8-2.6-5.6-1.8l3.1,7,.5-.2c1.1-.5,1.8-1.1,2.2-2,.3-.9.3-1.8-.2-2.9Z"/>
  <path class="cls-1" d="M464.9,390.3l2.2-3.7-9.9-5.9,4-6.8,28.1,16.7-6.6,11.1c-2,3.3-4.3,5.5-6.9,6.5s-5.2.7-7.9-.9c-2-1.2-3.3-2.5-4.2-4.1-.8-1.6-1.1-3.4-.9-5.6l-14.8-.9-.3-.2,4.3-7.3,12.9,1ZM472.3,389.7l-2.5,4.3c-.8,1.3-1,2.5-.7,3.5.3,1.1,1,1.9,2.3,2.7,1.2.7,2.4,1,3.4.7,1.1-.2,2-1,2.8-2.3l2.5-4.3-7.7-4.6Z"/>
  <path class="cls-1" d="M456.5,405.3c1.9,1.5,3.3,3.2,4.2,5.1.9,1.9,1.2,3.9.9,5.9-.3,2-1.2,4-2.7,5.8-2.3,2.8-4.9,4.4-8,4.6s-6.1-.8-9.2-3.3l-.2-.2c-3-2.4-4.7-5.1-5.1-8.1-.4-3,.5-6,2.7-8.8,2.2-2.7,4.7-4.2,7.6-4.6,2.9-.4,5.8.5,8.7,2.6l1,.8ZM451.4,410.9c-1.8-1.4-3.3-2.1-4.5-2.2s-2.3.4-3.2,1.5c-1.7,2.1-.9,4.5,2.3,7.1l.6.5c3.4,2.7,6,3,7.7.8,1.6-2,1-4.2-1.9-6.7l-1.1-.9Z"/>
  <path class="cls-1" d="M445.9,445.2l-4.3-4.2-2.8,2.9-3.8-3.7,2.8-2.9-8-7.8c-.7-.6-1.2-1-1.7-1s-1.1.3-1.7,1c-.5.5-.9,1-1.2,1.4l-3.9-3.8c.6-1.3,1.5-2.5,2.5-3.5,1.8-1.9,3.6-2.8,5.3-2.9,1.7,0,3.5.8,5.3,2.6l8.6,8.4,2.2-2.2,3.8,3.7-2.2,2.2,4.3,4.2-5.3,5.4Z"/>
  <path class="cls-1" d="M409.4,437.3c.5.2,1.2.6,2,1.2,0-2.2.9-4.2,2.8-5.8,1.7-1.5,3.7-2.2,5.8-2.2,2.1,0,3.9.8,5.2,2.4,1.7,2,2.2,4.2,1.6,6.4s-2.3,4.6-5.2,7l-1.8,1.5.8,1c1.4,1.7,2.9,1.9,4.4.7,1.4-1.2,1.5-2.4.3-3.8l5.8-4.9c1.5,1.8,2,3.9,1.4,6.3-.6,2.4-2.1,4.6-4.4,6.6-2.4,2-4.7,3-7.1,3s-4.4-1-6.1-3l-7-8.2c-1.5-1.7-2.8-2.8-4.1-3.2l-.2-.3,5.8-4.9ZM416.2,438c-.7.6-1.2,1.3-1.4,2-.2.7-.3,1.3-.1,1.9l2.5,3,1.7-1.4c2-1.7,2.3-3.5.7-5.3-.4-.5-1-.8-1.6-.8-.6,0-1.2.2-1.8.7Z"/>
  <path class="cls-1" d="M411.5,473.5l-3.4-5-3.3,2.3-3-4.3,3.3-2.3-6.3-9.1c-.5-.8-1-1.2-1.5-1.3-.5-.1-1.1.1-1.9.7-.6.4-1.1.8-1.5,1.2l-3.1-4.5c.9-1.1,1.9-2.1,3.1-3,2.1-1.5,4.1-2.1,5.8-1.8s3.3,1.5,4.7,3.5l6.9,9.9,2.5-1.8,3,4.3-2.5,1.8,3.4,5-6.2,4.3Z"/>
  <path class="cls-1" d="M378.7,457.4c3.3-1.8,6.4-2.3,9.5-1.5,3.1.8,5.5,2.8,7.2,5.9l.3.5c1.2,2.2,1.9,4.3,2,6.4.1,2.1-.3,4-1.4,5.8-1,1.8-2.6,3.2-4.7,4.4-3,1.7-5.9,2-8.6,1.1s-5.1-3-6.9-6.3l-1.4-2.6,13.2-7.3c-.9-1.1-1.9-1.7-3.1-1.9-1.2-.2-2.4,0-3.7.7-2.1,1.2-3.3,2.8-3.7,4.9l-5-1.9c.2-1.6.9-3.2,2-4.7,1.1-1.5,2.6-2.8,4.3-3.7ZM388.8,473.9c1.9-1.1,2.4-3,1.3-5.8l-6.7,3.7.3.5c.6,1.1,1.3,1.7,2.2,2,.9.3,1.9.1,2.9-.5Z"/>
  <path class="cls-1" d="M358.8,474.7c.2.6.8.9,1.5,1.1.8.1,2.1,0,4-.3,1.9-.3,3.6-.4,4.9-.2s2.6.6,3.5,1.2c1,.7,1.7,1.6,2.2,2.7.8,2.1.7,4.1-.5,6.2-1.2,2-3.1,3.6-5.9,4.7-3,1.2-5.6,1.5-8,.9s-4-2-4.9-4.2l7-2.9c.7,1.8,2.1,2.3,4,1.5.7-.3,1.3-.8,1.6-1.4.3-.6.4-1.2.1-1.8-.3-.6-.8-1-1.5-1.1s-1.9,0-3.3.2c-1.4.3-2.7.5-3.9.5-3.9.2-6.4-1.2-7.6-4.2-.8-2.1-.6-4.1.7-6.1,1.3-2,3.4-3.6,6.3-4.8,1.9-.8,3.8-1.1,5.6-1.1,1.8,0,3.4.5,4.7,1.4,1.3.8,2.3,1.9,2.8,3.2l-6.5,2.7c-.5-1-1.1-1.6-2-1.9-.9-.2-1.8,0-2.9.3-1,.4-1.6.9-1.9,1.5-.3.6-.4,1.2,0,1.8Z"/>
  <path class="cls-1" d="M328.3,477l7.4-1.8,5.9,23.6-7.4,1.8-5.9-23.6ZM343.5,504.7c.3,1,0,2-.5,2.9-.6.9-1.5,1.4-2.7,1.7-1.2.3-2.3.2-3.2-.3-.9-.5-1.5-1.2-1.8-2.3s0-2,.5-2.9,1.5-1.4,2.7-1.7c1.2-.3,2.3-.2,3.2.3.9.5,1.5,1.2,1.8,2.3Z"/>
  <path class="cls-1" d="M321.3,503.2l-.7-2.8c-1.3,2.4-3.5,3.9-6.4,4.3-2.5.4-4.5,0-5.9-1.4s-2.4-3.5-2.9-6.5l-2.3-15.5,7.5-1.1,2.3,15.2c.2,1.2.6,2.1,1.1,2.6.6.5,1.5.6,2.8.5,1.5-.2,2.5-1,3-2.2l-2.6-17,7.5-1.1,3.6,24-7,1.1Z"/>
  <path class="cls-1" d="M272.1,481.7l7.6.2-.7,24.2,7.5-1.9-.2,5.7-14.5,4.5h-.7s1-32.7,1-32.7Z"/>
  <path class="cls-1" d="M238.7,490.8c.7-4.4,2.2-7.6,4.6-9.6,2.3-2.1,5.3-2.8,8.9-2.2,3.6.6,6.2,2.2,7.8,4.9s2,6.2,1.3,10.5l-.9,5.9c-.7,4.4-2.2,7.6-4.6,9.6-2.3,2.1-5.3,2.8-8.9,2.2-3.6-.6-6.2-2.2-7.7-4.9-1.6-2.7-2-6.2-1.3-10.6l.9-5.9ZM245.1,498.9c-.4,2.3-.3,4.1,0,5.3.4,1.2,1.3,2,2.6,2.2,1.3.2,2.3-.2,3.1-1.1s1.3-2.5,1.7-4.7l1.3-8.2c.4-2.4.4-4.2,0-5.4-.4-1.2-1.3-1.9-2.6-2.1-1.3-.2-2.3.2-3.1,1.2-.8,1-1.4,2.6-1.8,5l-1.3,8Z"/>
  <path class="cls-1" d="M205.3,501.1l1.6-23.8-15.2,18.5-9.6-3.8,12.1-30.4,7.3,2.9-2.8,7.1-6.5,14.2,15.9-18.7,4.8,1.9-1.2,24.6,5.1-14.8,2.8-7.1,7.3,2.9-12.1,30.4-9.6-3.8Z"/>
  <path class="cls-1" d="M176.4,485.9c-.5.9-1.3,1.5-2.3,1.8-1,.2-2.1,0-3.2-.6-1.1-.6-1.8-1.4-2.1-2.4-.3-1-.3-1.9.3-2.9s1.3-1.5,2.3-1.8c1-.2,2.1,0,3.2.6,1.1.6,1.8,1.4,2.1,2.4.3,1,.3,1.9-.3,2.9ZM184.2,455.2l6.6,3.7-11.8,21.2-6.6-3.7,11.8-21.2Z"/>
  <path class="cls-1" d="M161.2,469.6l1.4-2.5c-2.6.9-5.2.5-7.6-1.2-2.1-1.4-3.2-3.1-3.4-5.1s.6-4.2,2.3-6.7l8.8-12.9,6.3,4.3-8.7,12.7c-.7,1-1,1.9-.9,2.7s.7,1.5,1.7,2.2c1.2.8,2.5,1,3.7.4l9.7-14.2,6.2,4.3-13.7,20.1-5.9-4Z"/>
  <path class="cls-1" d="M147.6,431.5c2.6-.5,4.9.2,6.9,2,2,1.8,3,3.7,3,5.8,0,2.1-1,4.2-2.9,6.4l-10.4,11.8-5.7-5,10.5-11.8c1.4-1.6,1.3-3-.2-4.3-1.3-1.2-2.6-1.5-4-1.1l-11.3,12.8-5.7-5.1,16.1-18.2,5.3,4.7-1.6,2.1Z"/>
  <path class="cls-1" d="M113.4,436.3l4.4-4.1-2.7-2.9,3.9-3.6,2.7,2.9,8.2-7.5c.7-.6,1-1.2,1.1-1.7,0-.5-.3-1.1-.9-1.8-.5-.5-1-1-1.4-1.3l4-3.7c1.2.7,2.4,1.6,3.4,2.7,1.8,1.9,2.6,3.7,2.6,5.5,0,1.7-1,3.5-2.8,5.2l-8.9,8.2,2.1,2.3-3.9,3.6-2.1-2.3-4.4,4.1-5.1-5.6Z"/>
  <path class="cls-1" d="M124.7,401.5c2.2,3,3.2,6.1,2.8,9.2-.4,3.2-2,5.8-4.8,8l-.5.4c-2,1.5-4,2.5-6.1,2.9-2.1.4-4.1.2-6-.6s-3.6-2.1-5-4.1c-2.1-2.7-2.8-5.5-2.3-8.4s2.3-5.4,5.3-7.7l2.3-1.8,9.1,12c.9-1,1.4-2.2,1.5-3.4,0-1.2-.3-2.4-1.2-3.5-1.4-1.9-3.2-2.9-5.4-3l1.2-5.2c1.6,0,3.2.4,4.9,1.3,1.7.9,3.1,2.2,4.3,3.8ZM109.7,413.8c1.3,1.8,3.3,1.9,5.9.5l-4.6-6.1-.5.4c-1,.7-1.6,1.5-1.7,2.4-.1.9.1,1.9.9,2.8Z"/>
  <path class="cls-1" d="M104.7,384.2c-.6.3-.8.9-.8,1.7s.3,2.1.9,3.9c.6,1.8.9,3.5.9,4.9,0,1.4-.2,2.6-.7,3.7-.5,1-1.3,1.9-2.4,2.5-1.9,1.1-4,1.3-6.2.4-2.2-.9-4-2.6-5.5-5.2-1.6-2.8-2.3-5.4-2-7.8.3-2.4,1.4-4.2,3.5-5.4l3.8,6.6c-1.7,1-2,2.4-1,4.1.4.7.9,1.1,1.6,1.4s1.3.2,1.8-.1c.6-.3.9-.9.9-1.7,0-.8-.2-1.9-.7-3.2s-.9-2.6-1.1-3.8c-.8-3.8.3-6.5,3.1-8.1,1.9-1.1,4-1.2,6.2-.2,2.2,1,4.1,2.8,5.7,5.5,1.1,1.8,1.7,3.6,1.8,5.4.2,1.8,0,3.4-.7,4.8-.7,1.4-1.6,2.5-2.8,3.2l-3.6-6.1c1-.6,1.5-1.3,1.6-2.2,0-.9-.2-1.8-.7-2.8-.5-.9-1.1-1.5-1.7-1.7s-1.2-.2-1.8.2Z"/>
</svg>