<?xml version="1.0" encoding="UTF-8"?>
<svg id="Layer_1" data-name="Layer 1" xmlns="http://www.w3.org/2000/svg" version="1.1" viewBox="0 0 566.9 566.9">
  <defs>
    <style>
      .cls-1 {
        fill: #000;
        stroke-width: 0px;
      }
    </style>
  </defs>
  <path class="cls-1" d="M117.8,173.6l-4,6.4-20.5-12.8-2.1,7.5-4.9-3.1,3.4-14.8.4-.6,27.7,17.3Z"/>
  <path class="cls-1" d="M129.5,140.3l-2.9,3.1,8.5,7.9-5.4,5.8-23.9-22.3,8.8-9.4c2.6-2.8,5.3-4.5,8.1-4.9,2.7-.4,5.3.4,7.6,2.6,1.7,1.6,2.7,3.2,3.2,4.9s.4,3.6-.3,5.6l14.3,4,.2.2-5.8,6.2-12.4-3.7ZM122.1,139.2l3.4-3.6c1-1.1,1.5-2.2,1.4-3.3,0-1.1-.6-2.1-1.6-3.1-1-1-2.1-1.4-3.2-1.4-1.1,0-2.2.6-3.2,1.6l-3.4,3.6,6.6,6.1Z"/>
  <path class="cls-1" d="M140.9,127.4c-1.5-1.9-2.5-3.8-3-5.9-.5-2.1-.3-4,.4-6,.7-1.9,2-3.6,3.9-5.1,2.8-2.3,5.8-3.2,8.8-2.8,3,.4,5.8,2.1,8.3,5.1l.2.2c2.4,2.9,3.5,5.9,3.3,9-.2,3.1-1.7,5.7-4.5,8-2.7,2.2-5.5,3.1-8.4,2.9-2.9-.3-5.6-1.7-8-4.4l-.8-1ZM147,123c1.4,1.7,2.7,2.8,3.9,3.2,1.2.4,2.3.1,3.4-.8,2.1-1.7,1.8-4.2-.7-7.4l-.5-.6c-2.8-3.4-5.2-4.2-7.4-2.4-2,1.6-1.8,3.9.4,7l.8,1.1Z"/>
  <path class="cls-1" d="M159.7,90.7l3.3,5,3.3-2.2,2.9,4.4-3.3,2.2,6.1,9.3c.5.8,1,1.2,1.5,1.3.5.1,1.1,0,1.9-.6.6-.4,1.1-.8,1.5-1.2l3,4.5c-.9,1.1-2,2.1-3.2,2.9-2.2,1.4-4.1,2-5.8,1.7-1.7-.3-3.3-1.5-4.6-3.6l-6.7-10.1-2.6,1.7-2.9-4.4,2.6-1.7-3.3-5,6.3-4.2Z"/>
  <path class="cls-1" d="M193.7,106.1c-.5-.3-1-.8-1.7-1.6-.4,2.2-1.7,3.9-3.9,5.1-2,1.1-4.1,1.4-6.1.9-2.1-.5-3.6-1.6-4.6-3.5-1.2-2.3-1.3-4.5-.2-6.6,1.1-2.1,3.3-4,6.6-5.8l2.1-1.1-.6-1.1c-1.1-2-2.4-2.5-4.1-1.6-1.6.8-2,2-1.1,3.6l-6.7,3.5c-1.1-2.1-1.1-4.2,0-6.5,1.1-2.2,3-4.1,5.7-5.5s5.3-1.9,7.6-1.4c2.3.5,4.1,1.9,5.4,4.2l5,9.5c1.1,2,2.2,3.3,3.3,4l.2.3-6.7,3.5ZM187.2,103.9c.8-.4,1.4-1,1.8-1.6.4-.6.5-1.3.5-1.8l-1.8-3.4-1.9,1c-2.3,1.2-2.9,2.9-1.8,5,.3.6.8,1,1.4,1.2.6.2,1.2,0,1.9-.3Z"/>
  <path class="cls-1" d="M199.3,70.3l2.3,5.6,3.7-1.5,2,4.9-3.7,1.5,4.2,10.3c.3.8.7,1.4,1.2,1.6.4.2,1.1.1,2-.2.7-.3,1.3-.6,1.7-.8l2.1,5c-1.1.9-2.3,1.7-3.7,2.2-2.4,1-4.4,1.2-6,.5-1.6-.7-2.9-2.2-3.8-4.5l-4.6-11.2-2.9,1.2-2-4.9,2.9-1.2-2.3-5.6,7-2.9Z"/>
  <path class="cls-1" d="M207.2,67.1c-.3-1-.2-2,.3-2.9.5-.9,1.4-1.5,2.6-1.9,1.2-.4,2.2-.4,3.2,0,1,.4,1.6,1.1,1.9,2.1s.2,2-.3,2.9c-.5.9-1.4,1.5-2.6,1.9-1.2.4-2.2.4-3.2,0-1-.4-1.6-1.1-1.9-2.1ZM224.4,93.6l-7.2,2.4-7.7-23.1,7.2-2.4,7.7,23.1Z"/>
  <path class="cls-1" d="M224.4,80.4c-.5-2.4-.6-4.6,0-6.6.5-2.1,1.5-3.8,3-5.2,1.5-1.4,3.4-2.4,5.7-2.9,3.5-.8,6.6-.4,9.1,1.4,2.5,1.7,4.3,4.5,5.1,8.3v.3c.9,3.7.6,6.9-1,9.5-1.6,2.6-4.1,4.4-7.6,5.2-3.4.8-6.3.4-8.8-1.2-2.5-1.5-4.2-4-5.2-7.5l-.3-1.2ZM231.9,79.2c.5,2.2,1.2,3.7,2.1,4.6.9.9,2.1,1.1,3.4.8,2.6-.6,3.5-2.9,2.6-7l-.2-.7c-1-4.2-2.8-6.1-5.5-5.4-2.5.6-3.4,2.7-2.7,6.4l.3,1.3Z"/>
  <path class="cls-1" d="M256.9,62l.5,2.8c1.4-2.4,3.6-3.7,6.6-4,2.5-.3,4.5.3,5.9,1.7s2.3,3.6,2.6,6.6l1.6,15.6-7.6.8-1.5-15.3c-.1-1.2-.5-2.1-1-2.6-.5-.5-1.5-.7-2.8-.6-1.5.1-2.5.8-3.1,2.1l1.7,17.1-7.5.8-2.4-24.2,7.1-.7Z"/>
  <path class="cls-1" d="M297.4,74.1l-1,11.1-7.9-.7,2.9-32.6,13,1.1c2.5.2,4.7.9,6.5,2,1.8,1.1,3.2,2.5,4.1,4.3.9,1.8,1.3,3.8,1.1,5.9-.3,3.2-1.6,5.6-4.1,7.3-2.4,1.7-5.6,2.4-9.6,2l-5-.4ZM298,68l5.1.5c1.5.1,2.7-.1,3.6-.8.9-.7,1.4-1.7,1.5-3.1.1-1.5-.2-2.8-.9-3.8-.7-1-1.8-1.5-3.2-1.7l-5.2-.5-.8,9.4Z"/>
  <path class="cls-1" d="M328.4,90.3c-3.6-.8-6.3-2.6-8.1-5.2-1.8-2.7-2.3-5.8-1.5-9.2v-.6c.7-2.4,1.6-4.5,2.9-6.1s2.9-2.8,4.9-3.4c2-.6,4.1-.7,6.5-.1,3.3.7,5.7,2.4,7.2,4.9s1.8,5.6,1,9.3l-.6,2.9-14.7-3.3c0,1.4.3,2.6,1,3.5.7,1,1.8,1.6,3.2,1.9,2.3.5,4.3.1,6-1.2l2.5,4.7c-1.2,1.1-2.7,1.8-4.6,2.2s-3.8.3-5.7,0ZM331.9,71.2c-2.2-.5-3.8.7-4.8,3.4l7.5,1.7v-.6c.4-1.2.3-2.2-.2-3-.5-.8-1.3-1.3-2.5-1.6Z"/>
  <path class="cls-1" d="M360.1,81.1l-2.3-1c-2.3-.8-3.9-.5-5.1.7l-4.9,14.6-7.2-2.4,7.8-23,6.7,2.3-.8,3c2-1.9,4-2.4,6.2-1.7.8.3,1.4.6,1.9.9l-2.4,6.6Z"/>
  <path class="cls-1" d="M392.1,79l-5,23.4,17.6-16.1,9,5.2-16.3,28.4-6.9-3.9,3.8-6.6,8.4-13.2-18.4,16.2-4.5-2.6,4.7-24.1-7.1,14-3.8,6.6-6.8-3.9,16.3-28.4,9,5.2Z"/>
  <path class="cls-1" d="M406.5,127.3l-6-4.6,14.7-19.4,6,4.6-14.7,19.4ZM418.5,98.1c.7-.9,1.5-1.3,2.5-1.4,1,0,2.1.3,3,1,1,.8,1.6,1.6,1.8,2.7.2,1,0,2-.7,2.8-.7.9-1.5,1.3-2.5,1.4-1,0-2-.3-3-1-1-.8-1.6-1.6-1.8-2.7s0-2,.7-2.8Z"/>
  <path class="cls-1" d="M431.2,116.4l-1.7,2.3c2.7-.5,5.2.3,7.3,2.3,1.9,1.7,2.7,3.5,2.6,5.5-.1,2-1.2,4.1-3.2,6.3l-10.6,11.5-5.6-5.1,10.4-11.3c.8-.9,1.3-1.7,1.3-2.5,0-.8-.4-1.6-1.4-2.5-1.1-1-2.3-1.3-3.6-.9l-11.6,12.7-5.6-5.1,16.4-17.9,5.2,4.8Z"/>
  <path class="cls-1" d="M439.3,156c-2.6.1-4.8-.9-6.5-3-1.7-2-2.4-4.1-2.1-6.1.3-2,1.5-4,3.8-5.9l12-10.2,4.9,5.8-12,10.2c-1.6,1.3-1.7,2.8-.4,4.3,1.1,1.3,2.4,1.9,3.8,1.6l13-11,4.9,5.8-18.5,15.7-4.6-5.4,1.9-1.9Z"/>
  <path class="cls-1" d="M473.9,156.1l-5,3.4,2.3,3.3-4.3,3-2.3-3.3-9.2,6.3c-.8.5-1.2,1-1.3,1.5-.1.5.1,1.1.7,1.9.4.6.8,1.1,1.2,1.5l-4.5,3.1c-1.1-.9-2.1-1.9-3-3.1-1.5-2.1-2.1-4.1-1.8-5.8.3-1.7,1.5-3.3,3.5-4.7l9.9-6.8-1.8-2.6,4.3-3,1.8,2.6,5-3.4,4.3,6.2Z"/>
  <path class="cls-1" d="M457.8,188.9c-1.8-3.3-2.3-6.4-1.5-9.5.8-3.1,2.8-5.5,5.9-7.2l.5-.3c2.2-1.2,4.3-1.9,6.4-2,2.1-.1,4,.4,5.8,1.4,1.8,1,3.2,2.6,4.4,4.8,1.7,3,2,5.9,1.1,8.6-.9,2.8-3,5-6.3,6.9l-2.6,1.4-7.3-13.2c-1.1.9-1.7,1.9-2,3.1-.2,1.2,0,2.4.7,3.7,1.2,2.1,2.8,3.3,4.9,3.7l-1.9,5c-1.6-.2-3.2-.9-4.7-2-1.5-1.1-2.7-2.6-3.7-4.3ZM474.3,178.8c-1.1-1.9-3-2.4-5.8-1.3l3.7,6.7.5-.3c1.1-.6,1.8-1.3,2-2.2.3-.9.1-1.9-.5-2.9Z"/>
  <path class="cls-1" d="M446.2,416.6l2.7-3.3-8.9-7.3,5-6.1,25.3,20.8-8.2,9.9c-2.5,3-5.1,4.8-7.8,5.4-2.7.6-5.3-.1-7.7-2.1-1.8-1.4-2.9-3-3.5-4.7-.6-1.7-.6-3.5,0-5.6l-14.5-3.1-.3-.2,5.4-6.5,12.6,2.9ZM453.6,417.2l-3.2,3.9c-1,1.2-1.4,2.3-1.2,3.4.1,1.1.7,2.1,1.8,3s2.2,1.3,3.3,1.2c1.1,0,2.1-.7,3.1-1.8l3.2-3.9-7-5.7Z"/>
  <path class="cls-1" d="M435.7,430.2c1.7,1.8,2.8,3.7,3.4,5.7.6,2,.6,4,0,6-.6,1.9-1.8,3.7-3.5,5.4-2.7,2.5-5.5,3.6-8.6,3.4-3.1-.2-5.9-1.8-8.6-4.6l-.2-.2c-2.6-2.8-3.9-5.7-3.8-8.8,0-3.1,1.4-5.8,4-8.3,2.5-2.4,5.3-3.5,8.2-3.4s5.7,1.4,8.2,3.9l.9.9ZM429.8,435c-1.5-1.6-2.9-2.6-4.1-2.9-1.2-.3-2.3,0-3.4,1-2,1.8-1.6,4.3,1.2,7.4l.5.6c3,3.2,5.5,3.8,7.5,1.9,1.9-1.7,1.6-4-.8-6.9l-.9-1Z"/>
  <path class="cls-1" d="M419.2,468l-3.6-4.8-3.2,2.4-3.2-4.2,3.2-2.4-6.7-8.9c-.6-.7-1.1-1.1-1.5-1.2-.5,0-1.1.2-1.9.8-.6.5-1.1.9-1.4,1.2l-3.3-4.3c.8-1.2,1.8-2.2,3-3.1,2.1-1.6,4-2.2,5.7-2,1.7.2,3.4,1.3,4.9,3.3l7.3,9.6,2.5-1.9,3.2,4.2-2.5,1.9,3.6,4.8-6,4.6Z"/>
  <path class="cls-1" d="M384.3,454.8c.5.3,1.1.8,1.8,1.5.3-2.2,1.5-4,3.6-5.3,2-1.2,4-1.6,6.1-1.3,2.1.3,3.7,1.4,4.8,3.2,1.4,2.2,1.6,4.5.6,6.6-1,2.2-3,4.2-6.2,6.2l-2,1.2.7,1.1c1.2,1.9,2.6,2.4,4.2,1.3,1.5-.9,1.8-2.2.9-3.7l6.4-4c1.2,2,1.4,4.1.4,6.4s-2.7,4.3-5.4,5.9-5.1,2.3-7.4,1.9c-2.3-.3-4.2-1.6-5.6-3.9l-5.6-9.2c-1.2-1.9-2.4-3.2-3.6-3.8l-.2-.3,6.4-4ZM390.9,456.5c-.8.5-1.4,1.1-1.7,1.7-.3.7-.5,1.3-.4,1.9l2,3.3,1.9-1.2c2.2-1.4,2.7-3.1,1.5-5.1-.4-.6-.9-.9-1.5-1.1-.6-.1-1.2,0-1.8.4Z"/>
  <path class="cls-1" d="M381,490.8l-2.6-5.4-3.6,1.8-2.3-4.7,3.6-1.8-4.9-10c-.4-.8-.8-1.3-1.3-1.5-.5-.2-1.1,0-2,.4-.7.3-1.2.6-1.6.9l-2.4-4.9c1-1,2.2-1.8,3.6-2.5,2.3-1.1,4.3-1.4,6-.9,1.7.6,3,2,4.1,4.2l5.3,10.8,2.8-1.4,2.3,4.7-2.8,1.4,2.6,5.4-6.8,3.3Z"/>
  <path class="cls-1" d="M350.9,470c3.5-1.3,6.7-1.3,9.6,0s5,3.6,6.3,6.9l.2.6c.9,2.3,1.2,4.5,1,6.7-.2,2.1-1,3.9-2.3,5.5-1.3,1.6-3.1,2.8-5.4,3.6-3.2,1.2-6.1,1.1-8.7-.2-2.6-1.3-4.5-3.7-5.9-7.3l-1-2.8,14.1-5.2c-.7-1.2-1.7-2-2.8-2.4-1.1-.4-2.4-.4-3.7.1-2.2.8-3.7,2.3-4.4,4.3l-4.7-2.6c.4-1.5,1.3-3,2.7-4.3,1.4-1.3,3-2.3,4.8-3ZM358.4,487.8c2.1-.8,2.8-2.6,2.2-5.5l-7.2,2.6.2.5c.4,1.1,1,1.9,1.8,2.3.8.4,1.8.4,2.9,0Z"/>
  <path class="cls-1" d="M328.6,484.1c.2.6.6,1,1.3,1.3.7.2,2.1.3,4,.3s3.6.1,4.9.5c1.4.4,2.5,1,3.3,1.8.9.8,1.4,1.8,1.7,3,.5,2.2,0,4.2-1.4,6-1.5,1.8-3.6,3.1-6.5,3.8-3.1.7-5.8.6-8-.3s-3.6-2.6-4.2-4.9l7.4-1.8c.5,1.9,1.7,2.6,3.7,2.1.8-.2,1.4-.6,1.8-1.1.4-.6.6-1.2.4-1.8-.2-.7-.6-1.1-1.3-1.4-.7-.3-1.8-.3-3.3-.3-1.5,0-2.8,0-3.9,0-3.8-.4-6.1-2.1-6.9-5.3-.5-2.2,0-4.1,1.6-6,1.6-1.8,3.9-3.1,6.9-3.8,2-.5,3.9-.6,5.7-.2,1.8.3,3.2,1,4.4,2.1,1.2,1,1.9,2.2,2.3,3.6l-6.9,1.7c-.3-1.1-.8-1.8-1.7-2.1-.8-.3-1.8-.4-2.9-.1-1,.2-1.7.6-2.1,1.2-.4.5-.5,1.1-.4,1.8Z"/>
  <path class="cls-1" d="M298.2,481.7l7.6-.7,2.2,24.2-7.6.7-2.2-24.2ZM309,511.4c0,1.1-.2,2-.9,2.7s-1.7,1.2-2.9,1.3c-1.2.1-2.3-.1-3.1-.7-.8-.6-1.3-1.5-1.4-2.5,0-1.1.2-2,.9-2.7.7-.8,1.7-1.2,2.9-1.3,1.2-.1,2.3.1,3.1.8.8.6,1.3,1.5,1.4,2.5Z"/>
  <path class="cls-1" d="M287.8,506.4l-.3-2.8c-1.6,2.2-3.9,3.4-6.9,3.4-2.5,0-4.4-.7-5.7-2.2-1.3-1.5-2-3.8-2.1-6.8l-.3-15.7h7.6c0-.1.2,15.2.2,15.2,0,1.2.3,2.1.8,2.7s1.4.8,2.7.8c1.5,0,2.6-.6,3.3-1.8l-.3-17.2h7.6c0-.1.4,24.2.4,24.2h-7.1Z"/>
  <path class="cls-1" d="M241.9,477.9l7.5,1.4-4.4,23.8,7.7-.8-1,5.7-15,2.3h-.7c0-.1,5.9-32.3,5.9-32.3Z"/>
  <path class="cls-1" d="M200,499.5l2.2-23.8-15.6,18.1-9.6-4,12.8-30.1,7.3,3.1-3,7-6.8,14.1,16.4-18.3,4.8,2-1.8,24.5,5.4-14.7,3-7,7.3,3.1-12.8,30.1-9.5-4Z"/>
  <path class="cls-1" d="M171.5,483.6c-.5.9-1.3,1.5-2.3,1.7-1,.2-2.1,0-3.1-.6-1.1-.6-1.8-1.4-2.1-2.4-.3-1-.2-1.9.3-2.9.5-.9,1.3-1.5,2.3-1.7,1-.2,2.1,0,3.1.6,1.1.6,1.8,1.4,2.1,2.4.3,1,.2,1.9-.3,2.9ZM180,453.2l6.6,3.8-12.3,21-6.6-3.8,12.3-21Z"/>
  <path class="cls-1" d="M156.7,467l1.5-2.5c-2.6.8-5.2.4-7.6-1.4-2.1-1.5-3.1-3.2-3.3-5.2-.1-2,.7-4.2,2.4-6.7l9.1-12.7,6.2,4.4-8.9,12.5c-.7,1-1,1.9-1,2.6,0,.8.6,1.5,1.7,2.3,1.2.9,2.4,1,3.7.5l10-13.9,6.1,4.4-14.2,19.7-5.8-4.1Z"/>
  <path class="cls-1" d="M143.9,428.6c2.6-.4,4.9.3,6.9,2.2,2,1.8,2.9,3.8,2.9,5.8,0,2.1-1.1,4.2-3,6.3l-10.7,11.5-5.5-5.1,10.7-11.6c1.4-1.5,1.4-3,0-4.4-1.3-1.2-2.6-1.6-4-1.2l-11.6,12.5-5.6-5.2,16.5-17.8,5.2,4.8-1.6,2.1Z"/>
  <path class="cls-1" d="M109.6,432.6l4.5-4-2.6-3,3.9-3.5,2.6,3,8.3-7.4c.7-.6,1.1-1.1,1.1-1.6,0-.5-.2-1.1-.9-1.8-.5-.6-.9-1-1.3-1.3l4.1-3.6c1.2.7,2.3,1.7,3.3,2.8,1.7,2,2.5,3.8,2.4,5.5,0,1.7-1.1,3.4-3,5.1l-9,8,2,2.3-3.9,3.5-2-2.3-4.5,4-5-5.7Z"/>
  <path class="cls-1" d="M121.7,398.1c2.2,3,3,6.1,2.6,9.3-.5,3.2-2.1,5.8-5,7.9l-.5.4c-2,1.5-4.1,2.4-6.1,2.7-2.1.4-4.1.1-5.9-.7-1.9-.8-3.5-2.2-4.9-4.2-2-2.8-2.7-5.6-2.1-8.4.6-2.8,2.4-5.4,5.5-7.6l2.4-1.7,8.8,12.2c.9-1,1.5-2.1,1.6-3.3,0-1.2-.3-2.4-1.1-3.6-1.4-1.9-3.2-3-5.3-3.1l1.3-5.2c1.6,0,3.2.5,4.9,1.4s3,2.2,4.2,3.9ZM106.4,410.1c1.3,1.8,3.3,2,5.9.6l-4.5-6.2-.5.3c-1,.7-1.6,1.5-1.7,2.4-.2.9.1,1.9.8,2.8Z"/>
</svg>