<?xml version="1.0" encoding="UTF-8"?>
<svg id="Layer_1" data-name="Layer 1" xmlns="http://www.w3.org/2000/svg" version="1.1" viewBox="0 0 566.9 566.9">
  <defs>
    <style>
      .cls-1 {
        fill: #000;
        stroke-width: 0px;
      }
    </style>
  </defs>
  <path class="cls-1" d="M83.7,232.7c.3-1.2.9-2,1.8-2.6.9-.6,1.9-.8,2.9-.5,1.1.3,1.9.9,2.4,1.8.5.9.6,2,.3,3.2-.3,1.2-.9,2.1-1.8,2.6s-1.9.7-2.9.5c-1.1-.3-1.8-.9-2.3-1.8-.5-.9-.6-2-.3-3.2Z"/>
  <path class="cls-1" d="M87.8,200.5c4.2,1.5,7,3.6,8.6,6.3,1.6,2.7,1.8,5.7.5,9.1-1.2,3.4-3.3,5.7-6.3,6.7-2.9,1.1-6.5.8-10.6-.7l-5.6-2c-4.2-1.5-7-3.6-8.6-6.3-1.6-2.7-1.8-5.7-.5-9.1s3.3-5.6,6.3-6.7c2.9-1.1,6.5-.8,10.6.7l5.6,2ZM78.7,205.2c-2.2-.8-4-1.1-5.3-.9-1.3.2-2.2.9-2.6,2.2-.4,1.2-.3,2.3.6,3.2.8.9,2.2,1.8,4.3,2.6l7.9,2.8c2.3.8,4.1,1.1,5.4,1s2.1-.9,2.6-2.2c.4-1.2.2-2.3-.6-3.2-.8-1-2.3-1.8-4.5-2.6l-7.6-2.7Z"/>
  <path class="cls-1" d="M100.1,176c3.9,2,6.5,4.5,7.7,7.3,1.2,2.9,1,5.9-.7,9.1-1.7,3.2-4,5.2-7.1,5.8-3.1.7-6.5,0-10.4-2l-5.3-2.7c-3.9-2-6.5-4.5-7.7-7.3-1.2-2.9-1-5.9.7-9.1,1.7-3.2,4-5.2,7.1-5.8,3.1-.7,6.5,0,10.5,2l5.3,2.7ZM90.5,179.6c-2.1-1.1-3.8-1.6-5.1-1.6-1.3,0-2.3.6-2.9,1.8-.6,1.2-.6,2.2.1,3.3s2,2.1,3.9,3.1l7.4,3.8c2.2,1.1,3.9,1.7,5.2,1.6,1.3,0,2.2-.6,2.8-1.8.6-1.1.5-2.2-.2-3.3-.7-1-2.1-2.1-4.2-3.2l-7.2-3.7Z"/>
  <path class="cls-1" d="M115.4,153.3c3.6,2.5,5.9,5.3,6.7,8.3.8,3,.2,6-1.8,8.9-2.1,3-4.7,4.6-7.8,4.9-3.1.3-6.5-.8-10.1-3.3l-4.9-3.4c-3.6-2.5-5.9-5.3-6.7-8.3s-.2-6,1.8-9c2.1-3,4.7-4.6,7.8-4.9s6.5.9,10.1,3.4l4.9,3.4ZM105.4,155.6c-1.9-1.3-3.6-2.1-4.9-2.2-1.3-.2-2.3.3-3.1,1.4-.7,1.1-.8,2.2-.3,3.3.5,1.1,1.7,2.3,3.5,3.6l6.9,4.8c2,1.4,3.7,2.2,4.9,2.3,1.3.1,2.3-.3,3.1-1.4.7-1.1.8-2.2.3-3.3-.6-1.1-1.8-2.4-3.7-3.7l-6.6-4.6Z"/>
  <path class="cls-1" d="M139.5,146.2l-5.1,5.6-17.9-16.2-3.4,7-4.3-3.9,5.9-14,.5-.5,24.3,21.9Z"/>
  <path class="cls-1" d="M156.8,115.4l-3.4,2.6,7,9.2-6.3,4.7-19.7-26.1,10.3-7.7c3.1-2.3,6-3.5,8.8-3.4,2.8,0,5.1,1.3,7,3.9,1.4,1.8,2.1,3.6,2.3,5.3.2,1.7-.3,3.6-1.3,5.5l13.4,6.4.2.3-6.7,5.1-11.6-5.8ZM149.7,113.1l4-3c1.2-.9,1.9-1.9,2-3s-.2-2.2-1.1-3.3c-.8-1.1-1.8-1.8-2.9-2-1.1-.2-2.2.2-3.4,1.1l-4,3,5.4,7.2Z"/>
  <path class="cls-1" d="M170.2,104.7c-1.2-2.1-1.8-4.2-1.9-6.3s.4-4,1.4-5.8c1-1.8,2.6-3.2,4.7-4.4,3.2-1.8,6.2-2.2,9.2-1.3,2.9.9,5.3,3.1,7.2,6.5v.2c2,3.3,2.5,6.4,1.8,9.4-.7,3-2.7,5.3-5.8,7.1-3,1.7-5.9,2.1-8.8,1.4s-5.2-2.7-7.1-5.7l-.6-1.1ZM177.1,101.4c1.1,2,2.2,3.2,3.3,3.8,1.1.6,2.3.5,3.5-.2,2.4-1.3,2.5-3.8.6-7.4l-.4-.7c-2.1-3.8-4.4-5-6.8-3.7-2.2,1.2-2.5,3.5-.8,6.9l.6,1.2Z"/>
  <path class="cls-1" d="M195.2,71.8l2.4,5.5,3.7-1.6,2.1,4.8-3.7,1.6,4.4,10.2c.4.8.8,1.4,1.2,1.6s1.1.1,2-.3c.7-.3,1.2-.6,1.7-.9l2.2,5c-1.1.9-2.3,1.7-3.7,2.3-2.4,1-4.4,1.2-6,.6-1.6-.6-2.9-2.1-3.9-4.4l-4.8-11.1-2.8,1.2-2.1-4.8,2.8-1.2-2.4-5.5,6.9-3Z"/>
  <path class="cls-1" d="M226,92.9c-.4-.4-.9-1-1.4-1.9-.8,2.1-2.4,3.5-4.8,4.3-2.2.7-4.2.6-6.2-.2-1.9-.8-3.2-2.2-3.9-4.2-.8-2.5-.5-4.7.9-6.6,1.4-1.9,3.9-3.4,7.5-4.5l2.2-.7-.4-1.2c-.7-2.1-1.9-2.9-3.8-2.3-1.7.6-2.3,1.7-1.7,3.4l-7.2,2.3c-.7-2.2-.4-4.4,1.1-6.4,1.5-2,3.7-3.5,6.6-4.4,3-.9,5.5-1,7.7,0,2.2.9,3.7,2.6,4.5,5.1l3.3,10.2c.7,2.1,1.6,3.6,2.6,4.6v.4c.1,0-7.1,2.3-7.1,2.3ZM219.9,89.7c.9-.3,1.6-.7,2-1.3.5-.6.8-1.1.9-1.7l-1.2-3.7-2.1.7c-2.5.8-3.4,2.3-2.7,4.6.2.7.6,1.1,1.2,1.4.6.3,1.2.3,1.9,0Z"/>
  <path class="cls-1" d="M237.7,58.7l1.3,5.9,3.9-.8,1.1,5.1-3.9.8,2.4,10.9c.2.9.5,1.5.9,1.8.4.3,1.1.3,2,.1.7-.2,1.3-.3,1.8-.5l1.1,5.3c-1.2.7-2.6,1.2-4,1.5-2.5.6-4.6.4-6-.6-1.5-.9-2.5-2.6-3-5.1l-2.6-11.8-3,.7-1.1-5.1,3-.7-1.3-5.9,7.4-1.6Z"/>
  <path class="cls-1" d="M246.1,56.9c-.2-1.1.1-2,.8-2.8.7-.8,1.6-1.3,2.9-1.5,1.2-.2,2.3,0,3.1.6s1.4,1.4,1.5,2.5-.1,2-.8,2.8c-.7.8-1.6,1.3-2.9,1.5-1.2.2-2.3,0-3.1-.6-.9-.6-1.4-1.4-1.5-2.5ZM258.4,86l-7.5,1.1-3.5-24.1,7.5-1.1,3.5,24.1Z"/>
  <path class="cls-1" d="M260.7,73c-.1-2.4.2-4.6,1.1-6.5.8-1.9,2.1-3.5,3.8-4.6,1.7-1.1,3.8-1.7,6.1-1.8,3.6-.2,6.6.8,8.8,2.9,2.2,2.1,3.4,5.2,3.6,9v.3c.2,3.8-.7,6.8-2.7,9.2-2,2.3-4.8,3.6-8.4,3.8-3.5.2-6.3-.7-8.5-2.7s-3.5-4.7-3.8-8.2v-1.3ZM268.3,73.1c.1,2.2.6,3.9,1.3,4.9s1.8,1.5,3.2,1.4c2.7-.1,4-2.3,3.8-6.4v-.8c-.3-4.4-1.8-6.5-4.5-6.3-2.5.1-3.8,2.1-3.8,5.8v1.4Z"/>
  <path class="cls-1" d="M295.8,60.5v2.9c1.9-2.1,4.3-3,7.2-2.8,2.5.2,4.4,1.1,5.5,2.7,1.1,1.6,1.6,3.9,1.4,7l-1.1,15.6-7.6-.5,1.1-15.3c0-1.2,0-2.1-.5-2.8-.5-.6-1.3-1-2.6-1.1-1.5-.1-2.6.4-3.4,1.5l-1.2,17.1-7.5-.5,1.7-24.2,7.1.5Z"/>
  <path class="cls-1" d="M325.9,82c.1-.6-.1-1.2-.7-1.7s-1.8-1.2-3.5-1.9c-1.8-.8-3.2-1.6-4.3-2.5-1.1-.9-1.8-1.9-2.3-3-.4-1.1-.5-2.2-.3-3.5.4-2.2,1.7-3.8,3.8-4.9,2.1-1.1,4.6-1.3,7.5-.7,3.1.6,5.5,1.8,7.2,3.6,1.6,1.8,2.2,3.9,1.8,6.2l-7.5-1.4c.4-1.9-.5-3.1-2.5-3.5-.8-.2-1.5,0-2.1.3-.6.3-1,.8-1.1,1.5-.1.7,0,1.3.7,1.8.6.5,1.5,1.1,2.9,1.6s2.6,1.1,3.6,1.7c3.3,1.9,4.7,4.5,4.1,7.7-.4,2.2-1.7,3.8-3.9,4.8-2.2,1-4.8,1.2-7.9.6-2-.4-3.8-1.1-5.3-2.2-1.5-1-2.5-2.3-3.2-3.7-.7-1.4-.8-2.9-.6-4.3l6.9,1.3c-.2,1.1,0,2,.6,2.6s1.5,1.1,2.6,1.3c1,.2,1.8.1,2.4-.2.6-.3.9-.8,1.1-1.5Z"/>
  <path class="cls-1" d="M356.6,86.5l-4.1,10.3-7.3-2.9,12.1-30.4,12.1,4.8c2.3.9,4.2,2.2,5.7,3.7,1.4,1.6,2.3,3.3,2.7,5.3.4,2,.1,4-.7,6-1.2,3-3.2,4.9-6,5.8-2.8.9-6.1.7-9.8-.8l-4.7-1.9ZM358.9,80.8l4.8,1.9c1.4.6,2.6.6,3.7.2s1.8-1.3,2.3-2.6c.6-1.4.6-2.7.2-3.9-.4-1.2-1.3-2-2.6-2.5l-4.9-1.9-3.5,8.8Z"/>
  <path class="cls-1" d="M381.6,110.9c-3.3-1.8-5.3-4.3-6.3-7.3-.9-3.1-.5-6.2,1.2-9.3l.3-.5c1.2-2.2,2.7-3.9,4.4-5.1,1.7-1.2,3.6-1.8,5.7-1.9,2.1,0,4.1.5,6.2,1.7,3,1.7,4.8,3.9,5.5,6.7s.1,5.9-1.8,9.2l-1.4,2.6-13.1-7.4c-.4,1.3-.4,2.5,0,3.7s1.3,2,2.5,2.8c2.1,1.2,4.1,1.4,6.1.6l1,5.3c-1.5.7-3.1.9-5,.7s-3.7-.7-5.4-1.7ZM390.4,93.6c-1.9-1.1-3.8-.5-5.6,1.9l6.7,3.7.3-.5c.6-1,.8-2,.6-2.9-.2-.9-.9-1.6-1.9-2.2Z"/>
  <path class="cls-1" d="M414.6,111.2l-1.9-1.6c-1.9-1.4-3.6-1.6-5-.8l-8.9,12.6-6.2-4.4,14-19.9,5.8,4.1-1.6,2.7c2.4-1.2,4.5-1.2,6.4.2.7.5,1.2.9,1.6,1.4l-4.2,5.7Z"/>
  <path class="cls-1" d="M445.9,118.2l-11.4,21,21.5-10.4,7.2,7.5-23.7,22.6-5.5-5.7,5.5-5.3,11.8-10.2-22.3,10.3-3.6-3.8,11.4-21.8-10.8,11.4-5.5,5.3-5.4-5.7,23.7-22.6,7.1,7.5Z"/>
  <path class="cls-1" d="M445.9,168.6l-4.5-6.1,19.6-14.4,4.5,6.1-19.6,14.4ZM465.8,144.1c.9-.6,1.8-.8,2.8-.6,1,.2,1.9.8,2.6,1.8s1.1,2,1,3.1c0,1-.6,1.9-1.4,2.5-.9.6-1.8.8-2.8.6-1-.2-1.9-.8-2.6-1.8-.7-1-1.1-2-1-3.1s.6-1.9,1.4-2.5Z"/>
  <path class="cls-1" d="M472.8,165.2l-2.3,1.7c2.8.3,4.9,1.7,6.4,4.2,1.3,2.2,1.6,4.2,1,6-.7,1.9-2.3,3.6-4.9,5.2l-13.4,8.1-3.9-6.5,13.1-7.9c1.1-.6,1.7-1.3,1.9-2,.2-.7,0-1.6-.6-2.8-.8-1.3-1.8-1.9-3.2-1.9l-14.7,8.8-3.9-6.5,20.8-12.5,3.7,6.1Z"/>
  <path class="cls-1" d="M469.3,205.4c-2.5-.6-4.3-2.2-5.4-4.7-1.1-2.4-1.2-4.6-.3-6.5.9-1.9,2.6-3.4,5.3-4.6l14.4-6.3,3.1,6.9-14.4,6.4c-1.9.8-2.4,2.2-1.6,4,.7,1.6,1.8,2.5,3.2,2.6l15.6-6.9,3.1,7-22.2,9.8-2.9-6.5,2.3-1.3Z"/>
  <path class="cls-1" d="M502.4,215.5l-5.7,1.9,1.2,3.8-5,1.6-1.2-3.8-10.6,3.4c-.9.3-1.4.6-1.7,1.1-.2.4-.2,1.1,0,2,.2.7.5,1.3.7,1.8l-5.1,1.7c-.8-1.2-1.5-2.4-1.9-3.9-.8-2.5-.8-4.5,0-6.1.8-1.6,2.4-2.7,4.7-3.5l11.5-3.7-1-2.9,5-1.6,1,2.9,5.7-1.9,2.3,7.2Z"/>
  <path class="cls-1" d="M477.5,242.3c-.8-3.6-.3-6.8,1.3-9.6,1.7-2.7,4.3-4.5,7.8-5.2h.6c2.4-.7,4.7-.7,6.7-.2s3.8,1.5,5.2,3c1.4,1.5,2.3,3.4,2.9,5.8.7,3.3.3,6.2-1.4,8.6s-4.3,4-8,4.8l-2.9.6-3.2-14.7c-1.3.6-2.2,1.4-2.8,2.4-.6,1.1-.7,2.3-.4,3.7.5,2.3,1.7,4,3.6,5l-3.3,4.2c-1.5-.6-2.8-1.7-3.9-3.3-1.1-1.5-1.9-3.3-2.3-5.2ZM496.3,237.4c-.5-2.2-2.2-3.1-5.1-2.9l1.6,7.5h.6c1.2-.4,2-.9,2.6-1.6s.6-1.7.4-2.9Z"/>
  <path class="cls-1" d="M484.3,345.7l1.3-4.1-11-3.5,2.4-7.5,31.2,9.8-3.8,12.3c-1.2,3.7-2.9,6.3-5.2,7.9-2.3,1.6-4.9,1.9-7.9,1-2.2-.7-3.8-1.7-5-3-1.2-1.3-1.9-3.1-2.2-5.2l-14.6,2.6h-.3c0-.1,2.5-8.2,2.5-8.2l12.8-2.1ZM491.4,343.4l-1.5,4.8c-.4,1.4-.4,2.6.1,3.6.5,1,1.5,1.6,2.8,2.1,1.3.4,2.5.4,3.5-.1,1-.5,1.7-1.4,2.2-2.9l1.5-4.8-8.6-2.7Z"/>
  <path class="cls-1" d="M479.6,362.2c2.2,1,4,2.4,5.3,4,1.3,1.7,2.1,3.5,2.2,5.5.2,2-.2,4.1-1.3,6.3-1.5,3.3-3.8,5.4-6.7,6.3-2.9.9-6.2.6-9.7-1.1h-.2c-3.4-1.7-5.7-4-6.8-6.8s-.9-5.9.6-9.2c1.5-3.1,3.6-5.2,6.4-6.2,2.8-1,5.8-.8,9.1.5l1.2.5ZM476,368.9c-2-1-3.7-1.3-4.9-1.1s-2.2.9-2.8,2.2c-1.1,2.4.1,4.6,3.9,6.4l.7.3c3.9,1.9,6.5,1.5,7.7-1,1.1-2.3,0-4.3-3.4-6.1l-1.2-.6Z"/>
  <path class="cls-1" d="M478.5,403.5l-5.2-3.1-2.1,3.4-4.5-2.7,2.1-3.4-9.5-5.7c-.8-.5-1.4-.7-1.9-.6s-1,.6-1.5,1.4c-.4.6-.7,1.2-.9,1.7l-4.6-2.8c.3-1.4.9-2.7,1.6-4,1.3-2.2,2.9-3.6,4.5-4,1.7-.4,3.6,0,5.8,1.3l10.3,6.2,1.6-2.7,4.5,2.7-1.6,2.7,5.2,3.1-3.9,6.5Z"/>
  <path class="cls-1" d="M441.2,404.2c.6,0,1.3.3,2.2.7-.6-2.2-.1-4.2,1.4-6.3,1.4-1.8,3.1-3,5.1-3.5,2.1-.5,3.9,0,5.6,1.2,2.1,1.6,3.1,3.5,3.1,5.9,0,2.4-1.2,5-3.4,8l-1.4,1.9,1,.8c1.8,1.3,3.3,1.2,4.4-.3,1.1-1.4.9-2.7-.5-3.8l4.5-6.1c1.9,1.4,2.8,3.3,2.8,5.8s-.9,5-2.8,7.5c-1.8,2.5-3.9,4-6.2,4.6-2.3.5-4.5,0-6.6-1.5l-8.6-6.4c-1.8-1.3-3.4-2-4.7-2.2l-.3-.2,4.5-6.1ZM447.9,403.4c-.6.8-.9,1.5-.9,2.2s0,1.4.3,1.9l3.1,2.3,1.3-1.8c1.6-2.1,1.4-3.9-.5-5.3-.6-.4-1.1-.6-1.8-.4s-1.1.5-1.6,1Z"/>
  <path class="cls-1" d="M451.5,438.9l-4.5-4-2.7,3-3.9-3.5,2.7-3-8.3-7.4c-.7-.6-1.3-.9-1.7-.9s-1.1.4-1.7,1.1c-.5.6-.9,1.1-1.2,1.5l-4-3.6c.6-1.3,1.4-2.5,2.4-3.6,1.7-1.9,3.5-3,5.2-3.1s3.5.7,5.4,2.4l9,8.1,2.1-2.3,3.9,3.5-2.1,2.3,4.5,4-5.1,5.6Z"/>
  <path class="cls-1" d="M415.9,430.8c2.8-2.5,5.7-3.7,8.9-3.6,3.2,0,6,1.5,8.4,4.1l.4.5c1.7,1.8,2.8,3.8,3.4,5.8.6,2,.6,4,0,6s-1.8,3.8-3.6,5.4c-2.5,2.3-5.2,3.3-8.1,3.1-2.9-.2-5.6-1.8-8.2-4.6l-2-2.2,11.1-10.1c-1.1-.8-2.3-1.2-3.5-1.2-1.2,0-2.3.5-3.4,1.5-1.8,1.6-2.6,3.5-2.5,5.6l-5.3-.7c-.2-1.6.1-3.3.9-5,.8-1.7,1.9-3.3,3.3-4.6ZM429.5,444.6c1.6-1.5,1.6-3.5,0-5.9l-5.6,5.1.4.4c.8.9,1.7,1.4,2.6,1.5.9,0,1.8-.3,2.7-1.1Z"/>
  <path class="cls-1" d="M400.5,452.3c.4.5.9.7,1.7.7s2.1-.5,3.8-1.2c1.8-.8,3.4-1.2,4.8-1.4,1.4-.2,2.6,0,3.7.4,1.1.4,2,1.1,2.7,2.2,1.3,1.8,1.6,3.8,1,6.1-.7,2.2-2.2,4.2-4.6,6-2.6,1.9-5.1,2.8-7.6,2.7-2.4,0-4.3-1-5.7-3l6.2-4.4c1.1,1.6,2.5,1.8,4.2.6.6-.5,1.1-1,1.2-1.7.2-.7,0-1.3-.3-1.8-.4-.5-1-.8-1.8-.8-.8,0-1.8.4-3.2,1-1.3.6-2.6,1.1-3.7,1.4-3.7,1.1-6.5.3-8.4-2.3-1.3-1.8-1.5-3.8-.7-6.1.8-2.3,2.5-4.3,5-6.2,1.7-1.2,3.4-2,5.2-2.3,1.8-.3,3.4-.3,4.9.3s2.7,1.4,3.5,2.5l-5.8,4.1c-.7-.9-1.5-1.3-2.3-1.3-.9,0-1.8.3-2.7,1-.8.6-1.3,1.2-1.5,1.9-.2.6,0,1.2.3,1.8Z"/>
  <path class="cls-1" d="M371.4,461.5l6.7-3.5,11.2,21.6-6.7,3.5-11.2-21.6ZM392.6,485c.5,1,.6,1.9.2,2.9-.4,1-1.1,1.7-2.2,2.3-1.1.6-2.2.7-3.2.5s-1.8-.9-2.3-1.8-.6-1.9-.2-2.9c.4-1,1.1-1.7,2.2-2.3,1.1-.6,2.2-.7,3.2-.5,1,.3,1.8.9,2.3,1.8Z"/>
  <path class="cls-1" d="M370.7,488.6l-1.3-2.6c-.7,2.7-2.5,4.6-5.2,5.7-2.3.9-4.4,1-6.1,0-1.7-.9-3.2-2.8-4.4-5.6l-5.9-14.5,7-2.8,5.8,14.2c.5,1.1,1,1.9,1.7,2.2s1.6.3,2.8-.2c1.4-.6,2.2-1.5,2.4-2.9l-6.4-15.9,7-2.8,9.1,22.5-6.6,2.7Z"/>
  <path class="cls-1" d="M323,511.9l-1.2-5.8h.3c2.8-.6,4.9-1.8,6.4-3.4s2.2-3.8,2.2-6.2c-1.3,2-3.3,3.2-5.8,3.8-2.8.6-5.2,0-7.2-1.7-2.1-1.7-3.4-4.2-4.1-7.5-.4-2-.3-4,.3-5.9.6-1.9,1.7-3.5,3.2-4.8,1.5-1.3,3.3-2.2,5.4-2.6,2.3-.5,4.4-.4,6.4.3,2,.7,3.7,1.9,5.1,3.6s2.4,3.8,2.9,6.3l.6,3c.7,3.3.6,6.4-.3,9.3-.9,2.9-2.5,5.4-4.8,7.4s-5.1,3.4-8.3,4l-1.1.2ZM326.3,493.9c1-.2,1.8-.6,2.3-1.2.6-.6.9-1.2,1.1-2l-.5-2.2c-.8-4.1-2.6-5.8-5.4-5.2-1.1.2-2,.9-2.5,2.1-.5,1.2-.7,2.5-.4,4,.3,1.6,1,2.8,1.9,3.6s2.1,1.1,3.4.9Z"/>
  <path class="cls-1" d="M297.8,481.7l.5,32.7-10.5.2c-2.9,0-5.5-.6-7.8-1.8-2.3-1.3-4.2-3.1-5.5-5.5-1.3-2.4-2-5-2.1-8v-1.5c0-3,.5-5.7,1.7-8.1,1.2-2.4,3-4.3,5.3-5.7,2.3-1.4,4.8-2.1,7.7-2.2l10.8-.2ZM290.3,508.5l-.3-20.5h-2.7c-2.3,0-4,.9-5.2,2.5-1.2,1.6-1.8,4-1.7,7.2v1.4c0,3.2.7,5.5,2,7.1s3,2.4,5.3,2.3h2.6Z"/>
  <path class="cls-1" d="M255.7,480.1c.2.5.4,1.3.5,2.2,1.6-1.6,3.6-2.2,6.1-1.9,2.3.3,4.1,1.2,5.5,2.8,1.4,1.6,2,3.4,1.8,5.5-.3,2.6-1.5,4.5-3.6,5.6-2.1,1.1-5,1.4-8.7,1l-2.3-.3-.2,1.3c-.3,2.2.6,3.5,2.5,3.7,1.8.2,2.8-.6,3-2.3l7.5.9c-.3,2.3-1.5,4.1-3.7,5.3-2.2,1.2-4.8,1.6-7.9,1.3s-5.4-1.4-7-3.1c-1.6-1.7-2.3-3.9-2-6.5l1.3-10.7c.2-2.2.1-4-.4-5.2v-.4s7.6.9,7.6.9ZM259.8,485.5c-.9-.1-1.7,0-2.4.3-.7.3-1.2.7-1.5,1.2l-.5,3.9,2.2.3c2.6.3,4.1-.7,4.4-3,0-.7,0-1.3-.5-1.7-.4-.5-1-.8-1.7-.8Z"/>
  <path class="cls-1" d="M234.1,486.7l-7.2,12.4-7.9-1.9,16.3-25.2.7-.9c2.1-2.7,4.9-3.7,8.4-2.8,1,.2,1.9.6,2.9,1.2l-1.3,5.2-1-.2c-1-.3-1.9-.3-2.5-.1s-1.2.6-1.6,1.3l-1,1.4,2.4,25.8-7.9-1.9-.5-14.2Z"/>
  <path class="cls-1" d="M209.5,475.1c-.2.6,0,1.2.4,1.8.5.6,1.6,1.4,3.2,2.5s2.9,2.1,3.8,3.2,1.5,2.2,1.8,3.3.2,2.3-.3,3.5c-.8,2.1-2.3,3.5-4.5,4.2-2.2.7-4.7.6-7.5-.5-3-1.1-5.2-2.7-6.5-4.7s-1.6-4.2-.8-6.4l7.1,2.6c-.7,1.8,0,3.1,1.9,3.8.7.3,1.4.3,2.1,0,.7-.2,1.1-.7,1.3-1.3.2-.6.1-1.3-.4-1.9-.5-.6-1.3-1.3-2.6-2.1-1.3-.8-2.3-1.5-3.2-2.2-3-2.4-3.9-5.2-2.8-8.2.8-2.1,2.3-3.4,4.6-4.1,2.3-.6,5-.4,7.9.7,2,.7,3.6,1.7,4.8,3,1.3,1.3,2.1,2.7,2.5,4.2.4,1.5.4,3-.1,4.3l-6.6-2.4c.4-1.1.3-2-.2-2.7-.5-.7-1.3-1.3-2.3-1.7-1-.4-1.8-.4-2.4-.2-.6.2-1.1.6-1.3,1.3Z"/>
  <path class="cls-1" d="M173,448.9l19.7,11.6-2.5,4.3-14.7,4.2c-3.7,1.2-6,2.6-6.9,4.1-.7,1.2-1,2.3-.8,3.2s.7,1.7,1.7,2.3c1,.6,2,.6,3.2.2,1.1-.5,2-1.4,2.8-2.6l6.5,3.8c-1,1.7-2.4,3.1-4.1,4-1.7,1-3.6,1.4-5.6,1.3-2,0-4-.7-5.9-1.8-3-1.8-5-3.9-5.8-6.2-.8-2.4-.5-4.9,1.1-7.5.7-1.1,1.5-2.1,2.5-2.9,1-.8,2.3-1.5,3.9-2.2,1.6-.6,3.9-1.4,6.9-2.2l6.1-2.1-11.1-6.5,3-5Z"/>
  <path class="cls-1" d="M153.2,458.4l-2.8-2.2c-2.2-1.7-4.2-1.5-5.9.7-.7.9-.9,1.8-.8,2.7.1,1,.7,1.8,1.6,2.6.8.6,1.7.9,2.6.9.9,0,1.7-.4,2.2-1l6,4.6c-1.1,1.4-2.4,2.3-4,2.8-1.6.5-3.3.5-5.1,0-1.8-.4-3.5-1.3-5.1-2.5-2.9-2.2-4.6-4.6-5.2-7.2-.6-2.6,0-5,1.7-7.3.9-1.1,2-1.9,3.5-2.4,1.4-.5,3.1-.5,4.8,0-1-1.6-1.5-3.2-1.5-4.8,0-1.6.6-3.2,1.7-4.7,1.8-2.3,4.1-3.5,7-3.5,2.8,0,5.7,1.1,8.6,3.3,1.7,1.3,3,2.9,4,4.6.9,1.8,1.4,3.5,1.2,5.2-.1,1.7-.8,3.3-1.9,4.8l-6-4.7c.6-.8.8-1.7.6-2.8-.2-1.1-.8-2-1.7-2.7-1.1-.8-2.1-1.2-3.2-1.1s-2,.6-2.7,1.5c-1,1.3-1.4,2.5-1.2,3.5.2,1,.9,2,2.1,2.9l2.9,2.3-3.5,4.5Z"/>
  <path class="cls-1" d="M124.3,402.9l5.1,5.9-10.3,8.9,7.6,8.8,10.3-8.9,5.2,6-24.7,21.4-5.2-6,9.8-8.5-7.6-8.8-9.8,8.5-5.1-5.9,24.7-21.4Z"/>
  <path class="cls-1" d="M112.4,407.5c-2,1.3-4.1,2.1-6.2,2.3s-4.1-.1-5.9-1c-1.8-.9-3.4-2.4-4.7-4.4-2-3.1-2.6-6.1-1.8-9.1.8-3,2.8-5.5,6-7.6h.2c3.2-2.2,6.3-2.9,9.3-2.4s5.5,2.4,7.4,5.4c1.9,2.9,2.5,5.8,1.9,8.7-.6,2.9-2.4,5.4-5.2,7.4l-1.1.7ZM108.7,400.8c1.9-1.2,3.1-2.4,3.6-3.6.5-1.2.4-2.3-.4-3.5-1.5-2.3-4-2.3-7.5,0l-.6.4c-3.7,2.4-4.7,4.7-3.2,7.1,1.4,2.1,3.7,2.3,7,.4l1.2-.7Z"/>
  <path class="cls-1" d="M100.3,367.1c2.5.6,4.4,2.1,5.6,4.5,1.2,2.4,1.3,4.6.5,6.5s-2.5,3.5-5.1,4.7l-14.2,6.8-3.3-6.8,14.2-6.8c1.9-.9,2.4-2.3,1.5-4.1-.8-1.6-1.8-2.4-3.3-2.5l-15.4,7.4-3.3-6.9,21.9-10.5,3.1,6.4-2.3,1.3Z"/>
  <path class="cls-1" d="M77.1,348.1l.7,2.4c.8,2.2,2,3.4,3.7,3.6l14.5-5.2,2.5,7.1-22.9,8.2-2.4-6.7,2.9-1.3c-2.7-.4-4.4-1.7-5.2-3.8-.3-.8-.4-1.5-.5-2.1l6.7-2.2Z"/>
  <path class="cls-1" d="M83.2,329.7c-.6.2-1,.6-1.3,1.4-.2.7-.3,2.1-.3,4,0,1.9-.1,3.6-.5,4.9-.4,1.4-.9,2.5-1.7,3.3-.8.9-1.8,1.4-3,1.7-2.2.5-4.2,0-6-1.4s-3.1-3.6-3.8-6.5c-.8-3.1-.7-5.8.3-8,.9-2.2,2.6-3.6,4.9-4.2l1.8,7.4c-1.9.5-2.6,1.7-2.1,3.7.2.8.6,1.4,1.1,1.8.6.4,1.2.5,1.8.4.7-.2,1.1-.6,1.4-1.4.2-.7.3-1.8.2-3.3s0-2.8,0-3.9c.3-3.8,2.1-6.2,5.2-6.9,2.2-.5,4.1,0,6,1.6,1.8,1.6,3.1,3.9,3.9,6.9.5,2,.6,3.9.2,5.7s-1,3.2-2,4.4-2.2,2-3.6,2.3l-1.7-6.9c1.1-.3,1.8-.9,2.1-1.7s.4-1.8,0-2.9c-.2-1-.6-1.7-1.2-2.1-.5-.4-1.1-.5-1.8-.4Z"/>
</svg>